AcariSans-SemiBoldItalic.ufo
<glyph name="exclam" format="2">
  <advance width="635"/>
  <unicode hex="0021"/>
  <outline>
    <contour>
      <point x="379" y="413" type="line"/>
      <point x="217" y="413" type="line"/>
      <point x="423" y="1434" type="line"/>
      <point x="643" y="1434" type="line"/>
    </contour>
    <contour>
      <point x="325" y="0" type="line"/>
      <point x="81" y="0" type="line"/>
      <point x="136" y="242" type="line"/>
      <point x="380" y="242" type="line"/>
    </contour>
  </outline>
</glyph>
<glyph name="quotedbl" format="2">
  <advance width="945"/>
  <unicode hex="0022"/>
  <outline>
    <contour>
      <point x="489" y="903" type="line"/>
      <point x="307" y="903" type="line"/>
      <point x="425" y="1413" type="line"/>
      <point x="608" y="1413" type="line"/>
    </contour>
    <contour>
      <point x="823" y="903" type="line"/>
      <point x="640" y="903" type="line"/>
      <point x="758" y="1413" type="line"/>
      <point x="942" y="1413" type="line"/>
    </contour>
  </outline>
</glyph>
<glyph name="numbersign" format="2">
  <advance width="1380"/>
  <unicode hex="0023"/>
  <outline>
    <contour>
      <point x="726" y="0" type="line"/>
      <point x="555" y="0" type="line"/>
      <point x="748" y="436" type="line"/>
      <point x="478" y="436" type="line"/>
      <point x="287" y="0" type="line"/>
      <point x="117" y="0" type="line"/>
      <point x="305" y="421" type="line"/>
      <point x="70" y="421" type="line"/>
      <point x="106" y="575" type="line"/>
      <point x="372" y="575" type="line"/>
      <point x="496" y="859" type="line"/>
      <point x="252" y="859" type="line"/>
      <point x="290" y="1017" type="line"/>
      <point x="565" y="1017" type="line"/>
      <point x="756" y="1434" type="line"/>
      <point x="928" y="1434" type="line"/>
      <point x="732" y="997" type="line"/>
      <point x="1000" y="997" type="line"/>
      <point x="1194" y="1434" type="line"/>
      <point x="1366" y="1434" type="line"/>
      <point x="1175" y="1012" type="line"/>
      <point x="1410" y="1012" type="line"/>
      <point x="1373" y="859" type="line"/>
      <point x="1107" y="859" type="line"/>
      <point x="983" y="575" type="line"/>
      <point x="1227" y="575" type="line"/>
      <point x="1189" y="417" type="line"/>
      <point x="914" y="417" type="line"/>
    </contour>
    <contour>
      <point x="813" y="575" type="line"/>
      <point x="936" y="859" type="line"/>
      <point x="667" y="859" type="line"/>
      <point x="543" y="575" type="line"/>
    </contour>
  </outline>
</glyph>
<glyph name="dollar" format="2">
  <advance width="1114"/>
  <unicode hex="0024"/>
  <outline>
    <contour>
      <point x="476" y="-246" type="line"/>
      <point x="304" y="-246" type="line"/>
      <point x="365" y="-11" type="line"/>
      <point x="274" y="4"/>
      <point x="123" y="95"/>
      <point x="31" y="247"/>
      <point x="31" y="355" type="qcurve"/>
      <point x="32" y="389" type="line"/>
      <point x="253" y="420" type="line"/>
      <point x="251" y="384" type="line"/>
      <point x="251" y="315"/>
      <point x="314" y="227"/>
      <point x="424" y="186"/>
      <point x="495" y="186" type="qcurve" smooth="yes"/>
      <point x="613" y="186"/>
      <point x="782" y="298"/>
      <point x="812" y="417" type="qcurve" smooth="yes"/>
      <point x="816" y="434"/>
      <point x="816" y="453" type="qcurve" smooth="yes"/>
      <point x="816" y="501"/>
      <point x="756" y="572"/>
      <point x="665" y="623"/>
      <point x="587" y="659" type="qcurve" smooth="yes"/>
      <point x="484" y="706"/>
      <point x="358" y="787"/>
      <point x="317" y="845" type="qcurve" smooth="yes"/>
      <point x="273" y="906"/>
      <point x="273" y="993" type="qcurve" smooth="yes"/>
      <point x="273" y="1049"/>
      <point x="316" y="1184"/>
      <point x="364" y="1245" type="qcurve"/>
      <point x="426" y="1321"/>
      <point x="592" y="1413"/>
      <point x="685" y="1430" type="qcurve"/>
      <point x="744" y="1659" type="line"/>
      <point x="916" y="1659" type="line"/>
      <point x="857" y="1430" type="line"/>
      <point x="959" y="1416"/>
      <point x="1110" y="1300"/>
      <point x="1146" y="1194" type="qcurve"/>
      <point x="951" y="1104" type="line"/>
      <point x="928" y="1176"/>
      <point x="821" y="1239"/>
      <point x="751" y="1239" type="qcurve" smooth="yes"/>
      <point x="667" y="1239"/>
      <point x="522" y="1137"/>
      <point x="501" y="1052" type="qcurve" smooth="yes"/>
      <point x="497" y="1037"/>
      <point x="497" y="1020" type="qcurve" smooth="yes"/>
      <point x="497" y="976"/>
      <point x="554" y="910"/>
      <point x="640" y="863"/>
      <point x="716" y="828" type="qcurve"/>
      <point x="821" y="782"/>
      <point x="950" y="699"/>
      <point x="993" y="640" type="qcurve"/>
      <point x="1038" y="575"/>
      <point x="1038" y="482" type="qcurve" smooth="yes"/>
      <point x="1038" y="413"/>
      <point x="984" y="254"/>
      <point x="929" y="186" type="qcurve"/>
      <point x="853" y="95"/>
      <point x="649" y="-6"/>
      <point x="535" y="-17" type="qcurve"/>
    </contour>
  </outline>
</glyph>
<glyph name="ampersand" format="2">
  <advance width="1375"/>
  <unicode hex="0026"/>
  <outline>
    <contour>
      <point x="1032" y="-69" type="line"/>
      <point x="895" y="145" type="line"/>
      <point x="792" y="65"/>
      <point x="556" y="-22"/>
      <point x="430" y="-22" type="qcurve" smooth="yes"/>
      <point x="323" y="-22"/>
      <point x="150" y="40"/>
      <point x="47" y="165"/>
      <point x="47" y="259" type="qcurve" smooth="yes"/>
      <point x="47" y="343"/>
      <point x="116" y="491"/>
      <point x="227" y="611"/>
      <point x="292" y="656" type="qcurve" smooth="yes"/>
      <point x="376" y="714"/>
      <point x="492" y="776" type="qcurve"/>
      <point x="448" y="836"/>
      <point x="390" y="973"/>
      <point x="390" y="1051" type="qcurve" smooth="yes"/>
      <point x="390" y="1140"/>
      <point x="470" y="1281"/>
      <point x="600" y="1379"/>
      <point x="756" y="1430"/>
      <point x="831" y="1430" type="qcurve" smooth="yes"/>
      <point x="924" y="1430"/>
      <point x="1058" y="1358"/>
      <point x="1131" y="1236"/>
      <point x="1131" y="1161" type="qcurve" smooth="yes"/>
      <point x="1131" y="1089"/>
      <point x="1066" y="945"/>
      <point x="1008" y="888" type="qcurve" smooth="yes"/>
      <point x="920" y="802"/>
      <point x="779" y="720" type="qcurve"/>
      <point x="943" y="469" type="line"/>
      <point x="1013" y="579"/>
      <point x="1046" y="704" type="qcurve"/>
      <point x="1242" y="664" type="line"/>
      <point x="1182" y="459"/>
      <point x="1052" y="300" type="qcurve"/>
      <point x="1207" y="63" type="line"/>
    </contour>
    <contour>
      <point x="659" y="864" type="qcurve"/>
      <point x="783" y="929"/>
      <point x="922" y="1052"/>
      <point x="938" y="1124" type="qcurve"/>
      <point x="942" y="1146"/>
      <point x="942" y="1156" type="qcurve" smooth="yes"/>
      <point x="942" y="1200"/>
      <point x="881" y="1260"/>
      <point x="820" y="1260" type="qcurve" smooth="yes"/>
      <point x="748" y="1260"/>
      <point x="613" y="1169"/>
      <point x="590" y="1082" type="qcurve" smooth="yes"/>
      <point x="587" y="1070"/>
      <point x="587" y="1056" type="qcurve" smooth="yes"/>
      <point x="587" y="982"/>
    </contour>
    <contour>
      <point x="444" y="162" type="qcurve" smooth="yes"/>
      <point x="636" y="162"/>
      <point x="797" y="299" type="qcurve"/>
      <point x="593" y="618" type="line"/>
      <point x="445" y="539"/>
      <point x="273" y="391"/>
      <point x="251" y="299" type="qcurve" smooth="yes"/>
      <point x="248" y="284"/>
      <point x="248" y="270" type="qcurve" smooth="yes"/>
      <point x="248" y="212"/>
      <point x="358" y="162"/>
    </contour>
  </outline>
</glyph>
<glyph name="parenleft" format="2">
  <advance width="571"/>
  <unicode hex="0028"/>
  <outline>
    <contour>
      <point x="397" y="-103" type="qcurve"/>
      <point x="223" y="-89" type="line"/>
      <point x="170" y="-14"/>
      <point x="121" y="224"/>
      <point x="121" y="361" type="qcurve" smooth="yes"/>
      <point x="121" y="587"/>
      <point x="240" y="1026"/>
      <point x="446" y="1391"/>
      <point x="579" y="1512" type="qcurve"/>
      <point x="776" y="1498" type="line"/>
      <point x="435" y="1167"/>
      <point x="322" y="682" type="qcurve" smooth="yes"/>
      <point x="281" y="503"/>
      <point x="281" y="352" type="qcurve" smooth="yes"/>
      <point x="281" y="110"/>
    </contour>
  </outline>
</glyph>
<glyph name="parenright" format="2">
  <advance width="572"/>
  <unicode hex="0029"/>
  <outline>
    <contour>
      <point x="83" y="-103" type="qcurve"/>
      <point x="-106" y="-89" type="line"/>
      <point x="75" y="93"/>
      <point x="288" y="484"/>
      <point x="342" y="723" type="qcurve" smooth="yes"/>
      <point x="382" y="897"/>
      <point x="382" y="1051" type="qcurve" smooth="yes"/>
      <point x="382" y="1312"/>
      <point x="269" y="1512" type="qcurve"/>
      <point x="448" y="1498" type="line"/>
      <point x="553" y="1338"/>
      <point x="553" y="1071" type="qcurve" smooth="yes"/>
      <point x="553" y="936"/>
      <point x="488" y="587"/>
      <point x="409" y="394" type="qcurve"/>
      <point x="346" y="244"/>
      <point x="179" y="-20"/>
    </contour>
  </outline>
</glyph>
<glyph name="asterisk" format="2">
  <advance width="894"/>
  <unicode hex="002A"/>
  <outline>
    <contour>
      <point x="644" y="839" type="line"/>
      <point x="579" y="1055" type="line"/>
      <point x="415" y="839" type="line"/>
      <point x="294" y="930" type="line"/>
      <point x="494" y="1102" type="line"/>
      <point x="269" y="1136" type="line"/>
      <point x="355" y="1286" type="line"/>
      <point x="553" y="1199" type="line"/>
      <point x="574" y="1413" type="line"/>
      <point x="743" y="1413" type="line"/>
      <point x="664" y="1199" type="line"/>
      <point x="897" y="1286" type="line"/>
      <point x="916" y="1136" type="line"/>
      <point x="673" y="1102" type="line"/>
      <point x="798" y="930" type="line"/>
    </contour>
  </outline>
</glyph>
<glyph name="plus" format="2">
  <advance width="1260"/>
  <unicode hex="002B"/>
  <outline>
    <contour>
      <point x="711" y="106" type="line"/>
      <point x="549" y="106" type="line"/>
      <point x="549" y="544" type="line"/>
      <point x="92" y="544" type="line"/>
      <point x="92" y="706" type="line"/>
      <point x="549" y="706" type="line"/>
      <point x="549" y="1143" type="line"/>
      <point x="711" y="1143" type="line"/>
      <point x="711" y="706" type="line"/>
      <point x="1168" y="706" type="line"/>
      <point x="1168" y="544" type="line"/>
      <point x="711" y="544" type="line"/>
    </contour>
  </outline>
</glyph>
<glyph name="comma" format="2">
  <advance width="632"/>
  <unicode hex="002C"/>
  <outline>
    <contour>
      <point x="139" y="-225" type="line"/>
      <point x="-4" y="-225" type="line"/>
      <point x="210" y="264" type="line"/>
      <point x="467" y="264" type="line"/>
    </contour>
  </outline>
</glyph>
<glyph name="slash" format="2">
  <advance width="935"/>
  <unicode hex="002F"/>
  <outline>
    <contour>
      <point x="-29" y="-430" type="line"/>
      <point x="-238" y="-430" type="line"/>
      <point x="984" y="1516" type="line"/>
      <point x="1192" y="1516" type="line"/>
    </contour>
  </outline>
</glyph>
<glyph name="one" format="2">
  <advance width="1200"/>
  <unicode hex="0031"/>
  <outline>
    <contour>
      <point x="682" y="0" type="line"/>
      <point x="462" y="0" type="line"/>
      <point x="702" y="1046" type="line"/>
      <point x="382" y="1046" type="line"/>
      <point x="422" y="1219" type="line"/>
      <point x="588" y="1219" type="line" smooth="yes"/>
      <point x="661" y="1219"/>
      <point x="774" y="1309"/>
      <point x="792" y="1387" type="qcurve" smooth="yes"/>
      <point x="798" y="1413" type="line"/>
      <point x="1008" y="1413" type="line"/>
    </contour>
  </outline>
</glyph>
<glyph name="two" format="2">
  <advance width="1200"/>
  <unicode hex="0032"/>
  <outline>
    <contour>
      <point x="1003" y="0" type="line"/>
      <point x="-39" y="0" type="line"/>
      <point x="-1" y="188" type="line"/>
      <point x="149" y="275"/>
      <point x="449" y="466"/>
      <point x="593" y="587" type="qcurve"/>
      <point x="887" y="803"/>
      <point x="943" y="1027" type="qcurve"/>
      <point x="951" y="1062"/>
      <point x="951" y="1090" type="qcurve" smooth="yes"/>
      <point x="951" y="1153"/>
      <point x="873" y="1231"/>
      <point x="789" y="1231" type="qcurve" smooth="yes"/>
      <point x="699" y="1231"/>
      <point x="562" y="1140"/>
      <point x="469" y="993"/>
      <point x="445" y="906" type="qcurve"/>
      <point x="233" y="940" type="line"/>
      <point x="264" y="1072"/>
      <point x="421" y="1296"/>
      <point x="547" y="1367" type="qcurve"/>
      <point x="667" y="1432"/>
      <point x="809" y="1432" type="qcurve" smooth="yes"/>
      <point x="926" y="1432"/>
      <point x="1090" y="1347"/>
      <point x="1175" y="1199"/>
      <point x="1175" y="1103" type="qcurve" smooth="yes"/>
      <point x="1175" y="911"/>
      <point x="1012" y="714" type="qcurve" smooth="yes"/>
      <point x="895" y="572"/>
      <point x="709" y="416" type="qcurve"/>
      <point x="537" y="288"/>
      <point x="367" y="194" type="qcurve"/>
      <point x="1049" y="200" type="line"/>
    </contour>
  </outline>
</glyph>
<glyph name="three" format="2">
  <advance width="1200"/>
  <unicode hex="0033"/>
  <outline>
    <contour>
      <point x="480" y="-20" type="qcurve" smooth="yes"/>
      <point x="364" y="-20"/>
      <point x="166" y="57"/>
      <point x="106" y="139" type="qcurve" smooth="yes"/>
      <point x="50" y="217"/>
      <point x="50" y="328" type="qcurve" smooth="yes"/>
      <point x="50" y="379"/>
      <point x="64" y="441" type="qcurve"/>
      <point x="274" y="437" type="line"/>
      <point x="266" y="400"/>
      <point x="266" y="374" type="qcurve" smooth="yes"/>
      <point x="266" y="310"/>
      <point x="328" y="225"/>
      <point x="435" y="183"/>
      <point x="502" y="183" type="qcurve" smooth="yes"/>
      <point x="623" y="183"/>
      <point x="837" y="315"/>
      <point x="870" y="441" type="qcurve"/>
      <point x="878" y="468"/>
      <point x="878" y="494" type="qcurve" smooth="yes"/>
      <point x="878" y="548"/>
      <point x="818" y="617"/>
      <point x="714" y="650"/>
      <point x="648" y="650" type="qcurve" smooth="yes"/>
      <point x="512" y="650" type="line"/>
      <point x="558" y="849" type="line"/>
      <point x="680" y="849" type="line" smooth="yes"/>
      <point x="770" y="849"/>
      <point x="911" y="954"/>
      <point x="936" y="1055" type="qcurve"/>
      <point x="940" y="1078"/>
      <point x="940" y="1095" type="qcurve" smooth="yes"/>
      <point x="940" y="1161"/>
      <point x="841" y="1228"/>
      <point x="764" y="1228" type="qcurve" smooth="yes"/>
      <point x="656" y="1228"/>
      <point x="497" y="1101"/>
      <point x="472" y="1004" type="qcurve"/>
      <point x="270" y="1038" type="line"/>
      <point x="321" y="1231"/>
      <point x="612" y="1434"/>
      <point x="786" y="1434" type="qcurve" smooth="yes"/>
      <point x="888" y="1434"/>
      <point x="1055" y="1362"/>
      <point x="1154" y="1224"/>
      <point x="1154" y="1125" type="qcurve" smooth="yes"/>
      <point x="1154" y="998"/>
      <point x="1075" y="883" type="qcurve" smooth="yes"/>
      <point x="1025" y="810"/>
      <point x="942" y="756" type="qcurve"/>
      <point x="1017" y="717"/>
      <point x="1084" y="583"/>
      <point x="1084" y="500" type="qcurve" smooth="yes"/>
      <point x="1084" y="403"/>
      <point x="1011" y="228"/>
      <point x="954" y="167" type="qcurve" smooth="yes"/>
      <point x="861" y="70"/>
      <point x="613" y="-20"/>
    </contour>
  </outline>
</glyph>
<glyph name="four" format="2">
  <advance width="1200"/>
  <unicode hex="0034"/>
  <outline>
    <contour>
      <point x="806" y="0" type="line"/>
      <point x="586" y="0" type="line"/>
      <point x="666" y="347" type="line"/>
      <point x="14" y="347" type="line"/>
      <point x="42" y="477" type="line"/>
      <point x="940" y="1413" type="line"/>
      <point x="1132" y="1413" type="line"/>
      <point x="932" y="548" type="line"/>
      <point x="1158" y="548" type="line"/>
      <point x="1112" y="347" type="line"/>
      <point x="886" y="347" type="line"/>
    </contour>
    <contour>
      <point x="712" y="548" type="line"/>
      <point x="834" y="1071" type="line"/>
      <point x="344" y="548" type="line"/>
    </contour>
  </outline>
</glyph>
<glyph name="five" format="2">
  <advance width="1200"/>
  <unicode hex="0035"/>
  <outline>
    <contour>
      <point x="484" y="-20" type="qcurve" smooth="yes"/>
      <point x="358" y="-20"/>
      <point x="172" y="95"/>
      <point x="123" y="193" type="qcurve" smooth="yes"/>
      <point x="76" y="287"/>
      <point x="76" y="400" type="qcurve" smooth="yes"/>
      <point x="76" y="407" type="line"/>
      <point x="288" y="449" type="line"/>
      <point x="288" y="430" type="line" smooth="yes"/>
      <point x="288" y="326"/>
      <point x="332" y="256" type="qcurve" smooth="yes"/>
      <point x="381" y="179"/>
      <point x="502" y="179" type="qcurve" smooth="yes"/>
      <point x="588" y="179"/>
      <point x="741" y="270"/>
      <point x="846" y="416"/>
      <point x="866" y="497" type="qcurve"/>
      <point x="874" y="534"/>
      <point x="874" y="565" type="qcurve" smooth="yes"/>
      <point x="874" y="651"/>
      <point x="768" y="759"/>
      <point x="666" y="759" type="qcurve" smooth="yes"/>
      <point x="588" y="759"/>
      <point x="426" y="677"/>
      <point x="370" y="611" type="qcurve"/>
      <point x="180" y="679" type="line"/>
      <point x="482" y="1413" type="line"/>
      <point x="1242" y="1413" type="line"/>
      <point x="1194" y="1209" type="line"/>
      <point x="612" y="1209" type="line"/>
      <point x="474" y="891" type="line"/>
      <point x="581" y="956"/>
      <point x="718" y="956" type="qcurve" smooth="yes"/>
      <point x="832" y="956"/>
      <point x="1004" y="856"/>
      <point x="1098" y="681"/>
      <point x="1098" y="573" type="qcurve" smooth="yes"/>
      <point x="1098" y="382"/>
      <point x="963" y="220" type="qcurve" smooth="yes"/>
      <point x="872" y="110"/>
      <point x="618" y="-20"/>
    </contour>
  </outline>
</glyph>
<glyph name="six" format="2">
  <advance width="1200"/>
  <unicode hex="0036"/>
  <outline>
    <contour>
      <point x="494" y="-20" type="qcurve" smooth="yes"/>
      <point x="368" y="-20"/>
      <point x="184" y="85"/>
      <point x="84" y="261"/>
      <point x="84" y="370" type="qcurve" smooth="yes"/>
      <point x="84" y="556"/>
      <point x="220" y="719" type="qcurve"/>
      <point x="804" y="1413" type="line"/>
      <point x="1062" y="1413" type="line"/>
      <point x="634" y="930" type="line"/>
      <point x="666" y="933"/>
      <point x="688" y="933" type="qcurve" smooth="yes"/>
      <point x="816" y="933"/>
      <point x="1002" y="834"/>
      <point x="1102" y="663"/>
      <point x="1102" y="557" type="qcurve" smooth="yes"/>
      <point x="1102" y="399"/>
      <point x="911" y="124"/>
      <point x="758" y="45" type="qcurve" smooth="yes"/>
      <point x="632" y="-20"/>
    </contour>
    <contour>
      <point x="518" y="187" type="qcurve" smooth="yes"/>
      <point x="602" y="187"/>
      <point x="754" y="271"/>
      <point x="862" y="407"/>
      <point x="880" y="486" type="qcurve" smooth="yes"/>
      <point x="886" y="514"/>
      <point x="886" y="543" type="qcurve" smooth="yes"/>
      <point x="886" y="633"/>
      <point x="764" y="744"/>
      <point x="670" y="744" type="qcurve" smooth="yes"/>
      <point x="583" y="744"/>
      <point x="432" y="660"/>
      <point x="326" y="525"/>
      <point x="306" y="446" type="qcurve"/>
      <point x="300" y="413"/>
      <point x="300" y="390" type="qcurve" smooth="yes"/>
      <point x="300" y="303"/>
      <point x="420" y="187"/>
    </contour>
  </outline>
</glyph>
<glyph name="seven" format="2">
  <advance width="1200"/>
  <unicode hex="0037"/>
  <outline>
    <contour>
      <point x="364" y="0" type="line"/>
      <point x="112" y="0" type="line"/>
      <point x="992" y="1211" type="line"/>
      <point x="268" y="1211" type="line"/>
      <point x="314" y="1413" type="line"/>
      <point x="1308" y="1413" type="line"/>
      <point x="1284" y="1300" type="line"/>
    </contour>
  </outline>
</glyph>
<glyph name="eight" format="2">
  <advance width="1200"/>
  <unicode hex="0038"/>
  <outline>
    <contour>
      <point x="492" y="-20" type="qcurve" smooth="yes"/>
      <point x="375" y="-20"/>
      <point x="179" y="54"/>
      <point x="62" y="203"/>
      <point x="62" y="317" type="qcurve" smooth="yes"/>
      <point x="62" y="395"/>
      <point x="117" y="554"/>
      <point x="177" y="625" type="qcurve" smooth="yes"/>
      <point x="254" y="715"/>
      <point x="374" y="774" type="qcurve"/>
      <point x="286" y="858"/>
      <point x="286" y="984" type="qcurve" smooth="yes"/>
      <point x="286" y="1079"/>
      <point x="364" y="1239"/>
      <point x="497" y="1357"/>
      <point x="583" y="1392" type="qcurve" smooth="yes"/>
      <point x="690" y="1434"/>
      <point x="804" y="1434" type="qcurve" smooth="yes"/>
      <point x="904" y="1434"/>
      <point x="1070" y="1364"/>
      <point x="1170" y="1227"/>
      <point x="1170" y="1127" type="qcurve" smooth="yes"/>
      <point x="1170" y="1075"/>
      <point x="1132" y="944"/>
      <point x="1086" y="880" type="qcurve" smooth="yes"/>
      <point x="1032" y="806"/>
      <point x="948" y="753" type="qcurve"/>
      <point x="1017" y="713"/>
      <point x="1094" y="580"/>
      <point x="1094" y="489" type="qcurve" smooth="yes"/>
      <point x="1094" y="436"/>
      <point x="1080" y="383" type="qcurve"/>
      <point x="1048" y="247"/>
      <point x="871" y="68"/>
      <point x="625" y="-20"/>
    </contour>
    <contour>
      <point x="672" y="843" type="qcurve" smooth="yes"/>
      <point x="769" y="843"/>
      <point x="925" y="957"/>
      <point x="952" y="1055" type="qcurve"/>
      <point x="956" y="1075"/>
      <point x="956" y="1099" type="qcurve" smooth="yes"/>
      <point x="956" y="1166"/>
      <point x="859" y="1232"/>
      <point x="784" y="1232" type="qcurve" smooth="yes"/>
      <point x="693" y="1232"/>
      <point x="531" y="1123"/>
      <point x="506" y="1028" type="qcurve" smooth="yes"/>
      <point x="500" y="1003"/>
      <point x="500" y="981" type="qcurve" smooth="yes"/>
      <point x="500" y="918"/>
      <point x="588" y="843"/>
    </contour>
    <contour>
      <point x="512" y="177" type="qcurve" smooth="yes"/>
      <point x="630" y="177"/>
      <point x="838" y="309"/>
      <point x="870" y="439" type="qcurve"/>
      <point x="878" y="466"/>
      <point x="878" y="493" type="qcurve" smooth="yes"/>
      <point x="878" y="576"/>
      <point x="747" y="658"/>
      <point x="648" y="658" type="qcurve" smooth="yes"/>
      <point x="521" y="658"/>
      <point x="319" y="524"/>
      <point x="288" y="399" type="qcurve"/>
      <point x="282" y="371"/>
      <point x="282" y="347" type="qcurve" smooth="yes"/>
      <point x="282" y="290"/>
      <point x="343" y="214"/>
      <point x="447" y="177"/>
    </contour>
  </outline>
</glyph>
<glyph name="semicolon" format="2">
  <advance width="659"/>
  <unicode hex="003B"/>
  <outline>
    <contour>
      <point x="537" y="712" type="line"/>
      <point x="293" y="712" type="line"/>
      <point x="349" y="954" type="line"/>
      <point x="593" y="954" type="line"/>
    </contour>
    <contour>
      <point x="153" y="-225" type="line"/>
      <point x="10" y="-225" type="line"/>
      <point x="224" y="264" type="line"/>
      <point x="481" y="264" type="line"/>
    </contour>
  </outline>
</glyph>
<glyph name="less" format="2">
  <advance width="1232"/>
  <unicode hex="003C"/>
  <outline>
    <contour>
      <point x="1023" y="157" type="line"/>
      <point x="65" y="674" type="line"/>
      <point x="1023" y="1190" type="line"/>
      <point x="1115" y="1031" type="line"/>
      <point x="415" y="674" type="line"/>
      <point x="1115" y="316" type="line"/>
    </contour>
  </outline>
</glyph>
<glyph name="equal" format="2">
  <advance width="1268"/>
  <unicode hex="003D"/>
  <outline>
    <contour>
      <point x="1038" y="759" type="line"/>
      <point x="230" y="759" type="line"/>
      <point x="230" y="944" type="line"/>
      <point x="1038" y="944" type="line"/>
    </contour>
    <contour>
      <point x="1038" y="400" type="line"/>
      <point x="230" y="400" type="line"/>
      <point x="230" y="585" type="line"/>
      <point x="1038" y="585" type="line"/>
    </contour>
  </outline>
</glyph>
<glyph name="greater" format="2">
  <advance width="1232"/>
  <unicode hex="003E"/>
  <outline>
    <contour>
      <point x="209" y="157" type="line"/>
      <point x="118" y="316" type="line"/>
      <point x="818" y="674" type="line"/>
      <point x="118" y="1031" type="line"/>
      <point x="209" y="1190" type="line"/>
      <point x="1167" y="674" type="line"/>
    </contour>
  </outline>
</glyph>
<glyph name="at" format="2">
  <advance width="2024"/>
  <unicode hex="0040"/>
  <outline>
    <contour>
      <point x="820" y="-348" type="qcurve" smooth="yes"/>
      <point x="617" y="-348"/>
      <point x="285" y="-196"/>
      <point x="186" y="-39" type="qcurve" smooth="yes"/>
      <point x="93" y="111"/>
      <point x="93" y="314" type="qcurve" smooth="yes"/>
      <point x="93" y="478"/>
      <point x="215" y="834"/>
      <point x="338" y="992" type="qcurve" smooth="yes"/>
      <point x="439" y="1122"/>
      <point x="711" y="1320"/>
      <point x="1039" y="1432"/>
      <point x="1224" y="1432" type="qcurve" smooth="yes"/>
      <point x="1402" y="1432"/>
      <point x="1673" y="1327"/>
      <point x="1856" y="1141"/>
      <point x="1949" y="892"/>
      <point x="1949" y="748" type="qcurve" smooth="yes"/>
      <point x="1949" y="620"/>
      <point x="1876" y="356"/>
      <point x="1805" y="237" type="qcurve" smooth="yes"/>
      <point x="1724" y="100"/>
      <point x="1483" y="-69"/>
      <point x="1336" y="-69" type="qcurve" smooth="yes"/>
      <point x="1218" y="-69"/>
      <point x="1103" y="36"/>
      <point x="1103" y="119" type="qcurve" smooth="yes"/>
      <point x="1103" y="147"/>
      <point x="1111" y="182" type="qcurve"/>
      <point x="1032" y="113"/>
      <point x="866" y="50"/>
      <point x="788" y="50" type="qcurve" smooth="yes"/>
      <point x="658" y="50"/>
      <point x="526" y="207"/>
      <point x="526" y="334" type="qcurve" smooth="yes"/>
      <point x="526" y="416"/>
      <point x="590" y="622"/>
      <point x="662" y="735" type="qcurve" smooth="yes"/>
      <point x="750" y="872"/>
      <point x="1004" y="1054"/>
      <point x="1144" y="1054" type="qcurve" smooth="yes"/>
      <point x="1245" y="1054"/>
      <point x="1364" y="961"/>
      <point x="1379" y="892" type="qcurve"/>
      <point x="1428" y="1005" type="line"/>
      <point x="1610" y="995" type="line"/>
      <point x="1574" y="909"/>
      <point x="1496" y="745" type="qcurve"/>
      <point x="1318" y="382"/>
      <point x="1280" y="218" type="qcurve" smooth="yes"/>
      <point x="1273" y="189"/>
      <point x="1273" y="166" type="qcurve" smooth="yes"/>
      <point x="1273" y="137"/>
      <point x="1307" y="116"/>
      <point x="1348" y="116" type="qcurve" smooth="yes"/>
      <point x="1453" y="116"/>
      <point x="1537" y="184" type="qcurve"/>
      <point x="1656" y="286"/>
      <point x="1776" y="604"/>
      <point x="1776" y="741" type="qcurve" smooth="yes"/>
      <point x="1776" y="883"/>
      <point x="1652" y="1120"/>
      <point x="1518" y="1193" type="qcurve"/>
      <point x="1390" y="1260"/>
      <point x="1209" y="1260" type="qcurve" smooth="yes"/>
      <point x="1036" y="1260"/>
      <point x="732" y="1141"/>
      <point x="490" y="932"/>
      <point x="324" y="659"/>
      <point x="287" y="503" type="qcurve" smooth="yes"/>
      <point x="266" y="412"/>
      <point x="266" y="332" type="qcurve" smooth="yes"/>
      <point x="266" y="171"/>
      <point x="415" y="-51"/>
      <point x="674" y="-166"/>
      <point x="838" y="-166" type="qcurve" smooth="yes"/>
      <point x="904" y="-166"/>
      <point x="1027" y="-145"/>
      <point x="1096" y="-124" type="qcurve"/>
      <point x="1134" y="-299" type="line"/>
      <point x="984" y="-348"/>
    </contour>
    <contour>
      <point x="821" y="230" type="qcurve" smooth="yes"/>
      <point x="904" y="230"/>
      <point x="1053" y="314"/>
      <point x="1173" y="451"/>
      <point x="1256" y="612"/>
      <point x="1274" y="691" type="qcurve" smooth="yes"/>
      <point x="1283" y="730"/>
      <point x="1283" y="761" type="qcurve" smooth="yes"/>
      <point x="1283" y="873"/>
      <point x="1156" y="873" type="qcurve" smooth="yes"/>
      <point x="1071" y="873"/>
      <point x="922" y="789"/>
      <point x="802" y="654"/>
      <point x="719" y="495"/>
      <point x="700" y="417" type="qcurve" smooth="yes"/>
      <point x="691" y="380"/>
      <point x="691" y="348" type="qcurve" smooth="yes"/>
      <point x="691" y="230"/>
    </contour>
  </outline>
</glyph>
<glyph name="C" format="2">
  <advance width="1431"/>
  <unicode hex="0043"/>
  <outline>
    <contour>
      <point x="658" y="-20" type="qcurve" smooth="yes"/>
      <point x="476" y="-20"/>
      <point x="239" y="114"/>
      <point x="123" y="351"/>
      <point x="123" y="504" type="qcurve" smooth="yes"/>
      <point x="123" y="650"/>
      <point x="217" y="955"/>
      <point x="304" y="1084" type="qcurve" smooth="yes"/>
      <point x="413" y="1245"/>
      <point x="751" y="1436"/>
      <point x="967" y="1436" type="qcurve" smooth="yes"/>
      <point x="1179" y="1436"/>
      <point x="1459" y="1228"/>
      <point x="1489" y="1030" type="qcurve"/>
      <point x="1269" y="965" type="line"/>
      <point x="1260" y="1105"/>
      <point x="1085" y="1239"/>
      <point x="942" y="1239" type="qcurve" smooth="yes"/>
      <point x="718" y="1239"/>
      <point x="562" y="1078" type="qcurve" smooth="yes"/>
      <point x="420" y="931"/>
      <point x="365" y="697" type="qcurve" smooth="yes"/>
      <point x="343" y="601"/>
      <point x="343" y="522" type="qcurve" smooth="yes"/>
      <point x="343" y="368"/>
      <point x="508" y="191"/>
      <point x="681" y="191" type="qcurve" smooth="yes"/>
      <point x="836" y="191"/>
      <point x="1069" y="334"/>
      <point x="1154" y="473" type="qcurve"/>
      <point x="1342" y="369" type="line"/>
      <point x="1210" y="170"/>
      <point x="854" y="-20"/>
    </contour>
  </outline>
</glyph>
<glyph name="D" format="2">
  <advance width="1410"/>
  <unicode hex="0044"/>
  <outline>
    <contour>
      <point x="476" y="0" type="qcurve" smooth="yes"/>
      <point x="78" y="0" type="line"/>
      <point x="403" y="1413" type="line"/>
      <point x="792" y="1413" type="line" smooth="yes"/>
      <point x="995" y="1413"/>
      <point x="1258" y="1290"/>
      <point x="1385" y="1063"/>
      <point x="1385" y="908" type="qcurve" smooth="yes"/>
      <point x="1385" y="804"/>
      <point x="1356" y="676" type="qcurve"/>
      <point x="1277" y="347"/>
      <point x="822" y="0"/>
    </contour>
    <contour>
      <point x="486" y="206" type="line" smooth="yes"/>
      <point x="737" y="206"/>
      <point x="1081" y="458"/>
      <point x="1143" y="727" type="qcurve" smooth="yes"/>
      <point x="1166" y="828"/>
      <point x="1166" y="904" type="qcurve" smooth="yes"/>
      <point x="1166" y="1065"/>
      <point x="961" y="1208"/>
      <point x="753" y="1208" type="qcurve" smooth="yes"/>
      <point x="581" y="1208" type="line"/>
      <point x="349" y="206" type="line"/>
    </contour>
  </outline>
</glyph>
<glyph name="F" format="2">
  <advance width="1225"/>
  <unicode hex="0046"/>
  <outline>
    <contour>
      <point x="302" y="0" type="line"/>
      <point x="78" y="0" type="line"/>
      <point x="403" y="1413" type="line"/>
      <point x="1375" y="1413" type="line"/>
      <point x="1329" y="1210" type="line"/>
      <point x="581" y="1210" type="line"/>
      <point x="487" y="808" type="line"/>
      <point x="1147" y="808" type="line"/>
      <point x="1100" y="606" type="line"/>
      <point x="441" y="606" type="line"/>
    </contour>
  </outline>
</glyph>
<glyph name="H" format="2">
  <advance width="1482"/>
  <unicode hex="0048"/>
  <outline>
    <contour>
      <point x="1175" y="0" type="line"/>
      <point x="950" y="0" type="line"/>
      <point x="1089" y="606" type="line"/>
      <point x="441" y="606" type="line"/>
      <point x="302" y="0" type="line"/>
      <point x="78" y="0" type="line"/>
      <point x="403" y="1413" type="line"/>
      <point x="628" y="1413" type="line"/>
      <point x="487" y="808" type="line"/>
      <point x="1136" y="808" type="line"/>
      <point x="1276" y="1413" type="line"/>
      <point x="1500" y="1413" type="line"/>
    </contour>
  </outline>
</glyph>
<glyph name="J" format="2">
  <advance width="1135"/>
  <unicode hex="004A"/>
  <outline>
    <contour>
      <point x="399" y="-20" type="qcurve" smooth="yes"/>
      <point x="274" y="-20"/>
      <point x="108" y="78"/>
      <point x="24" y="246"/>
      <point x="24" y="350" type="qcurve" smooth="yes"/>
      <point x="24" y="395"/>
      <point x="31" y="436" type="qcurve"/>
      <point x="251" y="443" type="line"/>
      <point x="245" y="406"/>
      <point x="245" y="372" type="qcurve" smooth="yes"/>
      <point x="245" y="289"/>
      <point x="327" y="185"/>
      <point x="422" y="185" type="qcurve" smooth="yes"/>
      <point x="564" y="185"/>
      <point x="712" y="350"/>
      <point x="748" y="508" type="qcurve" smooth="yes"/>
      <point x="910" y="1210" type="line"/>
      <point x="377" y="1210" type="line"/>
      <point x="424" y="1413" type="line"/>
      <point x="1181" y="1413" type="line"/>
      <point x="969" y="498" type="line" smooth="yes"/>
      <point x="913" y="255"/>
      <point x="635" y="-20"/>
    </contour>
  </outline>
</glyph>
<glyph name="N" format="2">
  <advance width="1445"/>
  <unicode hex="004E"/>
  <outline>
    <contour>
      <point x="1138" y="0" type="line"/>
      <point x="894" y="0" type="line"/>
      <point x="543" y="1066" type="line"/>
      <point x="295" y="0" type="line"/>
      <point x="78" y="0" type="line"/>
      <point x="403" y="1413" type="line"/>
      <point x="644" y="1413" type="line"/>
      <point x="998" y="349" type="line"/>
      <point x="1247" y="1413" type="line"/>
      <point x="1463" y="1413" type="line"/>
    </contour>
  </outline>
</glyph>
<glyph name="Q" format="2">
  <advance width="1567"/>
  <unicode hex="0051"/>
  <outline>
    <contour>
      <point x="1206" y="-112" type="line"/>
      <point x="1053" y="84" type="line"/>
      <point x="883" y="-20"/>
      <point x="656" y="-20" type="qcurve" smooth="yes"/>
      <point x="473" y="-20"/>
      <point x="237" y="116"/>
      <point x="122" y="353"/>
      <point x="122" y="505" type="qcurve" smooth="yes"/>
      <point x="122" y="648"/>
      <point x="215" y="952"/>
      <point x="303" y="1083" type="qcurve" smooth="yes"/>
      <point x="412" y="1243"/>
      <point x="750" y="1434"/>
      <point x="966" y="1434" type="qcurve" smooth="yes"/>
      <point x="1149" y="1434"/>
      <point x="1386" y="1298"/>
      <point x="1501" y="1060"/>
      <point x="1501" y="907" type="qcurve" smooth="yes"/>
      <point x="1501" y="735"/>
      <point x="1360" y="355"/>
      <point x="1221" y="210" type="qcurve"/>
      <point x="1377" y="24" type="line"/>
    </contour>
    <contour>
      <point x="679" y="189" type="qcurve" smooth="yes"/>
      <point x="805" y="189"/>
      <point x="925" y="247" type="qcurve"/>
      <point x="775" y="428" type="line"/>
      <point x="944" y="561" type="line"/>
      <point x="1097" y="387" type="line"/>
      <point x="1212" y="524"/>
      <point x="1259" y="727" type="qcurve" smooth="yes"/>
      <point x="1280" y="819"/>
      <point x="1280" y="893" type="qcurve" smooth="yes"/>
      <point x="1280" y="1044"/>
      <point x="1115" y="1224"/>
      <point x="943" y="1224" type="qcurve" smooth="yes"/>
      <point x="786" y="1224"/>
      <point x="551" y="1079"/>
      <point x="398" y="837"/>
      <point x="364" y="687" type="qcurve"/>
      <point x="343" y="600"/>
      <point x="343" y="519" type="qcurve" smooth="yes"/>
      <point x="343" y="368"/>
      <point x="506" y="189"/>
    </contour>
  </outline>
</glyph>
<glyph name="U" format="2">
  <advance width="1373"/>
  <unicode hex="0055"/>
  <outline>
    <contour>
      <point x="579" y="-20" type="qcurve" smooth="yes"/>
      <point x="361" y="-20"/>
      <point x="150" y="186"/>
      <point x="150" y="366" type="qcurve" smooth="yes"/>
      <point x="150" y="450"/>
      <point x="173" y="550" type="qcurve" smooth="yes"/>
      <point x="372" y="1413" type="line"/>
      <point x="596" y="1413" type="line"/>
      <point x="400" y="565" type="line" smooth="yes"/>
      <point x="376" y="463"/>
      <point x="376" y="396" type="qcurve" smooth="yes"/>
      <point x="376" y="291"/>
      <point x="489" y="196"/>
      <point x="604" y="196" type="qcurve" smooth="yes"/>
      <point x="776" y="196"/>
      <point x="964" y="396"/>
      <point x="1007" y="584" type="qcurve" smooth="yes"/>
      <point x="1199" y="1413" type="line"/>
      <point x="1423" y="1413" type="line"/>
      <point x="1223" y="542" type="line" smooth="yes"/>
      <point x="1162" y="277"/>
      <point x="842" y="-20"/>
    </contour>
  </outline>
</glyph>
<glyph name="Y" format="2">
  <advance width="1378"/>
  <unicode hex="0059"/>
  <outline>
    <contour>
      <point x="687" y="0" type="line"/>
      <point x="464" y="0" type="line"/>
      <point x="593" y="551" type="line"/>
      <point x="228" y="1413" type="line"/>
      <point x="487" y="1413" type="line"/>
      <point x="744" y="757" type="line"/>
      <point x="1309" y="1413" type="line"/>
      <point x="1576" y="1413" type="line"/>
      <point x="816" y="551" type="line"/>
    </contour>
  </outline>
</glyph>
<glyph name="Z" format="2">
  <advance width="1275"/>
  <unicode hex="005A"/>
  <outline>
    <contour>
      <point x="1078" y="0" type="line"/>
      <point x="-45" y="0" type="line"/>
      <point x="-12" y="160" type="line"/>
      <point x="1050" y="1210" type="line"/>
      <point x="279" y="1210" type="line"/>
      <point x="326" y="1413" type="line"/>
      <point x="1403" y="1413" type="line"/>
      <point x="1367" y="1246" type="line"/>
      <point x="311" y="203" type="line"/>
      <point x="1125" y="203" type="line"/>
    </contour>
  </outline>
</glyph>
<glyph name="asciicircum" format="2">
  <advance width="982"/>
  <unicode hex="005E"/>
  <outline>
    <contour>
      <point x="969" y="816" type="line"/>
      <point x="759" y="816" type="line"/>
      <point x="640" y="1127" type="line"/>
      <point x="375" y="816" type="line"/>
      <point x="154" y="816" type="line"/>
      <point x="711" y="1476" type="line"/>
    </contour>
  </outline>
</glyph>
<glyph name="a" format="2">
  <advance width="1160"/>
  <unicode hex="0061"/>
  <outline>
    <contour>
      <point x="390" y="-20" type="qcurve" smooth="yes"/>
      <point x="278" y="-20"/>
      <point x="131" y="77"/>
      <point x="58" y="245"/>
      <point x="58" y="353" type="qcurve" smooth="yes"/>
      <point x="58" y="455"/>
      <point x="122" y="674"/>
      <point x="184" y="771" type="qcurve" smooth="yes"/>
      <point x="255" y="882"/>
      <point x="468" y="1020"/>
      <point x="601" y="1020" type="qcurve" smooth="yes"/>
      <point x="692" y="1020"/>
      <point x="834" y="949"/>
      <point x="871" y="881" type="qcurve"/>
      <point x="902" y="999" type="line"/>
      <point x="1119" y="999" type="line"/>
      <point x="890" y="0" type="line"/>
      <point x="688" y="0" type="line"/>
      <point x="704" y="107" type="line"/>
      <point x="577" y="-20"/>
    </contour>
    <contour>
      <point x="462" y="177" type="qcurve" smooth="yes"/>
      <point x="596" y="177"/>
      <point x="775" y="367"/>
      <point x="809" y="520" type="qcurve" smooth="yes"/>
      <point x="823" y="581"/>
      <point x="823" y="631" type="qcurve" smooth="yes"/>
      <point x="823" y="717"/>
      <point x="736" y="825"/>
      <point x="637" y="825" type="qcurve" smooth="yes"/>
      <point x="546" y="825"/>
      <point x="405" y="732"/>
      <point x="311" y="577"/>
      <point x="289" y="480" type="qcurve" smooth="yes"/>
      <point x="275" y="421"/>
      <point x="275" y="371" type="qcurve" smooth="yes"/>
      <point x="275" y="285"/>
      <point x="362" y="177"/>
    </contour>
  </outline>
</glyph>
<glyph name="b" format="2">
  <advance width="1162"/>
  <unicode hex="0062"/>
  <outline>
    <contour>
      <point x="561" y="-20" type="qcurve" smooth="yes"/>
      <point x="470" y="-20"/>
      <point x="328" y="51"/>
      <point x="291" y="119" type="qcurve"/>
      <point x="260" y="0" type="line"/>
      <point x="40" y="0" type="line"/>
      <point x="366" y="1412" type="line"/>
      <point x="586" y="1412" type="line"/>
      <point x="462" y="895" type="line"/>
      <point x="588" y="1020"/>
      <point x="772" y="1020" type="qcurve" smooth="yes"/>
      <point x="883" y="1020"/>
      <point x="1030" y="924"/>
      <point x="1104" y="755"/>
      <point x="1104" y="647" type="qcurve" smooth="yes"/>
      <point x="1104" y="545"/>
      <point x="1040" y="326"/>
      <point x="978" y="229" type="qcurve" smooth="yes"/>
      <point x="907" y="118"/>
      <point x="695" y="-20"/>
    </contour>
    <contour>
      <point x="525" y="176" type="qcurve" smooth="yes"/>
      <point x="618" y="176"/>
      <point x="760" y="268"/>
      <point x="854" y="423"/>
      <point x="876" y="520" type="qcurve"/>
      <point x="889" y="573"/>
      <point x="889" y="627" type="qcurve" smooth="yes"/>
      <point x="889" y="685"/>
      <point x="850" y="775"/>
      <point x="767" y="827"/>
      <point x="701" y="827" type="qcurve" smooth="yes"/>
      <point x="610" y="827"/>
      <point x="469" y="733"/>
      <point x="374" y="577"/>
      <point x="352" y="480" type="qcurve" smooth="yes"/>
      <point x="338" y="421"/>
      <point x="338" y="371" type="qcurve" smooth="yes"/>
      <point x="338" y="285"/>
      <point x="426" y="176"/>
    </contour>
  </outline>
</glyph>
<glyph name="c" format="2">
  <advance width="996"/>
  <unicode hex="0063"/>
  <outline>
    <contour>
      <point x="430" y="-20" type="qcurve" smooth="yes"/>
      <point x="302" y="-20"/>
      <point x="136" y="82"/>
      <point x="55" y="256"/>
      <point x="55" y="365" type="qcurve" smooth="yes"/>
      <point x="55" y="526"/>
      <point x="217" y="848"/>
      <point x="377" y="947" type="qcurve"/>
      <point x="495" y="1016"/>
      <point x="642" y="1016" type="qcurve" smooth="yes"/>
      <point x="744" y="1016"/>
      <point x="894" y="941"/>
      <point x="987" y="810"/>
      <point x="1004" y="725" type="qcurve"/>
      <point x="790" y="663" type="line"/>
      <point x="786" y="742"/>
      <point x="694" y="818"/>
      <point x="622" y="818" type="qcurve" smooth="yes"/>
      <point x="530" y="818"/>
      <point x="392" y="722"/>
      <point x="303" y="568"/>
      <point x="282" y="478" type="qcurve" smooth="yes"/>
      <point x="268" y="420"/>
      <point x="268" y="369" type="qcurve" smooth="yes"/>
      <point x="268" y="313"/>
      <point x="304" y="226"/>
      <point x="383" y="177"/>
      <point x="448" y="177" type="qcurve" smooth="yes"/>
      <point x="535" y="177"/>
      <point x="676" y="275"/>
      <point x="714" y="351" type="qcurve"/>
      <point x="890" y="258" type="line"/>
      <point x="806" y="117"/>
      <point x="565" y="-20"/>
    </contour>
  </outline>
</glyph>
<glyph name="j" format="2">
  <advance width="528"/>
  <unicode hex="006A"/>
  <outline>
    <contour>
      <point x="541" y="1185" type="line"/>
      <point x="311" y="1185" type="line"/>
      <point x="365" y="1415" type="line"/>
      <point x="595" y="1415" type="line"/>
    </contour>
    <contour>
      <point x="-110" y="-438" type="qcurve" smooth="yes"/>
      <point x="-196" y="-438"/>
      <point x="-277" y="-402" type="qcurve"/>
      <point x="-196" y="-229" type="line"/>
      <point x="-153" y="-247"/>
      <point x="-110" y="-247" type="qcurve" smooth="yes"/>
      <point x="-62" y="-247"/>
      <point x="-1" y="-181"/>
      <point x="11" y="-131" type="qcurve" smooth="yes"/>
      <point x="271" y="999" type="line"/>
      <point x="488" y="999" type="line"/>
      <point x="228" y="-130" type="line" smooth="yes"/>
      <point x="207" y="-220"/>
      <point x="119" y="-358"/>
      <point x="-16" y="-438"/>
    </contour>
  </outline>
</glyph>
<glyph name="k" format="2">
  <advance width="1098"/>
  <unicode hex="006B"/>
  <outline>
    <contour>
      <point x="975" y="0" type="line"/>
      <point x="727" y="0" type="line"/>
      <point x="543" y="484" type="line"/>
      <point x="325" y="293" type="line"/>
      <point x="255" y="0" type="line"/>
      <point x="40" y="0" type="line"/>
      <point x="366" y="1413" type="line"/>
      <point x="581" y="1413" type="line"/>
      <point x="377" y="545" type="line"/>
      <point x="881" y="999" type="line"/>
      <point x="1161" y="999" type="line"/>
      <point x="713" y="618" type="line"/>
    </contour>
  </outline>
</glyph>
<glyph name="l" format="2">
  <advance width="558"/>
  <unicode hex="006C"/>
  <outline>
    <contour>
      <point x="240" y="-20" type="qcurve" smooth="yes"/>
      <point x="70" y="-20"/>
      <point x="70" y="125" type="qcurve" smooth="yes"/>
      <point x="70" y="160"/>
      <point x="81" y="209" type="qcurve" smooth="yes"/>
      <point x="359" y="1413" type="line"/>
      <point x="574" y="1413" type="line"/>
      <point x="300" y="229" type="line" smooth="yes"/>
      <point x="297" y="216"/>
      <point x="297" y="206" type="qcurve" smooth="yes"/>
      <point x="297" y="169"/>
      <point x="349" y="169" type="qcurve" smooth="yes"/>
      <point x="375" y="169"/>
      <point x="430" y="180" type="qcurve"/>
      <point x="401" y="-2" type="line"/>
      <point x="316" y="-20"/>
    </contour>
  </outline>
</glyph>
<glyph name="m" format="2">
  <advance width="1730"/>
  <unicode hex="006D"/>
  <outline>
    <contour>
      <point x="1489" y="0" type="line"/>
      <point x="1272" y="0" type="line"/>
      <point x="1406" y="586" type="line" smooth="yes"/>
      <point x="1421" y="649"/>
      <point x="1421" y="694" type="qcurve" smooth="yes"/>
      <point x="1421" y="756"/>
      <point x="1361" y="822"/>
      <point x="1295" y="822" type="qcurve" smooth="yes"/>
      <point x="1221" y="822"/>
      <point x="1098" y="744"/>
      <point x="1013" y="619"/>
      <point x="996" y="546" type="qcurve" smooth="yes"/>
      <point x="871" y="0" type="line"/>
      <point x="653" y="0" type="line"/>
      <point x="790" y="590" type="line"/>
      <point x="804" y="657"/>
      <point x="804" y="695" type="qcurve" smooth="yes"/>
      <point x="804" y="758"/>
      <point x="744" y="822"/>
      <point x="679" y="822" type="qcurve" smooth="yes"/>
      <point x="604" y="822"/>
      <point x="481" y="743"/>
      <point x="396" y="618"/>
      <point x="379" y="546" type="qcurve" smooth="yes"/>
      <point x="254" y="0" type="line"/>
      <point x="38" y="0" type="line"/>
      <point x="268" y="999" type="line"/>
      <point x="484" y="999" type="line"/>
      <point x="455" y="882" type="line"/>
      <point x="516" y="954"/>
      <point x="661" y="1018"/>
      <point x="731" y="1018" type="qcurve" smooth="yes"/>
      <point x="838" y="1018"/>
      <point x="966" y="926"/>
      <point x="990" y="849" type="qcurve"/>
      <point x="1069" y="937"/>
      <point x="1252" y="1016"/>
      <point x="1348" y="1016" type="qcurve" smooth="yes"/>
      <point x="1497" y="1016"/>
      <point x="1641" y="851"/>
      <point x="1641" y="719" type="qcurve" smooth="yes"/>
      <point x="1641" y="658"/>
      <point x="1626" y="593" type="qcurve" smooth="yes"/>
    </contour>
  </outline>
</glyph>
<glyph name="n" format="2">
  <advance width="1154"/>
  <unicode hex="006E"/>
  <outline>
    <contour>
      <point x="913" y="0" type="line"/>
      <point x="696" y="0" type="line"/>
      <point x="830" y="586" type="line" smooth="yes"/>
      <point x="845" y="651"/>
      <point x="845" y="693" type="qcurve" smooth="yes"/>
      <point x="845" y="815"/>
      <point x="722" y="815" type="qcurve" smooth="yes"/>
      <point x="642" y="815"/>
      <point x="498" y="734"/>
      <point x="397" y="611"/>
      <point x="380" y="544" type="qcurve"/>
      <point x="255" y="0" type="line"/>
      <point x="38" y="0" type="line"/>
      <point x="268" y="999" type="line"/>
      <point x="485" y="999" type="line"/>
      <point x="454" y="878" type="line"/>
      <point x="527" y="951"/>
      <point x="694" y="1016"/>
      <point x="774" y="1016" type="qcurve" smooth="yes"/>
      <point x="922" y="1016"/>
      <point x="1065" y="853"/>
      <point x="1065" y="723" type="qcurve" smooth="yes"/>
      <point x="1065" y="663"/>
      <point x="1049" y="593" type="qcurve" smooth="yes"/>
    </contour>
  </outline>
</glyph>
<glyph name="r" format="2">
  <advance width="811"/>
  <unicode hex="0072"/>
  <outline>
    <contour>
      <point x="247" y="0" type="line"/>
      <point x="38" y="0" type="line"/>
      <point x="268" y="999" type="line"/>
      <point x="474" y="999" type="line"/>
      <point x="440" y="833" type="line"/>
      <point x="490" y="926"/>
      <point x="648" y="1014"/>
      <point x="724" y="1014" type="qcurve" smooth="yes"/>
      <point x="774" y="1014"/>
      <point x="879" y="981"/>
      <point x="915" y="949" type="qcurve"/>
      <point x="793" y="784" type="line"/>
      <point x="741" y="819"/>
      <point x="675" y="819" type="qcurve" smooth="yes"/>
      <point x="563" y="819"/>
      <point x="390" y="615"/>
      <point x="349" y="442" type="qcurve"/>
    </contour>
  </outline>
</glyph>
<glyph name="v" format="2">
  <advance width="986"/>
  <unicode hex="0076"/>
  <outline>
    <contour>
      <point x="470" y="0" type="line"/>
      <point x="290" y="0" type="line"/>
      <point x="123" y="999" type="line"/>
      <point x="354" y="999" type="line"/>
      <point x="438" y="278" type="line"/>
      <point x="861" y="999" type="line"/>
      <point x="1096" y="999" type="line"/>
    </contour>
  </outline>
</glyph>
<glyph name="w" format="2">
  <advance width="1454"/>
  <unicode hex="0077"/>
  <outline>
    <contour>
      <point x="403" y="-3" type="line"/>
      <point x="207" y="-3" type="line"/>
      <point x="140" y="999" type="line"/>
      <point x="367" y="999" type="line"/>
      <point x="388" y="318" type="line"/>
      <point x="747" y="999" type="line"/>
      <point x="935" y="999" type="line"/>
      <point x="976" y="320" type="line"/>
      <point x="1318" y="999" type="line"/>
      <point x="1548" y="999" type="line"/>
      <point x="1018" y="0" type="line"/>
      <point x="821" y="0" type="line"/>
      <point x="778" y="704" type="line"/>
    </contour>
  </outline>
</glyph>
<glyph name="x" format="2">
  <advance width="998"/>
  <unicode hex="0078"/>
  <outline>
    <contour>
      <point x="857" y="0" type="line"/>
      <point x="602" y="0" type="line"/>
      <point x="469" y="349" type="line"/>
      <point x="171" y="0" type="line"/>
      <point x="-96" y="0" type="line"/>
      <point x="363" y="504" type="line"/>
      <point x="141" y="999" type="line"/>
      <point x="396" y="999" type="line"/>
      <point x="530" y="657" type="line"/>
      <point x="827" y="999" type="line"/>
      <point x="1094" y="999" type="line"/>
      <point x="635" y="504" type="line"/>
    </contour>
  </outline>
</glyph>
<glyph name="y" format="2">
  <advance width="1017"/>
  <unicode hex="0079"/>
  <outline>
    <contour>
      <point x="236" y="-430" type="line"/>
      <point x="0" y="-430" type="line"/>
      <point x="287" y="20" type="line"/>
      <point x="125" y="999" type="line"/>
      <point x="357" y="999" type="line"/>
      <point x="451" y="267" type="line"/>
      <point x="887" y="999" type="line"/>
      <point x="1126" y="999" type="line"/>
    </contour>
  </outline>
</glyph>
<glyph name="z" format="2">
  <advance width="983"/>
  <unicode hex="007A"/>
  <outline>
    <contour>
      <point x="795" y="0" type="line"/>
      <point x="-56" y="0" type="line"/>
      <point x="-25" y="146" type="line"/>
      <point x="707" y="820" type="line"/>
      <point x="161" y="820" type="line"/>
      <point x="202" y="999" type="line"/>
      <point x="1024" y="999" type="line"/>
      <point x="991" y="841" type="line"/>
      <point x="280" y="181" type="line"/>
      <point x="836" y="181" type="line"/>
    </contour>
  </outline>
</glyph>
<glyph name="bar" format="2">
  <advance width="624"/>
  <unicode hex="007C"/>
  <outline>
    <contour>
      <point x="158" y="-512" type="line"/>
      <point x="-1" y="-512" type="line"/>
      <point x="473" y="1534" type="line"/>
      <point x="631" y="1534" type="line"/>
    </contour>
  </outline>
</glyph>
<glyph name="braceright" format="2">
  <advance width="614"/>
  <unicode hex="007D"/>
  <outline>
    <contour>
      <point x="64" y="-144" type="qcurve" smooth="yes"/>
      <point x="-8" y="-144" type="line" smooth="yes"/>
      <point x="-29" y="-144"/>
      <point x="-51" y="-142" type="qcurve"/>
      <point x="-81" y="-141" type="line"/>
      <point x="-62" y="-3" type="line"/>
      <point x="-31" y="-10"/>
      <point x="-6" y="-10" type="qcurve" smooth="yes"/>
      <point x="59" y="-10"/>
      <point x="137" y="72"/>
      <point x="151" y="135" type="qcurve" smooth="yes"/>
      <point x="233" y="496" type="line"/>
      <point x="256" y="601"/>
      <point x="426" y="669" type="qcurve"/>
      <point x="372" y="697"/>
      <point x="315" y="774"/>
      <point x="315" y="827" type="qcurve" smooth="yes"/>
      <point x="315" y="853"/>
      <point x="322" y="880" type="qcurve"/>
      <point x="440" y="1389"/>
      <point x="441" y="1401" type="qcurve"/>
      <point x="441" y="1415"/>
      <point x="415" y="1423"/>
      <point x="377" y="1423" type="qcurve" smooth="yes"/>
      <point x="340" y="1423"/>
      <point x="277" y="1410" type="qcurve"/>
      <point x="296" y="1552" type="line"/>
      <point x="334" y="1555"/>
      <point x="421" y="1555" type="qcurve" smooth="yes"/>
      <point x="522" y="1555"/>
      <point x="615" y="1466"/>
      <point x="615" y="1388" type="qcurve" smooth="yes"/>
      <point x="615" y="1351"/>
      <point x="604" y="1302" type="qcurve" smooth="yes"/>
      <point x="505" y="876" type="line"/>
      <point x="500" y="857"/>
      <point x="500" y="835" type="qcurve" smooth="yes"/>
      <point x="500" y="799"/>
      <point x="545" y="755"/>
      <point x="598" y="736" type="qcurve"/>
      <point x="577" y="590" type="line"/>
      <point x="509" y="568"/>
      <point x="422" y="514"/>
      <point x="412" y="474" type="qcurve"/>
      <point x="329" y="111" type="line"/>
      <point x="305" y="-1"/>
      <point x="260" y="-64" type="qcurve"/>
      <point x="217" y="-104"/>
      <point x="123" y="-144"/>
    </contour>
  </outline>
</glyph>
<glyph name="cent" format="2">
  <advance width="1125"/>
  <unicode hex="00A2"/>
  <outline>
    <contour>
      <point x="507" y="-205" type="line"/>
      <point x="347" y="-205" type="line"/>
      <point x="398" y="-17" type="line"/>
      <point x="258" y="6"/>
      <point x="117" y="208"/>
      <point x="117" y="356" type="qcurve" smooth="yes"/>
      <point x="117" y="509"/>
      <point x="240" y="793"/>
      <point x="467" y="989"/>
      <point x="624" y="1016" type="qcurve"/>
      <point x="673" y="1200" type="line"/>
      <point x="831" y="1200" type="line"/>
      <point x="782" y="1013" type="line"/>
      <point x="1008" y="978"/>
      <point x="1064" y="723" type="qcurve"/>
      <point x="859" y="665" type="line"/>
      <point x="856" y="752"/>
      <point x="772" y="840"/>
      <point x="684" y="840" type="qcurve" smooth="yes"/>
      <point x="592" y="840"/>
      <point x="449" y="738"/>
      <point x="354" y="575"/>
      <point x="332" y="478" type="qcurve" smooth="yes"/>
      <point x="318" y="416"/>
      <point x="318" y="359" type="qcurve" smooth="yes"/>
      <point x="318" y="267"/>
      <point x="405" y="156"/>
      <point x="501" y="156" type="qcurve" smooth="yes"/>
      <point x="597" y="156"/>
      <point x="737" y="260"/>
      <point x="782" y="349" type="qcurve"/>
      <point x="947" y="258" type="line"/>
      <point x="808" y="18"/>
      <point x="554" y="-21" type="qcurve"/>
    </contour>
  </outline>
</glyph>
<glyph name="currency" format="2">
  <advance width="1162"/>
  <unicode hex="00A4"/>
  <outline>
    <contour>
      <point x="872" y="141" type="line"/>
      <point x="790" y="243" type="line"/>
      <point x="659" y="164"/>
      <point x="522" y="164" type="qcurve" smooth="yes"/>
      <point x="451" y="164"/>
      <point x="320" y="209"/>
      <point x="267" y="254" type="qcurve"/>
      <point x="131" y="141" type="line"/>
      <point x="37" y="264" type="line"/>
      <point x="174" y="375" type="line"/>
      <point x="138" y="450"/>
      <point x="138" y="541" type="qcurve" smooth="yes"/>
      <point x="138" y="632"/>
      <point x="214" y="820"/>
      <point x="290" y="901" type="qcurve"/>
      <point x="209" y="995" type="line"/>
      <point x="351" y="1119" type="line"/>
      <point x="432" y="1017" type="line"/>
      <point x="563" y="1097"/>
      <point x="703" y="1097" type="qcurve" smooth="yes"/>
      <point x="847" y="1097"/>
      <point x="955" y="1008" type="qcurve"/>
      <point x="1089" y="1117" type="line"/>
      <point x="1184" y="999" type="line"/>
      <point x="1051" y="888" type="line"/>
      <point x="1087" y="813"/>
      <point x="1087" y="722" type="qcurve" smooth="yes"/>
      <point x="1087" y="631"/>
      <point x="1010" y="441"/>
      <point x="933" y="359" type="qcurve"/>
      <point x="1016" y="264" type="line"/>
    </contour>
    <contour>
      <point x="533" y="334" type="qcurve" smooth="yes"/>
      <point x="594" y="334"/>
      <point x="727" y="386"/>
      <point x="788" y="436" type="qcurve" smooth="yes"/>
      <point x="857" y="492"/>
      <point x="929" y="638"/>
      <point x="929" y="708" type="qcurve" smooth="yes"/>
      <point x="929" y="809"/>
      <point x="798" y="927"/>
      <point x="703" y="927" type="qcurve" smooth="yes"/>
      <point x="609" y="927"/>
      <point x="401" y="806"/>
      <point x="344" y="701" type="qcurve"/>
      <point x="306" y="626"/>
      <point x="306" y="552" type="qcurve" smooth="yes"/>
      <point x="306" y="484"/>
      <point x="369" y="386"/>
      <point x="472" y="334"/>
    </contour>
  </outline>
</glyph>
<glyph name="section" format="2">
  <advance width="1114"/>
  <unicode hex="00A7"/>
  <outline>
    <contour>
      <point x="457" y="-18" type="qcurve" smooth="yes"/>
      <point x="352" y="-18"/>
      <point x="183" y="49"/>
      <point x="85" y="185"/>
      <point x="85" y="282" type="qcurve"/>
      <point x="298" y="326" type="line"/>
      <point x="298" y="320" type="line" smooth="yes"/>
      <point x="298" y="232"/>
      <point x="390" y="158"/>
      <point x="484" y="158" type="qcurve" smooth="yes"/>
      <point x="579" y="158"/>
      <point x="720" y="232"/>
      <point x="736" y="307" type="qcurve" smooth="yes"/>
      <point x="739" y="319"/>
      <point x="739" y="329" type="qcurve" smooth="yes"/>
      <point x="739" y="364"/>
      <point x="686" y="406"/>
      <point x="605" y="432"/>
      <point x="536" y="447" type="qcurve"/>
      <point x="438" y="470"/>
      <point x="318" y="513"/>
      <point x="231" y="603"/>
      <point x="231" y="678" type="qcurve" smooth="yes"/>
      <point x="231" y="824"/>
      <point x="378" y="951" type="qcurve"/>
      <point x="327" y="1000"/>
      <point x="327" y="1082" type="qcurve" smooth="yes"/>
      <point x="327" y="1112"/>
      <point x="335" y="1149" type="qcurve" smooth="yes"/>
      <point x="356" y="1239"/>
      <point x="488" y="1368"/>
      <point x="670" y="1434"/>
      <point x="764" y="1434" type="qcurve" smooth="yes"/>
      <point x="853" y="1434"/>
      <point x="995" y="1378"/>
      <point x="1085" y="1278"/>
      <point x="1101" y="1216" type="qcurve"/>
      <point x="910" y="1143" type="line"/>
      <point x="901" y="1264"/>
      <point x="743" y="1264" type="qcurve" smooth="yes"/>
      <point x="683" y="1264"/>
      <point x="582" y="1221"/>
      <point x="515" y="1149"/>
      <point x="505" y="1105" type="qcurve" smooth="yes"/>
      <point x="503" y="1098"/>
      <point x="503" y="1086" type="qcurve" smooth="yes"/>
      <point x="503" y="1056"/>
      <point x="554" y="1017"/>
      <point x="628" y="994"/>
      <point x="697" y="979" type="qcurve" smooth="yes"/>
      <point x="796" y="958"/>
      <point x="922" y="914"/>
      <point x="1012" y="821"/>
      <point x="1012" y="741" type="qcurve" smooth="yes"/>
      <point x="1012" y="710"/>
      <point x="1003" y="668" type="qcurve"/>
      <point x="976" y="555"/>
      <point x="870" y="466" type="qcurve"/>
      <point x="919" y="417"/>
      <point x="919" y="337" type="qcurve" smooth="yes"/>
      <point x="919" y="304"/>
      <point x="910" y="266" type="qcurve" smooth="yes"/>
      <point x="888" y="169"/>
      <point x="747" y="40"/>
      <point x="558" y="-18"/>
    </contour>
    <contour>
      <point x="691" y="561" type="qcurve"/>
      <point x="801" y="599"/>
      <point x="828" y="706" type="qcurve" smooth="yes"/>
      <point x="831" y="720"/>
      <point x="831" y="730" type="qcurve" smooth="yes"/>
      <point x="831" y="798"/>
      <point x="731" y="827" type="qcurve" smooth="yes"/>
      <point x="695" y="838"/>
      <point x="610" y="856" type="qcurve" smooth="yes"/>
      <point x="555" y="868" type="line"/>
      <point x="497" y="845"/>
      <point x="426" y="761"/>
      <point x="415" y="714" type="qcurve" smooth="yes"/>
      <point x="413" y="707"/>
      <point x="413" y="694" type="qcurve" smooth="yes"/>
      <point x="413" y="630"/>
      <point x="514" y="603" type="qcurve"/>
      <point x="555" y="590"/>
    </contour>
  </outline>
</glyph>
<glyph name="copyright" format="2">
  <advance width="1785"/>
  <unicode hex="00A9"/>
  <outline>
    <contour>
      <point x="941" y="-50" type="qcurve" smooth="yes"/>
      <point x="794" y="-50"/>
      <point x="537" y="47"/>
      <point x="336" y="216"/>
      <point x="269" y="328" type="qcurve" smooth="yes"/>
      <point x="164" y="501"/>
      <point x="164" y="707" type="qcurve" smooth="yes"/>
      <point x="164" y="850"/>
      <point x="263" y="1099"/>
      <point x="437" y="1295"/>
      <point x="552" y="1361" type="qcurve" smooth="yes"/>
      <point x="730" y="1463"/>
      <point x="941" y="1463" type="qcurve" smooth="yes"/>
      <point x="1088" y="1463"/>
      <point x="1344" y="1366"/>
      <point x="1545" y="1197"/>
      <point x="1613" y="1086" type="qcurve"/>
      <point x="1717" y="912"/>
      <point x="1717" y="707" type="qcurve" smooth="yes"/>
      <point x="1717" y="563"/>
      <point x="1618" y="314"/>
      <point x="1444" y="117"/>
      <point x="1330" y="52" type="qcurve" smooth="yes"/>
      <point x="1152" y="-50"/>
    </contour>
    <contour>
      <point x="941" y="117" type="qcurve" smooth="yes"/>
      <point x="1054" y="117"/>
      <point x="1254" y="194"/>
      <point x="1414" y="328"/>
      <point x="1467" y="415" type="qcurve" smooth="yes"/>
      <point x="1550" y="550"/>
      <point x="1550" y="707" type="qcurve" smooth="yes"/>
      <point x="1550" y="872"/>
      <point x="1380" y="1137"/>
      <point x="1244" y="1216" type="qcurve"/>
      <point x="1103" y="1296"/>
      <point x="941" y="1296" type="qcurve" smooth="yes"/>
      <point x="827" y="1296"/>
      <point x="627" y="1220"/>
      <point x="468" y="1086"/>
      <point x="415" y="1000" type="qcurve" smooth="yes"/>
      <point x="332" y="864"/>
      <point x="332" y="707" type="qcurve" smooth="yes"/>
      <point x="332" y="542"/>
      <point x="502" y="276"/>
      <point x="639" y="198" type="qcurve" smooth="yes"/>
      <point x="779" y="117"/>
    </contour>
    <contour>
      <point x="957" y="275" type="qcurve" smooth="yes"/>
      <point x="831" y="275"/>
      <point x="663" y="394"/>
      <point x="580" y="589"/>
      <point x="580" y="705" type="qcurve" smooth="yes"/>
      <point x="580" y="788"/>
      <point x="625" y="942"/>
      <point x="718" y="1063"/>
      <point x="860" y="1134"/>
      <point x="957" y="1134" type="qcurve" smooth="yes"/>
      <point x="1190" y="1134"/>
      <point x="1297" y="907" type="qcurve"/>
      <point x="1143" y="842" type="line"/>
      <point x="1113" y="905"/>
      <point x="1025" y="966"/>
      <point x="957" y="966" type="qcurve" smooth="yes"/>
      <point x="851" y="966"/>
      <point x="744" y="819"/>
      <point x="744" y="705" type="qcurve" smooth="yes"/>
      <point x="744" y="590"/>
      <point x="849" y="445"/>
      <point x="955" y="445" type="qcurve" smooth="yes"/>
      <point x="1087" y="445"/>
      <point x="1141" y="570" type="qcurve"/>
      <point x="1297" y="504" type="line"/>
      <point x="1191" y="275"/>
    </contour>
  </outline>
</glyph>
<glyph name="ordfeminine" format="2">
  <advance width="861"/>
  <unicode hex="00AA"/>
  <outline>
    <contour>
      <point x="408" y="709" type="qcurve" smooth="yes"/>
      <point x="321" y="709"/>
      <point x="201" y="805"/>
      <point x="201" y="891" type="qcurve" smooth="yes"/>
      <point x="201" y="952"/>
      <point x="258" y="1061"/>
      <point x="314" y="1094" type="qcurve" smooth="yes"/>
      <point x="396" y="1141"/>
      <point x="520" y="1141" type="qcurve"/>
      <point x="728" y="1150" type="line"/>
      <point x="735" y="1189"/>
      <point x="735" y="1209" type="qcurve" smooth="yes"/>
      <point x="735" y="1262"/>
      <point x="675" y="1310"/>
      <point x="615" y="1310" type="qcurve" smooth="yes"/>
      <point x="501" y="1310"/>
      <point x="404" y="1196" type="qcurve"/>
      <point x="305" y="1286" type="line"/>
      <point x="378" y="1362"/>
      <point x="527" y="1434"/>
      <point x="624" y="1434" type="qcurve" smooth="yes"/>
      <point x="747" y="1434"/>
      <point x="867" y="1313"/>
      <point x="867" y="1219" type="qcurve" smooth="yes"/>
      <point x="867" y="1182"/>
      <point x="858" y="1141" type="qcurve" smooth="yes"/>
      <point x="761" y="723" type="line"/>
      <point x="639" y="723" type="line"/>
      <point x="659" y="809" type="line"/>
      <point x="604" y="758"/>
      <point x="484" y="709"/>
    </contour>
    <contour>
      <point x="438" y="835" type="qcurve" smooth="yes"/>
      <point x="497" y="835"/>
      <point x="605" y="894"/>
      <point x="684" y="982"/>
      <point x="699" y="1029" type="qcurve"/>
      <point x="514" y="1019" type="line"/>
      <point x="454" y="1019"/>
      <point x="360" y="960"/>
      <point x="347" y="905" type="qcurve"/>
      <point x="346" y="895" type="line"/>
      <point x="346" y="868"/>
      <point x="402" y="835"/>
    </contour>
  </outline>
</glyph>
<glyph name="guillemotleft" format="2">
  <advance width="960"/>
  <unicode hex="00AB"/>
  <outline>
    <contour>
      <point x="367" y="165" type="line"/>
      <point x="35" y="510" type="line"/>
      <point x="523" y="857" type="line"/>
      <point x="481" y="662" type="line"/>
      <point x="261" y="510" type="line"/>
      <point x="409" y="360" type="line"/>
    </contour>
    <contour>
      <point x="730" y="165" type="line"/>
      <point x="398" y="510" type="line"/>
      <point x="886" y="857" type="line"/>
      <point x="844" y="662" type="line"/>
      <point x="623" y="510" type="line"/>
      <point x="772" y="360" type="line"/>
    </contour>
  </outline>
</glyph>
<glyph name="logicalnot" format="2">
  <advance width="1298"/>
  <unicode hex="00AC"/>
  <outline>
    <contour>
      <point x="1069" y="291" type="line"/>
      <point x="864" y="291" type="line"/>
      <point x="864" y="606" type="line"/>
      <point x="142" y="606" type="line"/>
      <point x="142" y="797" type="line"/>
      <point x="1069" y="797" type="line"/>
    </contour>
  </outline>
</glyph>
<glyph name="sfthyphen" format="2">
  <advance width="1001"/>
  <unicode hex="00AD"/>
  <outline>
    <contour>
      <point x="860" y="530" type="line"/>
      <point x="155" y="530" type="line"/>
      <point x="193" y="692" type="line"/>
      <point x="898" y="692" type="line"/>
    </contour>
  </outline>
</glyph>
<glyph name="degree" format="2">
  <advance width="856"/>
  <unicode hex="00B0"/>
  <outline>
    <contour>
      <point x="427" y="848" type="qcurve" smooth="yes"/>
      <point x="342" y="848"/>
      <point x="210" y="930"/>
      <point x="134" y="1064"/>
      <point x="134" y="1141" type="qcurve" smooth="yes"/>
      <point x="134" y="1227"/>
      <point x="217" y="1359"/>
      <point x="351" y="1434"/>
      <point x="427" y="1434" type="qcurve" smooth="yes"/>
      <point x="511" y="1434"/>
      <point x="643" y="1352"/>
      <point x="719" y="1219"/>
      <point x="719" y="1141" type="qcurve" smooth="yes"/>
      <point x="719" y="1056"/>
      <point x="637" y="924"/>
      <point x="504" y="848"/>
    </contour>
    <contour>
      <point x="427" y="990" type="qcurve" smooth="yes"/>
      <point x="491" y="990"/>
      <point x="579" y="1078"/>
      <point x="579" y="1141" type="qcurve" smooth="yes"/>
      <point x="579" y="1207"/>
      <point x="486" y="1292"/>
      <point x="427" y="1292" type="qcurve" smooth="yes"/>
      <point x="362" y="1292"/>
      <point x="276" y="1201"/>
      <point x="276" y="1141" type="qcurve" smooth="yes"/>
      <point x="276" y="1075"/>
      <point x="368" y="990"/>
    </contour>
  </outline>
</glyph>
<glyph name="twosuperior" format="2">
  <advance width="810"/>
  <unicode hex="00B2"/>
  <outline>
    <contour>
      <point x="668" y="486" type="line"/>
      <point x="-31" y="486" type="line"/>
      <point x="-5" y="627" type="line"/>
      <point x="95" y="681"/>
      <point x="295" y="805"/>
      <point x="391" y="881" type="qcurve"/>
      <point x="585" y="1016"/>
      <point x="624" y="1160" type="qcurve"/>
      <point x="629" y="1182"/>
      <point x="629" y="1200" type="qcurve" smooth="yes"/>
      <point x="629" y="1240"/>
      <point x="577" y="1290"/>
      <point x="522" y="1290" type="qcurve" smooth="yes"/>
      <point x="462" y="1290"/>
      <point x="371" y="1233"/>
      <point x="308" y="1140"/>
      <point x="292" y="1084" type="qcurve"/>
      <point x="150" y="1105" type="line"/>
      <point x="173" y="1199"/>
      <point x="283" y="1351"/>
      <point x="446" y="1441"/>
      <point x="546" y="1441" type="qcurve" smooth="yes"/>
      <point x="665" y="1441"/>
      <point x="798" y="1320"/>
      <point x="798" y="1226" type="qcurve" smooth="yes"/>
      <point x="798" y="1103"/>
      <point x="685" y="972" type="qcurve" smooth="yes"/>
      <point x="605" y="878"/>
      <point x="476" y="777" type="qcurve"/>
      <point x="357" y="693"/>
      <point x="240" y="632" type="qcurve"/>
      <point x="703" y="636" type="line"/>
    </contour>
  </outline>
</glyph>
<glyph name="threesuperior" format="2">
  <advance width="833"/>
  <unicode hex="00B3"/>
  <outline>
    <contour>
      <point x="331" y="463" type="qcurve" smooth="yes"/>
      <point x="248" y="463"/>
      <point x="112" y="515"/>
      <point x="30" y="621"/>
      <point x="30" y="701" type="qcurve" smooth="yes"/>
      <point x="30" y="736"/>
      <point x="40" y="778" type="qcurve"/>
      <point x="198" y="776" type="line"/>
      <point x="192" y="753"/>
      <point x="192" y="736" type="qcurve" smooth="yes"/>
      <point x="192" y="675"/>
      <point x="281" y="616"/>
      <point x="348" y="616" type="qcurve" smooth="yes"/>
      <point x="429" y="616"/>
      <point x="572" y="699"/>
      <point x="594" y="778" type="qcurve" smooth="yes"/>
      <point x="599" y="795"/>
      <point x="599" y="812" type="qcurve" smooth="yes"/>
      <point x="599" y="862"/>
      <point x="512" y="910"/>
      <point x="445" y="910" type="qcurve" smooth="yes"/>
      <point x="355" y="910" type="line"/>
      <point x="386" y="1060" type="line"/>
      <point x="469" y="1060" type="line" smooth="yes"/>
      <point x="530" y="1060"/>
      <point x="625" y="1125"/>
      <point x="642" y="1188" type="qcurve"/>
      <point x="645" y="1202"/>
      <point x="646" y="1213" type="qcurve"/>
      <point x="646" y="1254"/>
      <point x="578" y="1295"/>
      <point x="527" y="1295" type="qcurve" smooth="yes"/>
      <point x="457" y="1295"/>
      <point x="346" y="1219"/>
      <point x="328" y="1156" type="qcurve"/>
      <point x="194" y="1177" type="line"/>
      <point x="229" y="1311"/>
      <point x="431" y="1451"/>
      <point x="552" y="1451" type="qcurve" smooth="yes"/>
      <point x="621" y="1451"/>
      <point x="737" y="1402"/>
      <point x="807" y="1308"/>
      <point x="807" y="1241" type="qcurve" smooth="yes"/>
      <point x="807" y="1206"/>
      <point x="779" y="1118"/>
      <point x="746" y="1075" type="qcurve" smooth="yes"/>
      <point x="707" y="1025"/>
      <point x="647" y="990" type="qcurve"/>
      <point x="754" y="939"/>
      <point x="754" y="816" type="qcurve" smooth="yes"/>
      <point x="754" y="701"/>
      <point x="619" y="533"/>
      <point x="515" y="495" type="qcurve" smooth="yes"/>
      <point x="428" y="463"/>
    </contour>
  </outline>
</glyph>
<glyph name="mu" format="2">
  <advance width="1297"/>
  <unicode hex="00B5"/>
  <outline>
    <contour>
      <point x="239" y="-266" type="line"/>
      <point x="55" y="-266" type="line"/>
      <point x="346" y="999" type="line"/>
      <point x="551" y="999" type="line"/>
      <point x="415" y="404" type="line" smooth="yes"/>
      <point x="400" y="339"/>
      <point x="400" y="295" type="qcurve" smooth="yes"/>
      <point x="400" y="166"/>
      <point x="529" y="166" type="qcurve" smooth="yes"/>
      <point x="609" y="166"/>
      <point x="758" y="249"/>
      <point x="862" y="377"/>
      <point x="879" y="447" type="qcurve"/>
      <point x="1006" y="999" type="line"/>
      <point x="1211" y="999" type="line"/>
      <point x="982" y="0" type="line"/>
      <point x="776" y="0" type="line"/>
      <point x="805" y="113" type="line"/>
      <point x="748" y="56"/>
      <point x="583" y="-23"/>
      <point x="493" y="-23" type="qcurve" smooth="yes"/>
      <point x="402" y="-23"/>
      <point x="329" y="18" type="qcurve"/>
    </contour>
  </outline>
</glyph>
<glyph name="paragraph" format="2">
  <advance width="1292"/>
  <unicode hex="00B6"/>
  <outline>
    <contour>
      <point x="524" y="-246" type="line"/>
      <point x="365" y="-246" type="line"/>
      <point x="571" y="623" type="line"/>
      <point x="473" y="623"/>
      <point x="302" y="696"/>
      <point x="197" y="839"/>
      <point x="197" y="943" type="qcurve" smooth="yes"/>
      <point x="197" y="1052"/>
      <point x="292" y="1226"/>
      <point x="449" y="1348"/>
      <point x="642" y="1413"/>
      <point x="741" y="1413" type="qcurve" smooth="yes"/>
      <point x="907" y="1413" type="line"/>
    </contour>
    <contour>
      <point x="881" y="-246" type="line"/>
      <point x="720" y="-246" type="line"/>
      <point x="1103" y="1413" type="line"/>
      <point x="1264" y="1413" type="line"/>
    </contour>
  </outline>
</glyph>
<glyph name="ordmasculine" format="2">
  <advance width="877"/>
  <unicode hex="00BA"/>
  <outline>
    <contour>
      <point x="500" y="711" type="qcurve" smooth="yes"/>
      <point x="408" y="711"/>
      <point x="279" y="787"/>
      <point x="212" y="917"/>
      <point x="212" y="997" type="qcurve" smooth="yes"/>
      <point x="212" y="1117"/>
      <point x="332" y="1316"/>
      <point x="529" y="1434"/>
      <point x="642" y="1434" type="qcurve" smooth="yes"/>
      <point x="734" y="1434"/>
      <point x="862" y="1358"/>
      <point x="929" y="1228"/>
      <point x="929" y="1149" type="qcurve" smooth="yes"/>
      <point x="929" y="1084"/>
      <point x="882" y="944"/>
      <point x="834" y="881" type="qcurve" smooth="yes"/>
      <point x="775" y="805"/>
      <point x="603" y="711"/>
    </contour>
    <contour>
      <point x="506" y="845" type="qcurve" smooth="yes"/>
      <point x="578" y="845"/>
      <point x="684" y="910"/>
      <point x="753" y="1022"/>
      <point x="770" y="1093" type="qcurve" smooth="yes"/>
      <point x="779" y="1131"/>
      <point x="779" y="1166" type="qcurve" smooth="yes"/>
      <point x="779" y="1227"/>
      <point x="712" y="1302"/>
      <point x="636" y="1302" type="qcurve" smooth="yes"/>
      <point x="563" y="1302"/>
      <point x="455" y="1236"/>
      <point x="386" y="1124"/>
      <point x="370" y="1053" type="qcurve" smooth="yes"/>
      <point x="361" y="1016"/>
      <point x="361" y="981" type="qcurve" smooth="yes"/>
      <point x="361" y="920"/>
      <point x="429" y="845"/>
    </contour>
  </outline>
</glyph>
<glyph name="Thorn" format="2">
  <advance width="1150"/>
  <unicode hex="00DE"/>
  <outline>
    <contour>
      <point x="287" y="0" type="line"/>
      <point x="78" y="0" type="line"/>
      <point x="403" y="1413" type="line"/>
      <point x="612" y="1413" type="line"/>
      <point x="567" y="1217" type="line"/>
      <point x="815" y="1217" type="line" smooth="yes"/>
      <point x="937" y="1217"/>
      <point x="1098" y="1141"/>
      <point x="1176" y="1004"/>
      <point x="1176" y="914" type="qcurve" smooth="yes"/>
      <point x="1176" y="835"/>
      <point x="1116" y="655"/>
      <point x="1053" y="583" type="qcurve"/>
      <point x="969" y="491"/>
      <point x="735" y="408"/>
      <point x="600" y="408" type="qcurve" smooth="yes"/>
      <point x="379" y="408" type="line"/>
    </contour>
    <contour>
      <point x="630" y="599" type="line" smooth="yes"/>
      <point x="767" y="599"/>
      <point x="934" y="721"/>
      <point x="960" y="833" type="qcurve" smooth="yes"/>
      <point x="967" y="866"/>
      <point x="967" y="887" type="qcurve" smooth="yes"/>
      <point x="967" y="1032"/>
      <point x="743" y="1032" type="qcurve" smooth="yes"/>
      <point x="525" y="1032" type="line"/>
      <point x="424" y="599" type="line"/>
    </contour>
  </outline>
</glyph>
<glyph name="divide" format="2">
  <advance width="1172"/>
  <unicode hex="00F7"/>
  <outline>
    <contour>
      <point x="707" y="855" type="line"/>
      <point x="463" y="855" type="line"/>
      <point x="463" y="1097" type="line"/>
      <point x="707" y="1097" type="line"/>
    </contour>
    <contour>
      <point x="1072" y="547" type="line"/>
      <point x="98" y="547" type="line"/>
      <point x="98" y="710" type="line"/>
      <point x="1072" y="710" type="line"/>
    </contour>
    <contour>
      <point x="707" y="143" type="line"/>
      <point x="463" y="143" type="line"/>
      <point x="463" y="385" type="line"/>
      <point x="707" y="385" type="line"/>
    </contour>
  </outline>
</glyph>
<glyph name="thorn" format="2">
  <advance width="1152"/>
  <unicode hex="00FE"/>
  <outline>
    <contour>
      <point x="145" y="-438" type="line"/>
      <point x="-59" y="-438" type="line"/>
      <point x="369" y="1413" type="line"/>
      <point x="573" y="1413" type="line"/>
      <point x="452" y="904" type="line"/>
      <point x="578" y="1020"/>
      <point x="760" y="1020" type="qcurve" smooth="yes"/>
      <point x="871" y="1020"/>
      <point x="1018" y="925"/>
      <point x="1092" y="757"/>
      <point x="1092" y="649" type="qcurve" smooth="yes"/>
      <point x="1092" y="479"/>
      <point x="931" y="143"/>
      <point x="783" y="47" type="qcurve"/>
      <point x="675" y="-20"/>
      <point x="546" y="-20" type="qcurve" smooth="yes"/>
      <point x="449" y="-20"/>
      <point x="315" y="51"/>
      <point x="276" y="111" type="qcurve"/>
    </contour>
    <contour>
      <point x="522" y="163" type="qcurve" smooth="yes"/>
      <point x="615" y="163"/>
      <point x="759" y="258"/>
      <point x="856" y="419"/>
      <point x="880" y="519" type="qcurve" smooth="yes"/>
      <point x="895" y="579"/>
      <point x="895" y="632" type="qcurve" smooth="yes"/>
      <point x="895" y="721"/>
      <point x="804" y="835"/>
      <point x="701" y="835" type="qcurve" smooth="yes"/>
      <point x="609" y="835"/>
      <point x="464" y="740"/>
      <point x="366" y="580"/>
      <point x="343" y="480" type="qcurve"/>
      <point x="328" y="420"/>
      <point x="328" y="367" type="qcurve" smooth="yes"/>
      <point x="328" y="307"/>
      <point x="368" y="215"/>
      <point x="453" y="163"/>
    </contour>
  </outline>
</glyph>
<glyph name="dcaron" format="2">
  <advance width="1345"/>
  <unicode hex="010F"/>
  <outline>
    <contour>
      <point x="390" y="-20" type="qcurve" smooth="yes"/>
      <point x="278" y="-20"/>
      <point x="131" y="77"/>
      <point x="58" y="245"/>
      <point x="58" y="353" type="qcurve" smooth="yes"/>
      <point x="58" y="455"/>
      <point x="122" y="674"/>
      <point x="184" y="771" type="qcurve" smooth="yes"/>
      <point x="255" y="882"/>
      <point x="468" y="1020"/>
      <point x="601" y="1020" type="qcurve" smooth="yes"/>
      <point x="692" y="1020"/>
      <point x="834" y="949"/>
      <point x="871" y="881" type="qcurve"/>
      <point x="998" y="1413" type="line"/>
      <point x="1215" y="1413" type="line"/>
      <point x="890" y="0" type="line"/>
      <point x="673" y="0" type="line"/>
      <point x="700" y="104" type="line"/>
      <point x="573" y="-20"/>
    </contour>
    <contour>
      <point x="1360" y="977" type="line"/>
      <point x="1224" y="977" type="line"/>
      <point x="1435" y="1413" type="line"/>
      <point x="1681" y="1413" type="line"/>
    </contour>
    <contour>
      <point x="462" y="177" type="qcurve" smooth="yes"/>
      <point x="596" y="177"/>
      <point x="775" y="367"/>
      <point x="809" y="520" type="qcurve" smooth="yes"/>
      <point x="823" y="581"/>
      <point x="823" y="631" type="qcurve" smooth="yes"/>
      <point x="823" y="717"/>
      <point x="736" y="825"/>
      <point x="637" y="825" type="qcurve" smooth="yes"/>
      <point x="546" y="825"/>
      <point x="405" y="732"/>
      <point x="311" y="577"/>
      <point x="289" y="480" type="qcurve" smooth="yes"/>
      <point x="275" y="421"/>
      <point x="275" y="371" type="qcurve" smooth="yes"/>
      <point x="275" y="285"/>
      <point x="362" y="177"/>
    </contour>
  </outline>
</glyph>
<glyph name="Eogonek" format="2">
  <advance width="1245"/>
  <unicode hex="0118"/>
  <outline>
    <contour>
      <point x="787" y="-451" type="qcurve" smooth="yes"/>
      <point x="704" y="-451"/>
      <point x="601" y="-359"/>
      <point x="601" y="-281" type="qcurve" smooth="yes"/>
      <point x="601" y="-227"/>
      <point x="648" y="-123"/>
      <point x="697" y="-82" type="qcurve" smooth="yes"/>
      <point x="765" y="-25"/>
      <point x="824" y="0" type="qcurve"/>
      <point x="78" y="0" type="line"/>
      <point x="403" y="1413" type="line"/>
      <point x="1336" y="1413" type="line"/>
      <point x="1289" y="1210" type="line"/>
      <point x="581" y="1210" type="line"/>
      <point x="487" y="808" type="line"/>
      <point x="1132" y="808" type="line"/>
      <point x="1085" y="606" type="line"/>
      <point x="441" y="606" type="line"/>
      <point x="350" y="210" type="line"/>
      <point x="1058" y="210" type="line"/>
      <point x="1010" y="0" type="line"/>
      <point x="935" y="0" type="line"/>
      <point x="1011" y="-3" type="line"/>
      <point x="984" y="-12"/>
      <point x="870" y="-70"/>
      <point x="812" y="-121" type="qcurve" smooth="yes"/>
      <point x="777" y="-153"/>
      <point x="735" y="-232"/>
      <point x="735" y="-266" type="qcurve" smooth="yes"/>
      <point x="735" y="-312"/>
      <point x="787" y="-312" type="qcurve" smooth="yes"/>
      <point x="857" y="-312"/>
      <point x="920" y="-246" type="qcurve"/>
      <point x="1019" y="-339" type="line"/>
      <point x="921" y="-451"/>
    </contour>
  </outline>
</glyph>
<glyph name="eogonek" format="2">
  <advance width="1058"/>
  <unicode hex="0119"/>
  <outline>
    <contour>
      <point x="485" y="-404" type="qcurve" smooth="yes"/>
      <point x="402" y="-404"/>
      <point x="299" y="-312"/>
      <point x="299" y="-234" type="qcurve" smooth="yes"/>
      <point x="299" y="-110"/>
      <point x="423" y="-12" type="qcurve"/>
      <point x="236" y="-3"/>
      <point x="52" y="206"/>
      <point x="52" y="366" type="qcurve" smooth="yes"/>
      <point x="52" y="563"/>
      <point x="177" y="759" type="qcurve"/>
      <point x="226" y="832"/>
      <point x="363" y="946"/>
      <point x="535" y="1012"/>
      <point x="637" y="1012" type="qcurve" smooth="yes"/>
      <point x="832" y="1012"/>
      <point x="1007" y="818"/>
      <point x="1007" y="658" type="qcurve" smooth="yes"/>
      <point x="1007" y="541"/>
      <point x="966" y="420" type="qcurve"/>
      <point x="273" y="420" type="line"/>
      <point x="269" y="395"/>
      <point x="269" y="366" type="qcurve" smooth="yes"/>
      <point x="269" y="285"/>
      <point x="362" y="185"/>
      <point x="464" y="185" type="qcurve" smooth="yes"/>
      <point x="557" y="185"/>
      <point x="692" y="235"/>
      <point x="753" y="288" type="qcurve"/>
      <point x="879" y="147" type="line"/>
      <point x="764" y="49"/>
      <point x="640" y="14" type="qcurve"/>
      <point x="463" y="-76"/>
      <point x="437" y="-191" type="qcurve"/>
      <point x="433" y="-206"/>
      <point x="433" y="-219" type="qcurve" smooth="yes"/>
      <point x="433" y="-265"/>
      <point x="485" y="-265" type="qcurve" smooth="yes"/>
      <point x="555" y="-265"/>
      <point x="618" y="-199" type="qcurve"/>
      <point x="717" y="-292" type="line"/>
      <point x="619" y="-404"/>
    </contour>
    <contour>
      <point x="802" y="579" type="line"/>
      <point x="808" y="620"/>
      <point x="808" y="652" type="qcurve" smooth="yes"/>
      <point x="808" y="746"/>
      <point x="714" y="829"/>
      <point x="621" y="829" type="qcurve" smooth="yes"/>
      <point x="544" y="829"/>
      <point x="423" y="763"/>
      <point x="337" y="650"/>
      <point x="312" y="579" type="qcurve"/>
    </contour>
  </outline>
</glyph>
<glyph name="Iogonek" format="2">
  <advance width="609"/>
  <unicode hex="012E"/>
  <outline>
    <contour>
      <point x="79" y="-451" type="qcurve" smooth="yes"/>
      <point x="-4" y="-451"/>
      <point x="-107" y="-359"/>
      <point x="-107" y="-281" type="qcurve" smooth="yes"/>
      <point x="-107" y="-227"/>
      <point x="-60" y="-123"/>
      <point x="-11" y="-82" type="qcurve" smooth="yes"/>
      <point x="57" y="-25"/>
      <point x="116" y="0" type="qcurve"/>
      <point x="78" y="0" type="line"/>
      <point x="403" y="1413" type="line"/>
      <point x="628" y="1413" type="line"/>
      <point x="302" y="0" type="line"/>
      <point x="227" y="0" type="line"/>
      <point x="303" y="-3" type="line"/>
      <point x="276" y="-12"/>
      <point x="162" y="-70"/>
      <point x="104" y="-121" type="qcurve" smooth="yes"/>
      <point x="69" y="-153"/>
      <point x="27" y="-232"/>
      <point x="27" y="-266" type="qcurve" smooth="yes"/>
      <point x="27" y="-312"/>
      <point x="79" y="-312" type="qcurve" smooth="yes"/>
      <point x="149" y="-312"/>
      <point x="212" y="-246" type="qcurve"/>
      <point x="311" y="-339" type="line"/>
      <point x="213" y="-451"/>
    </contour>
  </outline>
</glyph>
<glyph name="kgreenlandic" format="2">
  <advance width="1095"/>
  <unicode hex="0138"/>
  <outline>
    <contour>
      <point x="972" y="0" type="line"/>
      <point x="723" y="0" type="line"/>
      <point x="540" y="483" type="line"/>
      <point x="322" y="292" type="line"/>
      <point x="252" y="0" type="line"/>
      <point x="38" y="0" type="line"/>
      <point x="268" y="999" type="line"/>
      <point x="482" y="999" type="line"/>
      <point x="376" y="550" type="line"/>
      <point x="878" y="999" type="line"/>
      <point x="1159" y="999" type="line"/>
      <point x="710" y="618" type="line"/>
    </contour>
  </outline>
</glyph>
<glyph name="lcaron" format="2">
  <advance width="726"/>
  <unicode hex="013E"/>
  <outline>
    <contour>
      <point x="239" y="-20" type="qcurve" smooth="yes"/>
      <point x="69" y="-20"/>
      <point x="69" y="125" type="qcurve" smooth="yes"/>
      <point x="69" y="160"/>
      <point x="80" y="209" type="qcurve" smooth="yes"/>
      <point x="358" y="1413" type="line"/>
      <point x="573" y="1413" type="line"/>
      <point x="298" y="229"/>
      <point x="296" y="213" type="qcurve"/>
      <point x="296" y="171"/>
      <point x="349" y="171" type="qcurve" smooth="yes"/>
      <point x="368" y="171"/>
      <point x="429" y="180" type="qcurve"/>
      <point x="400" y="-2" type="line"/>
      <point x="362" y="-10"/>
      <point x="272" y="-20"/>
    </contour>
    <contour>
      <point x="741" y="977" type="line"/>
      <point x="605" y="977" type="line"/>
      <point x="816" y="1413" type="line"/>
      <point x="1062" y="1413" type="line"/>
    </contour>
  </outline>
</glyph>
<glyph name="Lslash" format="2">
  <advance width="1080"/>
  <unicode hex="0141"/>
  <outline>
    <contour>
      <point x="931" y="0" type="line"/>
      <point x="103" y="0" type="line"/>
      <point x="204" y="439" type="line"/>
      <point x="-3" y="304" type="line"/>
      <point x="59" y="533" type="line"/>
      <point x="255" y="662" type="line"/>
      <point x="428" y="1413" type="line"/>
      <point x="653" y="1413" type="line"/>
      <point x="520" y="837" type="line"/>
      <point x="825" y="1038" type="line"/>
      <point x="762" y="804" type="line"/>
      <point x="468" y="612" type="line"/>
      <point x="375" y="210" type="line"/>
      <point x="979" y="210" type="line"/>
    </contour>
  </outline>
</glyph>
<glyph name="lslash" format="2">
  <advance width="558"/>
  <unicode hex="0142"/>
  <outline>
    <contour>
      <point x="240" y="-20" type="qcurve" smooth="yes"/>
      <point x="70" y="-20"/>
      <point x="70" y="125" type="qcurve" smooth="yes"/>
      <point x="70" y="160"/>
      <point x="81" y="209" type="qcurve" smooth="yes"/>
      <point x="136" y="447" type="line"/>
      <point x="5" y="346" type="line"/>
      <point x="50" y="560" type="line"/>
      <point x="186" y="664" type="line"/>
      <point x="359" y="1413" type="line"/>
      <point x="574" y="1413" type="line"/>
      <point x="447" y="864" type="line"/>
      <point x="633" y="1007" type="line"/>
      <point x="589" y="795" type="line"/>
      <point x="397" y="647" type="line"/>
      <point x="300" y="229" type="line" smooth="yes"/>
      <point x="297" y="216"/>
      <point x="297" y="206" type="qcurve" smooth="yes"/>
      <point x="297" y="169"/>
      <point x="349" y="169" type="qcurve" smooth="yes"/>
      <point x="375" y="169"/>
      <point x="430" y="180" type="qcurve"/>
      <point x="401" y="-2" type="line"/>
      <point x="316" y="-20"/>
    </contour>
  </outline>
</glyph>
<glyph name="Eng" format="2">
  <advance width="1443"/>
  <unicode hex="014A"/>
  <outline>
    <contour>
      <point x="743" y="-369" type="qcurve" smooth="yes"/>
      <point x="629" y="-369" type="line"/>
      <point x="657" y="-221" type="line"/>
      <point x="675" y="-221" type="line" smooth="yes"/>
      <point x="738" y="-221"/>
      <point x="791" y="-203" type="qcurve" smooth="yes"/>
      <point x="850" y="-183"/>
      <point x="916" y="-109"/>
      <point x="916" y="-66" type="qcurve"/>
      <point x="914" y="-45" type="line"/>
      <point x="542" y="1070" type="line"/>
      <point x="294" y="0" type="line"/>
      <point x="77" y="0" type="line"/>
      <point x="402" y="1412" type="line"/>
      <point x="643" y="1412" type="line"/>
      <point x="996" y="344" type="line"/>
      <point x="1246" y="1412" type="line"/>
      <point x="1461" y="1412" type="line"/>
      <point x="1132" y="-9" type="line" smooth="yes"/>
      <point x="1096" y="-163"/>
      <point x="922" y="-369"/>
    </contour>
  </outline>
</glyph>
<glyph name="eng" format="2">
  <advance width="1147"/>
  <unicode hex="014B"/>
  <outline>
    <contour>
      <point x="525" y="-369" type="qcurve" smooth="yes"/>
      <point x="410" y="-369" type="line"/>
      <point x="452" y="-190" type="line"/>
      <point x="515" y="-190" type="line" smooth="yes"/>
      <point x="599" y="-190"/>
      <point x="674" y="-84"/>
      <point x="691" y="-10" type="qcurve" smooth="yes"/>
      <point x="828" y="587" type="line" smooth="yes"/>
      <point x="843" y="654"/>
      <point x="843" y="697" type="qcurve" smooth="yes"/>
      <point x="843" y="821"/>
      <point x="722" y="821" type="qcurve" smooth="yes"/>
      <point x="637" y="821"/>
      <point x="491" y="738"/>
      <point x="390" y="613"/>
      <point x="374" y="546" type="qcurve" smooth="yes"/>
      <point x="249" y="0" type="line"/>
      <point x="38" y="0" type="line"/>
      <point x="268" y="999" type="line"/>
      <point x="478" y="999" type="line"/>
      <point x="445" y="870" type="line"/>
      <point x="519" y="947"/>
      <point x="690" y="1016"/>
      <point x="770" y="1016" type="qcurve" smooth="yes"/>
      <point x="916" y="1016"/>
      <point x="1056" y="854"/>
      <point x="1056" y="725" type="qcurve" smooth="yes"/>
      <point x="1056" y="658"/>
      <point x="1040" y="594" type="qcurve"/>
      <point x="885" y="-80" type="line" smooth="yes"/>
      <point x="869" y="-148"/>
      <point x="810" y="-268"/>
      <point x="658" y="-369"/>
    </contour>
  </outline>
</glyph>
<glyph name="OE" format="2">
  <advance width="2254"/>
  <unicode hex="0152"/>
  <outline>
    <contour>
      <point x="657" y="-20" type="qcurve" smooth="yes"/>
      <point x="473" y="-20"/>
      <point x="236" y="116"/>
      <point x="122" y="352"/>
      <point x="122" y="504" type="qcurve" smooth="yes"/>
      <point x="122" y="649"/>
      <point x="215" y="952"/>
      <point x="303" y="1082" type="qcurve" smooth="yes"/>
      <point x="412" y="1242"/>
      <point x="751" y="1434"/>
      <point x="968" y="1434" type="qcurve" smooth="yes"/>
      <point x="1127" y="1434"/>
      <point x="1325" y="1321"/>
      <point x="1369" y="1224" type="qcurve"/>
      <point x="1417" y="1413" type="line"/>
      <point x="2344" y="1413" type="line"/>
      <point x="2298" y="1210" type="line"/>
      <point x="1595" y="1210" type="line"/>
      <point x="1501" y="808" type="line"/>
      <point x="2146" y="808" type="line"/>
      <point x="2099" y="606" type="line"/>
      <point x="1455" y="606" type="line"/>
      <point x="1364" y="210" type="line"/>
      <point x="2067" y="210" type="line"/>
      <point x="2019" y="0" type="line"/>
      <point x="1092" y="0" type="line"/>
      <point x="1136" y="174" type="line"/>
      <point x="948" y="-20"/>
    </contour>
    <contour>
      <point x="679" y="189" type="qcurve" smooth="yes"/>
      <point x="835" y="189"/>
      <point x="1071" y="333"/>
      <point x="1225" y="575"/>
      <point x="1259" y="727" type="qcurve" smooth="yes"/>
      <point x="1280" y="821"/>
      <point x="1280" y="893" type="qcurve" smooth="yes"/>
      <point x="1280" y="1045"/>
      <point x="1116" y="1224"/>
      <point x="944" y="1224" type="qcurve" smooth="yes"/>
      <point x="785" y="1224"/>
      <point x="551" y="1079"/>
      <point x="399" y="837"/>
      <point x="364" y="687" type="qcurve" smooth="yes"/>
      <point x="343" y="600"/>
      <point x="343" y="519" type="qcurve" smooth="yes"/>
      <point x="343" y="368"/>
      <point x="506" y="189"/>
    </contour>
  </outline>
</glyph>
<glyph name="tbar" format="2">
  <advance width="733"/>
  <unicode hex="0167"/>
  <outline>
    <contour>
      <point x="377" y="-20" type="qcurve" smooth="yes"/>
      <point x="252" y="-20"/>
      <point x="131" y="100"/>
      <point x="131" y="195" type="qcurve" smooth="yes"/>
      <point x="131" y="233"/>
      <point x="142" y="282" type="qcurve" smooth="yes"/>
      <point x="175" y="426" type="line"/>
      <point x="14" y="426" type="line"/>
      <point x="47" y="575" type="line"/>
      <point x="210" y="575" type="line"/>
      <point x="266" y="820" type="line"/>
      <point x="106" y="820" type="line"/>
      <point x="147" y="999" type="line"/>
      <point x="310" y="999" type="line"/>
      <point x="364" y="1240" type="line"/>
      <point x="607" y="1403" type="line"/>
      <point x="515" y="999" type="line"/>
      <point x="773" y="999" type="line"/>
      <point x="732" y="820" type="line"/>
      <point x="474" y="820" type="line"/>
      <point x="417" y="575" type="line"/>
      <point x="682" y="575" type="line"/>
      <point x="648" y="426" type="line"/>
      <point x="382" y="426" type="line"/>
      <point x="351" y="293" type="line" smooth="yes"/>
      <point x="345" y="266"/>
      <point x="345" y="245" type="qcurve" smooth="yes"/>
      <point x="345" y="166"/>
      <point x="433" y="166" type="qcurve" smooth="yes"/>
      <point x="496" y="166"/>
      <point x="575" y="203" type="qcurve"/>
      <point x="541" y="4" type="line"/>
      <point x="514" y="-6"/>
      <point x="423" y="-20"/>
    </contour>
  </outline>
</glyph>
<glyph name="Uogonek" format="2">
  <advance width="1373"/>
  <unicode hex="0172"/>
  <outline>
    <contour>
      <point x="635" y="-410" type="qcurve" smooth="yes"/>
      <point x="552" y="-410"/>
      <point x="449" y="-318"/>
      <point x="449" y="-240" type="qcurve" smooth="yes"/>
      <point x="449" y="-117"/>
      <point x="570" y="-20" type="qcurve"/>
      <point x="357" y="-18"/>
      <point x="150" y="187"/>
      <point x="150" y="366" type="qcurve" smooth="yes"/>
      <point x="150" y="450"/>
      <point x="173" y="550" type="qcurve" smooth="yes"/>
      <point x="372" y="1413" type="line"/>
      <point x="596" y="1413" type="line"/>
      <point x="400" y="565" type="line" smooth="yes"/>
      <point x="376" y="463"/>
      <point x="376" y="396" type="qcurve" smooth="yes"/>
      <point x="376" y="291"/>
      <point x="489" y="196"/>
      <point x="604" y="196" type="qcurve" smooth="yes"/>
      <point x="776" y="196"/>
      <point x="964" y="396"/>
      <point x="1007" y="584" type="qcurve" smooth="yes"/>
      <point x="1199" y="1413" type="line"/>
      <point x="1423" y="1413" type="line"/>
      <point x="1223" y="542" type="line" smooth="yes"/>
      <point x="1178" y="346"/>
      <point x="972" y="71"/>
      <point x="801" y="13" type="qcurve"/>
      <point x="727" y="-24"/>
      <point x="665" y="-76" type="qcurve" smooth="yes"/>
      <point x="628" y="-108"/>
      <point x="583" y="-190"/>
      <point x="583" y="-225" type="qcurve" smooth="yes"/>
      <point x="583" y="-271"/>
      <point x="635" y="-271" type="qcurve" smooth="yes"/>
      <point x="705" y="-271"/>
      <point x="768" y="-205" type="qcurve"/>
      <point x="867" y="-298" type="line"/>
      <point x="769" y="-410"/>
    </contour>
  </outline>
</glyph>
<glyph name="uogonek" format="2">
  <advance width="1153"/>
  <unicode hex="0173"/>
  <outline>
    <contour>
      <point x="662" y="-451" type="qcurve" smooth="yes"/>
      <point x="579" y="-451"/>
      <point x="476" y="-359"/>
      <point x="476" y="-281" type="qcurve" smooth="yes"/>
      <point x="476" y="-227"/>
      <point x="523" y="-123"/>
      <point x="572" y="-82" type="qcurve" smooth="yes"/>
      <point x="640" y="-25"/>
      <point x="699" y="0" type="qcurve"/>
      <point x="673" y="0" type="line"/>
      <point x="701" y="125" type="line"/>
      <point x="638" y="57"/>
      <point x="468" y="-23"/>
      <point x="378" y="-23" type="qcurve" smooth="yes"/>
      <point x="231" y="-23"/>
      <point x="89" y="147"/>
      <point x="89" y="283" type="qcurve" smooth="yes"/>
      <point x="89" y="345"/>
      <point x="105" y="419" type="qcurve"/>
      <point x="239" y="999" type="line"/>
      <point x="456" y="999" type="line"/>
      <point x="320" y="408" type="line"/>
      <point x="305" y="346"/>
      <point x="305" y="304" type="qcurve" smooth="yes"/>
      <point x="305" y="243"/>
      <point x="371" y="177"/>
      <point x="444" y="177" type="qcurve" smooth="yes"/>
      <point x="515" y="177"/>
      <point x="651" y="243"/>
      <point x="756" y="384"/>
      <point x="782" y="495" type="qcurve" smooth="yes"/>
      <point x="898" y="999" type="line"/>
      <point x="1115" y="999" type="line"/>
      <point x="885" y="0" type="line"/>
      <point x="810" y="0" type="line"/>
      <point x="886" y="-3" type="line"/>
      <point x="859" y="-12"/>
      <point x="745" y="-70"/>
      <point x="687" y="-121" type="qcurve" smooth="yes"/>
      <point x="652" y="-153"/>
      <point x="610" y="-232"/>
      <point x="610" y="-266" type="qcurve" smooth="yes"/>
      <point x="610" y="-312"/>
      <point x="662" y="-312" type="qcurve" smooth="yes"/>
      <point x="732" y="-312"/>
      <point x="795" y="-246" type="qcurve"/>
      <point x="894" y="-339" type="line"/>
      <point x="796" y="-451"/>
    </contour>
  </outline>
</glyph>
<glyph name="florin" format="2">
  <advance width="1036"/>
  <unicode hex="0192"/>
  <outline>
    <contour>
      <point x="-134" y="-457" type="qcurve"/>
      <point x="-104" y="-274" type="line"/>
      <point x="27" y="-274"/>
      <point x="188" y="-212"/>
      <point x="235" y="-149" type="qcurve" smooth="yes"/>
      <point x="284" y="-83"/>
      <point x="310" y="29" type="qcurve" smooth="yes"/>
      <point x="492" y="819" type="line"/>
      <point x="313" y="819" type="line"/>
      <point x="355" y="999" type="line"/>
      <point x="534" y="999" type="line"/>
      <point x="568" y="1145" type="line"/>
      <point x="603" y="1287"/>
      <point x="803" y="1448"/>
      <point x="916" y="1448" type="qcurve" smooth="yes"/>
      <point x="979" y="1448"/>
      <point x="1083" y="1399"/>
      <point x="1134" y="1346" type="qcurve"/>
      <point x="994" y="1220" type="line"/>
      <point x="969" y="1246"/>
      <point x="927" y="1266"/>
      <point x="898" y="1266" type="qcurve" smooth="yes"/>
      <point x="852" y="1266"/>
      <point x="763" y="1195"/>
      <point x="746" y="1126" type="qcurve" smooth="yes"/>
      <point x="716" y="999" type="line"/>
      <point x="1021" y="999" type="line"/>
      <point x="979" y="819" type="line"/>
      <point x="674" y="819" type="line"/>
      <point x="488" y="10" type="line"/>
      <point x="432" y="-229"/>
      <point x="107" y="-457"/>
    </contour>
  </outline>
</glyph>
<glyph name="clickretroflex" format="2">
  <advance width="561"/>
  <unicode hex="01C3"/>
  <outline>
    <contour>
      <point x="342" y="413" type="line"/>
      <point x="180" y="413" type="line"/>
      <point x="387" y="1434" type="line"/>
      <point x="606" y="1434" type="line"/>
    </contour>
    <contour>
      <point x="288" y="0" type="line"/>
      <point x="44" y="0" type="line"/>
      <point x="98" y="242" type="line"/>
      <point x="342" y="242" type="line"/>
    </contour>
  </outline>
</glyph>
<glyph name="eturned" format="2">
  <advance width="1050"/>
  <unicode hex="01DD"/>
  <outline>
    <contour>
      <point x="414" y="-12" type="qcurve" smooth="yes"/>
      <point x="219" y="-12"/>
      <point x="46" y="178"/>
      <point x="46" y="338" type="qcurve" smooth="yes"/>
      <point x="46" y="424"/>
      <point x="70" y="528" type="qcurve"/>
      <point x="79" y="559"/>
      <point x="85" y="574" type="qcurve"/>
      <point x="87" y="580" type="line"/>
      <point x="779" y="580" type="line"/>
      <point x="783" y="605"/>
      <point x="783" y="633" type="qcurve" smooth="yes"/>
      <point x="783" y="716"/>
      <point x="688" y="815"/>
      <point x="587" y="815" type="qcurve" smooth="yes"/>
      <point x="497" y="815"/>
      <point x="361" y="765"/>
      <point x="297" y="711" type="qcurve"/>
      <point x="173" y="852" type="line"/>
      <point x="269" y="935"/>
      <point x="478" y="1012"/>
      <point x="605" y="1012" type="qcurve" smooth="yes"/>
      <point x="738" y="1012"/>
      <point x="913" y="914"/>
      <point x="999" y="742"/>
      <point x="999" y="633" type="qcurve" smooth="yes"/>
      <point x="999" y="525"/>
      <point x="965" y="424" type="qcurve" smooth="yes"/>
      <point x="900" y="229"/>
      <point x="758" y="111" type="qcurve" smooth="yes"/>
      <point x="610" y="-12"/>
    </contour>
    <contour>
      <point x="430" y="170" type="qcurve" smooth="yes"/>
      <point x="541" y="170"/>
      <point x="701" y="311"/>
      <point x="740" y="420" type="qcurve"/>
      <point x="249" y="401" type="line"/>
      <point x="243" y="367"/>
      <point x="243" y="337" type="qcurve" smooth="yes"/>
      <point x="243" y="170"/>
    </contour>
  </outline>
</glyph>
<glyph name="dotlessj" format="2">
  <advance width="523"/>
  <unicode hex="0237"/>
  <outline>
    <contour>
      <point x="-119" y="-438" type="qcurve" smooth="yes"/>
      <point x="-198" y="-438"/>
      <point x="-281" y="-402" type="qcurve"/>
      <point x="-204" y="-229" type="line"/>
      <point x="-155" y="-242"/>
      <point x="-105" y="-242" type="qcurve" smooth="yes"/>
      <point x="-13" y="-242"/>
      <point x="12" y="-125" type="qcurve"/>
      <point x="271" y="999" type="line"/>
      <point x="482" y="999" type="line"/>
      <point x="220" y="-135" type="line" smooth="yes"/>
      <point x="200" y="-224"/>
      <point x="113" y="-360"/>
      <point x="-24" y="-438"/>
    </contour>
  </outline>
</glyph>
<glyph name="aturned" format="2">
  <advance width="1086"/>
  <unicode hex="0250"/>
  <outline>
    <contour>
      <point x="465" y="-20" type="qcurve" smooth="yes"/>
      <point x="296" y="-20"/>
      <point x="118" y="146"/>
      <point x="118" y="283" type="qcurve" smooth="yes"/>
      <point x="118" y="334"/>
      <point x="132" y="396" type="qcurve" smooth="yes"/>
      <point x="270" y="995" type="line"/>
      <point x="438" y="995" type="line"/>
      <point x="423" y="849" type="line"/>
      <point x="502" y="936"/>
      <point x="675" y="1016"/>
      <point x="786" y="1016" type="qcurve" smooth="yes"/>
      <point x="869" y="1016"/>
      <point x="1002" y="954"/>
      <point x="1081" y="839"/>
      <point x="1081" y="759" type="qcurve" smooth="yes"/>
      <point x="1081" y="723"/>
      <point x="1072" y="684" type="qcurve" smooth="yes"/>
      <point x="1037" y="534"/>
      <point x="800" y="407"/>
      <point x="619" y="407" type="qcurve"/>
      <point x="333" y="397" type="line"/>
      <point x="322" y="347"/>
      <point x="322" y="310" type="qcurve" smooth="yes"/>
      <point x="322" y="236"/>
      <point x="407" y="167"/>
      <point x="492" y="167" type="qcurve" smooth="yes"/>
      <point x="573" y="167"/>
      <point x="724" y="255"/>
      <point x="773" y="315" type="qcurve"/>
      <point x="910" y="180" type="line"/>
      <point x="809" y="74"/>
      <point x="592" y="-20"/>
    </contour>
    <contour>
      <point x="371" y="557" type="qcurve"/>
      <point x="628" y="566" type="line"/>
      <point x="719" y="566"/>
      <point x="845" y="658"/>
      <point x="861" y="723" type="qcurve" smooth="yes"/>
      <point x="864" y="735"/>
      <point x="864" y="746" type="qcurve" smooth="yes"/>
      <point x="864" y="790"/>
      <point x="786" y="831"/>
      <point x="725" y="831" type="qcurve" smooth="yes"/>
      <point x="642" y="831"/>
      <point x="493" y="750"/>
      <point x="388" y="625"/>
    </contour>
  </outline>
</glyph>
<glyph name="oopen" format="2">
  <advance width="991"/>
  <unicode hex="0254"/>
  <outline>
    <contour>
      <point x="354" y="-20" type="qcurve" smooth="yes"/>
      <point x="252" y="-20"/>
      <point x="101" y="54"/>
      <point x="7" y="185"/>
      <point x="-10" y="270" type="qcurve"/>
      <point x="205" y="333" type="line"/>
      <point x="209" y="254"/>
      <point x="300" y="177"/>
      <point x="374" y="177" type="qcurve" smooth="yes"/>
      <point x="464" y="177"/>
      <point x="601" y="274"/>
      <point x="691" y="428"/>
      <point x="712" y="518" type="qcurve" smooth="yes"/>
      <point x="726" y="576"/>
      <point x="726" y="627" type="qcurve" smooth="yes"/>
      <point x="726" y="682"/>
      <point x="690" y="768"/>
      <point x="611" y="818"/>
      <point x="547" y="818" type="qcurve" smooth="yes"/>
      <point x="460" y="818"/>
      <point x="319" y="719"/>
      <point x="281" y="644" type="qcurve"/>
      <point x="106" y="738" type="line"/>
      <point x="189" y="879"/>
      <point x="431" y="1016"/>
      <point x="566" y="1016" type="qcurve" smooth="yes"/>
      <point x="692" y="1016"/>
      <point x="857" y="916"/>
      <point x="939" y="743"/>
      <point x="939" y="633" type="qcurve" smooth="yes"/>
      <point x="939" y="471"/>
      <point x="780" y="148"/>
      <point x="620" y="50" type="qcurve"/>
      <point x="502" y="-20"/>
    </contour>
  </outline>
</glyph>
<glyph name="colontriangularmod" format="2">
  <advance width="536"/>
  <unicode hex="02D0"/>
  <outline>
    <contour>
      <point x="274" y="558" type="line"/>
      <point x="29" y="999" type="line"/>
      <point x="501" y="1011" type="line"/>
    </contour>
    <contour>
      <point x="35" y="-12" type="line"/>
      <point x="262" y="441" type="line"/>
      <point x="507" y="0" type="line"/>
    </contour>
  </outline>
</glyph>
<glyph name="uni02F5" format="2">
  <advance width="1107"/>
  <unicode hex="02F5"/>
  <outline>
    <contour>
      <point x="896" y="685" type="line"/>
      <point x="721" y="685" type="line"/>
      <point x="704" y="704" type="line"/>
      <point x="717" y="685" type="line"/>
      <point x="542" y="685" type="line"/>
      <point x="255" y="999" type="line"/>
      <point x="675" y="999" type="line"/>
    </contour>
  </outline>
</glyph>
<glyph name="acutecmb" format="2">
  <unicode hex="0301"/>
  <anchor x="-217" y="999" name="_t.ringcmb_1"/>
  <outline>
    <contour>
      <point x="-182" y="1124" type="line"/>
      <point x="-352" y="1124" type="line"/>
      <point x="-61" y="1413" type="line"/>
      <point x="182" y="1413" type="line"/>
    </contour>
  </outline>
</glyph>
<glyph name="circumflexcmb" format="2">
  <unicode hex="0302"/>
  <anchor x="-264" y="999" name="_t.ringcmb_1"/>
  <outline>
    <contour>
      <point x="112" y="1098" type="line"/>
      <point x="-62" y="1098" type="line"/>
      <point x="-165" y="1256" type="line"/>
      <point x="-342" y="1098" type="line"/>
      <point x="-528" y="1098" type="line"/>
      <point x="-128" y="1451" type="line"/>
    </contour>
  </outline>
</glyph>
<glyph name="tildecmb" format="2">
  <unicode hex="0303"/>
  <anchor x="-273" y="1002" name="_t.ringcmb_1"/>
  <outline>
    <contour>
      <point x="-112" y="1134" type="qcurve" smooth="yes"/>
      <point x="-175" y="1134"/>
      <point x="-238" y="1186"/>
      <point x="-261" y="1229" type="qcurve"/>
      <point x="-277" y="1256"/>
      <point x="-303" y="1281"/>
      <point x="-321" y="1281" type="qcurve" smooth="yes"/>
      <point x="-358" y="1281"/>
      <point x="-418" y="1202"/>
      <point x="-434" y="1144" type="qcurve"/>
      <point x="-571" y="1144" type="line"/>
      <point x="-540" y="1285"/>
      <point x="-410" y="1419"/>
      <point x="-324" y="1419" type="qcurve" smooth="yes"/>
      <point x="-265" y="1419"/>
      <point x="-201" y="1367"/>
      <point x="-176" y="1324" type="qcurve" smooth="yes"/>
      <point x="-160" y="1297"/>
      <point x="-135" y="1272"/>
      <point x="-118" y="1272" type="qcurve" smooth="yes"/>
      <point x="-82" y="1272"/>
      <point x="-22" y="1352"/>
      <point x="-6" y="1413" type="qcurve"/>
      <point x="138" y="1413" type="line"/>
      <point x="105" y="1268"/>
      <point x="-25" y="1134"/>
    </contour>
  </outline>
</glyph>
<glyph name="macroncmb" format="2">
  <unicode hex="0304"/>
  <anchor x="-321" y="999" name="_t.ringcmb_1"/>
  <outline>
    <contour>
      <point x="5" y="1158" type="line"/>
      <point x="-548" y="1158" type="line"/>
      <point x="-516" y="1296" type="line"/>
      <point x="37" y="1296" type="line"/>
    </contour>
  </outline>
</glyph>
<glyph name="dotaccentcmb" format="2">
  <unicode hex="0307"/>
  <anchor x="-146" y="999" name="_t.ringcmb_1"/>
  <outline>
    <contour>
      <point x="18" y="1198" type="line"/>
      <point x="-212" y="1198" type="line"/>
      <point x="-163" y="1413" type="line"/>
      <point x="67" y="1413" type="line"/>
    </contour>
  </outline>
</glyph>
<glyph name="dieresiscmb" format="2">
  <unicode hex="0308"/>
  <anchor x="-301" y="999" name="_t.ringcmb_1"/>
  <outline>
    <contour>
      <point x="-335" y="1198" type="line"/>
      <point x="-529" y="1198" type="line"/>
      <point x="-480" y="1413" type="line"/>
      <point x="-286" y="1413" type="line"/>
    </contour>
    <contour>
      <point x="13" y="1198" type="line"/>
      <point x="-180" y="1198" type="line"/>
      <point x="-131" y="1413" type="line"/>
      <point x="63" y="1413" type="line"/>
    </contour>
  </outline>
</glyph>
<glyph name="caroncmb" format="2">
  <unicode hex="030C"/>
  <anchor x="-263" y="999" name="_t.ringcmb_1"/>
  <outline>
    <contour>
      <point x="-207" y="1080" type="line"/>
      <point x="-452" y="1412" type="line"/>
      <point x="-276" y="1412" type="line"/>
      <point x="-174" y="1262" type="line"/>
      <point x="5" y="1412" type="line"/>
      <point x="189" y="1412" type="line"/>
    </contour>
  </outline>
</glyph>
<glyph name="dblgravecmb" format="2">
  <unicode hex="030F"/>
  <anchor x="-206" y="999" name="_t.ringcmb_1"/>
  <outline>
    <contour>
      <point x="-268" y="1095" type="line"/>
      <point x="-439" y="1095" type="line"/>
      <point x="-658" y="1413" type="line"/>
      <point x="-417" y="1413" type="line"/>
    </contour>
    <contour>
      <point x="90" y="1095" type="line"/>
      <point x="-82" y="1095" type="line"/>
      <point x="-300" y="1413" type="line"/>
      <point x="-60" y="1413" type="line"/>
    </contour>
  </outline>
</glyph>
<glyph name="commaturnedabovecmb" format="2">
  <unicode hex="0312"/>
  <anchor x="-224" y="999" name="_t.ringcmb_1"/>
  <outline>
    <contour>
      <point x="-70" y="1121" type="line"/>
      <point x="-315" y="1121" type="line"/>
      <point x="7" y="1431" type="line"/>
      <point x="142" y="1431" type="line"/>
    </contour>
  </outline>
</glyph>
<glyph name="ogonekcmb" format="2">
  <unicode hex="0328"/>
  <anchor x="-298" y="0" name="_b.ogonekcmb_2"/>
  <outline>
    <contour>
      <point x="-476" y="-451" type="qcurve" smooth="yes"/>
      <point x="-559" y="-451"/>
      <point x="-662" y="-359"/>
      <point x="-662" y="-281" type="qcurve" smooth="yes"/>
      <point x="-662" y="-185"/>
      <point x="-593" y="-110" type="qcurve"/>
      <point x="-544" y="-59"/>
      <point x="-453" y="-4"/>
      <point x="-429" y="4" type="qcurve"/>
      <point x="-252" y="-3" type="line"/>
      <point x="-279" y="-12"/>
      <point x="-393" y="-70"/>
      <point x="-451" y="-121" type="qcurve" smooth="yes"/>
      <point x="-486" y="-153"/>
      <point x="-528" y="-232"/>
      <point x="-528" y="-266" type="qcurve" smooth="yes"/>
      <point x="-528" y="-312"/>
      <point x="-476" y="-312" type="qcurve" smooth="yes"/>
      <point x="-406" y="-312"/>
      <point x="-343" y="-246" type="qcurve"/>
      <point x="-244" y="-339" type="line"/>
      <point x="-342" y="-451"/>
    </contour>
  </outline>
</glyph>
<glyph name="pi" format="2">
  <advance width="1000"/>
  <unicode hex="03C0"/>
  <outline>
    <contour>
      <point x="725" y="-20" type="qcurve" smooth="yes"/>
      <point x="633" y="-20"/>
      <point x="538" y="87"/>
      <point x="538" y="167" type="qcurve" smooth="yes"/>
      <point x="538" y="201"/>
      <point x="547" y="238" type="qcurve" smooth="yes"/>
      <point x="678" y="812" type="line"/>
      <point x="434" y="812" type="line"/>
      <point x="248" y="0" type="line"/>
      <point x="60" y="0" type="line"/>
      <point x="246" y="812" type="line"/>
      <point x="164" y="812" type="line"/>
      <point x="207" y="999" type="line"/>
      <point x="991" y="999" type="line"/>
      <point x="948" y="812" type="line"/>
      <point x="866" y="812" type="line"/>
      <point x="736" y="244" type="line" smooth="yes"/>
      <point x="726" y="203"/>
      <point x="726" y="180" type="qcurve" smooth="yes"/>
      <point x="726" y="143"/>
      <point x="753" y="143" type="qcurve" smooth="yes"/>
      <point x="776" y="143"/>
      <point x="809" y="165" type="qcurve"/>
      <point x="842" y="8" type="line"/>
      <point x="793" y="-20"/>
    </contour>
  </outline>
</glyph>
<glyph name="afii10052" format="2">
  <advance width="1069"/>
  <unicode hex="0403"/>
  <outline>
    <contour>
      <point x="862" y="1537" type="line"/>
      <point x="699" y="1537" type="line"/>
      <point x="987" y="1825" type="line"/>
      <point x="1223" y="1825" type="line"/>
    </contour>
    <contour>
      <point x="302" y="0" type="line"/>
      <point x="78" y="0" type="line"/>
      <point x="403" y="1412" type="line"/>
      <point x="1245" y="1412" type="line"/>
      <point x="1198" y="1209" type="line"/>
      <point x="580" y="1209" type="line"/>
    </contour>
  </outline>
</glyph>
<glyph name="afii10056" format="2">
  <advance width="605"/>
  <unicode hex="0407"/>
  <outline>
    <contour>
      <point x="470" y="1576" type="line"/>
      <point x="281" y="1576" type="line"/>
      <point x="324" y="1762" type="line"/>
      <point x="513" y="1762" type="line"/>
    </contour>
    <contour>
      <point x="817" y="1576" type="line"/>
      <point x="628" y="1576" type="line"/>
      <point x="671" y="1762" type="line"/>
      <point x="860" y="1762" type="line"/>
    </contour>
    <contour>
      <point x="299" y="0" type="line"/>
      <point x="75" y="0" type="line"/>
      <point x="401" y="1412" type="line"/>
      <point x="625" y="1412" type="line"/>
    </contour>
  </outline>
</glyph>
<glyph name="afii10059" format="2">
  <advance width="2034"/>
  <unicode hex="040A"/>
  <outline>
    <contour>
      <point x="1383" y="0" type="qcurve" smooth="yes"/>
      <point x="949" y="0" type="line"/>
      <point x="1088" y="605" type="line"/>
      <point x="439" y="605" type="line"/>
      <point x="301" y="0" type="line"/>
      <point x="77" y="0" type="line"/>
      <point x="402" y="1412" type="line"/>
      <point x="626" y="1412" type="line"/>
      <point x="486" y="808" type="line"/>
      <point x="1135" y="808" type="line"/>
      <point x="1275" y="1412" type="line"/>
      <point x="1499" y="1412" type="line"/>
      <point x="1360" y="810" type="line"/>
      <point x="1559" y="810" type="line" smooth="yes"/>
      <point x="1676" y="810"/>
      <point x="1859" y="739"/>
      <point x="1964" y="598"/>
      <point x="1964" y="493" type="qcurve" smooth="yes"/>
      <point x="1964" y="406"/>
      <point x="1898" y="240"/>
      <point x="1843" y="179" type="qcurve" smooth="yes"/>
      <point x="1759" y="88"/>
      <point x="1520" y="0"/>
    </contour>
    <contour>
      <point x="1418" y="207" type="line" smooth="yes"/>
      <point x="1555" y="207"/>
      <point x="1715" y="326"/>
      <point x="1738" y="428" type="qcurve" smooth="yes"/>
      <point x="1744" y="454"/>
      <point x="1744" y="475" type="qcurve" smooth="yes"/>
      <point x="1744" y="603"/>
      <point x="1535" y="603" type="qcurve" smooth="yes"/>
      <point x="1312" y="603" type="line"/>
      <point x="1220" y="207" type="line"/>
    </contour>
  </outline>
</glyph>
<glyph name="uni040D" format="2">
  <advance width="1481"/>
  <unicode hex="040D"/>
  <outline>
    <contour>
      <point x="1099" y="1523" type="line"/>
      <point x="938" y="1523" type="line"/>
      <point x="720" y="1825" type="line"/>
      <point x="948" y="1825" type="line"/>
    </contour>
    <contour>
      <point x="1174" y="0" type="line"/>
      <point x="950" y="0" type="line"/>
      <point x="1196" y="1068"/>
      <point x="1207" y="1113" type="qcurve"/>
      <point x="345" y="0" type="line"/>
      <point x="78" y="0" type="line"/>
      <point x="403" y="1412" type="line"/>
      <point x="627" y="1412" type="line"/>
      <point x="386" y="366"/>
      <point x="368" y="294" type="qcurve"/>
      <point x="1233" y="1412" type="line"/>
      <point x="1500" y="1412" type="line"/>
    </contour>
  </outline>
</glyph>
<glyph name="afii10062" format="2">
  <advance width="1115"/>
  <unicode hex="040E"/>
  <outline>
    <contour>
      <point x="804" y="1555" type="qcurve" smooth="yes"/>
      <point x="668" y="1555"/>
      <point x="535" y="1663"/>
      <point x="535" y="1752" type="qcurve" smooth="yes"/>
      <point x="535" y="1782"/>
      <point x="545" y="1825" type="qcurve"/>
      <point x="697" y="1825" type="line"/>
      <point x="692" y="1800"/>
      <point x="692" y="1785" type="qcurve" smooth="yes"/>
      <point x="692" y="1733"/>
      <point x="759" y="1687"/>
      <point x="810" y="1687" type="qcurve" smooth="yes"/>
      <point x="882" y="1687"/>
      <point x="994" y="1765"/>
      <point x="1011" y="1825" type="qcurve"/>
      <point x="1163" y="1825" type="line"/>
      <point x="1104" y="1555"/>
    </contour>
    <contour>
      <point x="357" y="0" type="line"/>
      <point x="117" y="0" type="line"/>
      <point x="418" y="457" type="line"/>
      <point x="243" y="1412" type="line"/>
      <point x="477" y="1412" type="line"/>
      <point x="590" y="700" type="line"/>
      <point x="1054" y="1412" type="line"/>
      <point x="1298" y="1412" type="line"/>
    </contour>
  </outline>
</glyph>
<glyph name="Acyrillic" format="2">
  <advance width="1331"/>
  <unicode hex="0410"/>
  <outline>
    <contour>
      <point x="1186" y="0" type="line"/>
      <point x="948" y="0" type="line"/>
      <point x="909" y="307" type="line"/>
      <point x="339" y="307" type="line"/>
      <point x="159" y="0" type="line"/>
      <point x="-89" y="0" type="line"/>
      <point x="791" y="1412" type="line"/>
      <point x="960" y="1412" type="line"/>
    </contour>
    <contour>
      <point x="880" y="502" type="line"/>
      <point x="806" y="1083" type="line"/>
      <point x="460" y="502" type="line"/>
    </contour>
  </outline>
</glyph>
<glyph name="afii10018" format="2">
  <advance width="1267"/>
  <unicode hex="0411"/>
  <outline>
    <contour>
      <point x="607" y="0" type="qcurve" smooth="yes"/>
      <point x="78" y="0" type="line"/>
      <point x="403" y="1412" type="line"/>
      <point x="1203" y="1412" type="line"/>
      <point x="1156" y="1209" type="line"/>
      <point x="580" y="1209" type="line"/>
      <point x="493" y="828" type="line"/>
      <point x="797" y="828" type="line" smooth="yes"/>
      <point x="924" y="828"/>
      <point x="1086" y="750"/>
      <point x="1163" y="610"/>
      <point x="1163" y="517" type="qcurve" smooth="yes"/>
      <point x="1163" y="457"/>
      <point x="1146" y="383" type="qcurve"/>
      <point x="1099" y="199"/>
      <point x="794" y="0"/>
    </contour>
    <contour>
      <point x="648" y="212" type="line" smooth="yes"/>
      <point x="751" y="212"/>
      <point x="911" y="332"/>
      <point x="941" y="446" type="qcurve"/>
      <point x="946" y="469"/>
      <point x="946" y="486" type="qcurve" smooth="yes"/>
      <point x="946" y="551"/>
      <point x="843" y="632"/>
      <point x="751" y="632" type="qcurve" smooth="yes"/>
      <point x="446" y="632" type="line"/>
      <point x="350" y="212" type="line"/>
    </contour>
  </outline>
</glyph>
<glyph name="afii10020" format="2">
  <advance width="1069"/>
  <unicode hex="0413"/>
  <outline>
    <contour>
      <point x="302" y="0" type="line"/>
      <point x="78" y="0" type="line"/>
      <point x="403" y="1412" type="line"/>
      <point x="1245" y="1412" type="line"/>
      <point x="1198" y="1209" type="line"/>
      <point x="580" y="1209" type="line"/>
    </contour>
  </outline>
</glyph>
<glyph name="afii10021" format="2">
  <advance width="1471"/>
  <unicode hex="0414"/>
  <outline>
    <contour>
      <point x="1256" y="-290" type="line"/>
      <point x="1032" y="-290" type="line"/>
      <point x="1100" y="0" type="line"/>
      <point x="141" y="0" type="line"/>
      <point x="73" y="-290" type="line"/>
      <point x="-151" y="-290" type="line"/>
      <point x="-37" y="203" type="line"/>
      <point x="103" y="203" type="line"/>
      <point x="856" y="1413" type="line"/>
      <point x="1029" y="1413" type="line"/>
      <point x="1225" y="203" type="line"/>
      <point x="1370" y="203" type="line"/>
    </contour>
    <contour>
      <point x="987" y="203" type="line"/>
      <point x="868" y="1064" type="line"/>
      <point x="346" y="203" type="line"/>
    </contour>
  </outline>
</glyph>
<glyph name="afii10025" format="2">
  <advance width="1112"/>
  <unicode hex="0417"/>
  <outline>
    <contour>
      <point x="402" y="-20" type="qcurve" smooth="yes"/>
      <point x="258" y="-20"/>
      <point x="33" y="94"/>
      <point x="-10" y="207" type="qcurve"/>
      <point x="189" y="308" type="line"/>
      <point x="206" y="236"/>
      <point x="328" y="177"/>
      <point x="422" y="177" type="qcurve" smooth="yes"/>
      <point x="544" y="177"/>
      <point x="749" y="311"/>
      <point x="782" y="439" type="qcurve"/>
      <point x="788" y="466"/>
      <point x="788" y="491" type="qcurve" smooth="yes"/>
      <point x="788" y="574"/>
      <point x="654" y="653"/>
      <point x="550" y="653" type="qcurve" smooth="yes"/>
      <point x="402" y="653" type="line"/>
      <point x="444" y="846" type="line"/>
      <point x="588" y="846" type="line" smooth="yes"/>
      <point x="681" y="846"/>
      <point x="837" y="956"/>
      <point x="863" y="1055" type="qcurve"/>
      <point x="868" y="1080"/>
      <point x="868" y="1098" type="qcurve" smooth="yes"/>
      <point x="868" y="1165"/>
      <point x="770" y="1232"/>
      <point x="695" y="1232" type="qcurve" smooth="yes"/>
      <point x="608" y="1232"/>
      <point x="458" y="1143"/>
      <point x="428" y="1065" type="qcurve"/>
      <point x="210" y="1084" type="line"/>
      <point x="264" y="1256"/>
      <point x="552" y="1434"/>
      <point x="714" y="1434" type="qcurve" smooth="yes"/>
      <point x="814" y="1434"/>
      <point x="980" y="1364"/>
      <point x="1080" y="1227"/>
      <point x="1080" y="1127" type="qcurve" smooth="yes"/>
      <point x="1080" y="1069"/>
      <point x="1038" y="931"/>
      <point x="990" y="870" type="qcurve"/>
      <point x="931" y="798"/>
      <point x="838" y="756" type="qcurve"/>
      <point x="909" y="731"/>
      <point x="1005" y="602"/>
      <point x="1005" y="495" type="qcurve" smooth="yes"/>
      <point x="1005" y="440"/>
      <point x="991" y="383" type="qcurve" smooth="yes"/>
      <point x="957" y="247"/>
      <point x="781" y="68"/>
      <point x="535" y="-20"/>
    </contour>
  </outline>
</glyph>
<glyph name="afii10026" format="2">
  <advance width="1445"/>
  <unicode hex="0418"/>
  <outline>
    <contour>
      <point x="1138" y="0" type="line"/>
      <point x="921" y="0" type="line"/>
      <point x="1166" y="1066" type="line"/>
      <point x="323" y="0" type="line"/>
      <point x="78" y="0" type="line"/>
      <point x="403" y="1413" type="line"/>
      <point x="620" y="1413" type="line"/>
      <point x="375" y="349" type="line"/>
      <point x="1221" y="1413" type="line"/>
      <point x="1463" y="1413" type="line"/>
    </contour>
  </outline>
</glyph>
<glyph name="afii10029" format="2">
  <advance width="1338"/>
  <unicode hex="041B"/>
  <outline>
    <contour>
      <point x="1193" y="0" type="line"/>
      <point x="952" y="0" type="line"/>
      <point x="803" y="1064" type="line"/>
      <point x="159" y="0" type="line"/>
      <point x="-89" y="0" type="line"/>
      <point x="790" y="1413" type="line"/>
      <point x="964" y="1413" type="line"/>
    </contour>
  </outline>
</glyph>
<glyph name="afii10035" format="2">
  <advance width="1431"/>
  <unicode hex="0421"/>
  <outline>
    <contour>
      <point x="657" y="-20" type="qcurve" smooth="yes"/>
      <point x="475" y="-20"/>
      <point x="237" y="114"/>
      <point x="121" y="351"/>
      <point x="121" y="504" type="qcurve" smooth="yes"/>
      <point x="121" y="650"/>
      <point x="215" y="955"/>
      <point x="302" y="1084" type="qcurve" smooth="yes"/>
      <point x="411" y="1245"/>
      <point x="750" y="1436"/>
      <point x="965" y="1436" type="qcurve" smooth="yes"/>
      <point x="1184" y="1436"/>
      <point x="1448" y="1219"/>
      <point x="1488" y="1030" type="qcurve"/>
      <point x="1267" y="965" type="line"/>
      <point x="1252" y="1224"/>
      <point x="940" y="1224" type="qcurve" smooth="yes"/>
      <point x="784" y="1224"/>
      <point x="550" y="1084"/>
      <point x="397" y="846"/>
      <point x="363" y="697" type="qcurve" smooth="yes"/>
      <point x="341" y="600"/>
      <point x="341" y="522" type="qcurve" smooth="yes"/>
      <point x="341" y="368"/>
      <point x="507" y="191"/>
      <point x="680" y="191" type="qcurve" smooth="yes"/>
      <point x="833" y="191"/>
      <point x="1066" y="333"/>
      <point x="1151" y="472" type="qcurve"/>
      <point x="1340" y="369" type="line"/>
      <point x="1207" y="170"/>
      <point x="853" y="-20"/>
    </contour>
  </outline>
</glyph>
<glyph name="afii10037" format="2">
  <advance width="1115"/>
  <unicode hex="0423"/>
  <outline>
    <contour>
      <point x="357" y="0" type="line"/>
      <point x="117" y="0" type="line"/>
      <point x="418" y="457" type="line"/>
      <point x="243" y="1412" type="line"/>
      <point x="477" y="1412" type="line"/>
      <point x="590" y="700" type="line"/>
      <point x="1054" y="1412" type="line"/>
      <point x="1298" y="1412" type="line"/>
    </contour>
  </outline>
</glyph>
<glyph name="afii10038" format="2">
  <advance width="1756"/>
  <unicode hex="0424"/>
  <outline>
    <contour>
      <point x="876" y="0" type="line"/>
      <point x="650" y="0" type="line"/>
      <point x="681" y="106" type="line"/>
      <point x="497" y="106"/>
      <point x="251" y="214"/>
      <point x="127" y="414"/>
      <point x="127" y="551" type="qcurve" smooth="yes"/>
      <point x="127" y="628"/>
      <point x="149" y="725" type="qcurve" smooth="yes"/>
      <point x="189" y="898"/>
      <point x="392" y="1161"/>
      <point x="721" y="1311"/>
      <point x="947" y="1311" type="qcurve"/>
      <point x="977" y="1412" type="line"/>
      <point x="1201" y="1412" type="line"/>
      <point x="1171" y="1311" type="line"/>
      <point x="1356" y="1311"/>
      <point x="1601" y="1201"/>
      <point x="1724" y="997"/>
      <point x="1724" y="858" type="qcurve" smooth="yes"/>
      <point x="1724" y="743"/>
      <point x="1643" y="486"/>
      <point x="1559" y="378" type="qcurve"/>
      <point x="1459" y="252"/>
      <point x="1133" y="106"/>
      <point x="905" y="106" type="qcurve"/>
    </contour>
    <contour>
      <point x="714" y="307" type="qcurve"/>
      <point x="913" y="1111" type="line"/>
      <point x="767" y="1111"/>
      <point x="546" y="1005"/>
      <point x="402" y="814"/>
      <point x="373" y="685" type="qcurve"/>
      <point x="358" y="625"/>
      <point x="358" y="572" type="qcurve" smooth="yes"/>
      <point x="358" y="449"/>
      <point x="530" y="307"/>
    </contour>
    <contour>
      <point x="938" y="307" type="line"/>
      <point x="1158" y="307"/>
      <point x="1434" y="531"/>
      <point x="1480" y="725" type="qcurve" smooth="yes"/>
      <point x="1493" y="781"/>
      <point x="1493" y="834" type="qcurve" smooth="yes"/>
      <point x="1493" y="918"/>
      <point x="1418" y="1042"/>
      <point x="1261" y="1111"/>
      <point x="1137" y="1111" type="qcurve"/>
    </contour>
  </outline>
</glyph>
<glyph name="afii10040" format="2">
  <advance width="1513"/>
  <unicode hex="0426"/>
  <outline>
    <contour>
      <point x="1255" y="-290" type="line"/>
      <point x="1032" y="-290" type="line"/>
      <point x="1100" y="0" type="line"/>
      <point x="78" y="0" type="line"/>
      <point x="403" y="1412" type="line"/>
      <point x="627" y="1412" type="line"/>
      <point x="348" y="203" type="line"/>
      <point x="996" y="203" type="line"/>
      <point x="1276" y="1412" type="line"/>
      <point x="1500" y="1412" type="line"/>
      <point x="1220" y="203" type="line"/>
      <point x="1369" y="203" type="line"/>
    </contour>
  </outline>
</glyph>
<glyph name="afii10042" format="2">
  <advance width="1786"/>
  <unicode hex="0428"/>
  <outline>
    <contour>
      <point x="1479" y="0" type="line"/>
      <point x="78" y="0" type="line"/>
      <point x="403" y="1412" type="line"/>
      <point x="627" y="1412" type="line"/>
      <point x="348" y="203" type="line"/>
      <point x="712" y="203" type="line"/>
      <point x="991" y="1412" type="line"/>
      <point x="1215" y="1412" type="line"/>
      <point x="936" y="203" type="line"/>
      <point x="1302" y="203" type="line"/>
      <point x="1581" y="1412" type="line"/>
      <point x="1805" y="1412" type="line"/>
    </contour>
  </outline>
</glyph>
<glyph name="afii10043" format="2">
  <advance width="1817"/>
  <unicode hex="0429"/>
  <outline>
    <contour>
      <point x="1560" y="-290" type="line"/>
      <point x="1336" y="-290" type="line"/>
      <point x="1404" y="0" type="line"/>
      <point x="77" y="0" type="line"/>
      <point x="402" y="1412" type="line"/>
      <point x="626" y="1412" type="line"/>
      <point x="347" y="203" type="line"/>
      <point x="711" y="203" type="line"/>
      <point x="990" y="1412" type="line"/>
      <point x="1214" y="1412" type="line"/>
      <point x="935" y="203" type="line"/>
      <point x="1300" y="203" type="line"/>
      <point x="1580" y="1412" type="line"/>
      <point x="1804" y="1412" type="line"/>
      <point x="1524" y="203" type="line"/>
      <point x="1673" y="203" type="line"/>
    </contour>
  </outline>
</glyph>
<glyph name="afii10044" format="2">
  <advance width="1393"/>
  <unicode hex="042A"/>
  <outline>
    <contour>
      <point x="743" y="0" type="qcurve" smooth="yes"/>
      <point x="309" y="0" type="line"/>
      <point x="589" y="1215" type="line"/>
      <point x="198" y="1215" type="line"/>
      <point x="244" y="1412" type="line"/>
      <point x="857" y="1412" type="line"/>
      <point x="718" y="810" type="line"/>
      <point x="918" y="810" type="line" smooth="yes"/>
      <point x="1036" y="810"/>
      <point x="1219" y="739"/>
      <point x="1324" y="599"/>
      <point x="1324" y="493" type="qcurve" smooth="yes"/>
      <point x="1324" y="406"/>
      <point x="1258" y="240"/>
      <point x="1203" y="179" type="qcurve" smooth="yes"/>
      <point x="1119" y="88"/>
      <point x="880" y="0"/>
    </contour>
    <contour>
      <point x="778" y="207" type="line" smooth="yes"/>
      <point x="915" y="207"/>
      <point x="1075" y="326"/>
      <point x="1098" y="428" type="qcurve" smooth="yes"/>
      <point x="1104" y="454"/>
      <point x="1104" y="475" type="qcurve" smooth="yes"/>
      <point x="1104" y="603"/>
      <point x="895" y="603" type="qcurve" smooth="yes"/>
      <point x="670" y="603" type="line"/>
      <point x="578" y="207" type="line"/>
    </contour>
  </outline>
</glyph>
<glyph name="afii10045" format="2">
  <advance width="1708"/>
  <unicode hex="042B"/>
  <outline>
    <contour>
      <point x="510" y="0" type="qcurve" smooth="yes"/>
      <point x="77" y="0" type="line"/>
      <point x="402" y="1412" type="line"/>
      <point x="625" y="1412" type="line"/>
      <point x="486" y="810" type="line"/>
      <point x="686" y="810" type="line" smooth="yes"/>
      <point x="804" y="810"/>
      <point x="987" y="739"/>
      <point x="1092" y="599"/>
      <point x="1092" y="493" type="qcurve" smooth="yes"/>
      <point x="1092" y="406"/>
      <point x="1026" y="240"/>
      <point x="971" y="179" type="qcurve"/>
      <point x="886" y="88"/>
      <point x="647" y="0"/>
    </contour>
    <contour>
      <point x="1402" y="0" type="line"/>
      <point x="1178" y="0" type="line"/>
      <point x="1504" y="1412" type="line"/>
      <point x="1727" y="1412" type="line"/>
    </contour>
    <contour>
      <point x="545" y="207" type="line" smooth="yes"/>
      <point x="681" y="207"/>
      <point x="843" y="326"/>
      <point x="866" y="428" type="qcurve" smooth="yes"/>
      <point x="872" y="454"/>
      <point x="872" y="474" type="qcurve" smooth="yes"/>
      <point x="872" y="542"/>
      <point x="759" y="603"/>
      <point x="649" y="603" type="qcurve" smooth="yes"/>
      <point x="438" y="603" type="line"/>
      <point x="346" y="207" type="line"/>
    </contour>
  </outline>
</glyph>
<glyph name="afii10049" format="2">
  <advance width="1248"/>
  <unicode hex="042F"/>
  <outline>
    <contour>
      <point x="939" y="-2" type="line"/>
      <point x="715" y="-2" type="line"/>
      <point x="854" y="613" type="line"/>
      <point x="661" y="613" type="line"/>
      <point x="186" y="-2" type="line"/>
      <point x="-80" y="-2" type="line"/>
      <point x="449" y="633" type="line"/>
      <point x="355" y="671"/>
      <point x="265" y="840"/>
      <point x="265" y="944" type="qcurve" smooth="yes"/>
      <point x="265" y="998"/>
      <point x="277" y="1050" type="qcurve" smooth="yes"/>
      <point x="321" y="1240"/>
      <point x="618" y="1413"/>
      <point x="830" y="1413" type="qcurve" smooth="yes"/>
      <point x="1264" y="1413" type="line"/>
    </contour>
    <contour>
      <point x="897" y="801" type="line"/>
      <point x="991" y="1212" type="line"/>
      <point x="767" y="1212" type="line" smooth="yes"/>
      <point x="655" y="1212"/>
      <point x="503" y="1114"/>
      <point x="480" y="1021" type="qcurve" smooth="yes"/>
      <point x="473" y="993"/>
      <point x="473" y="966" type="qcurve" smooth="yes"/>
      <point x="473" y="890"/>
      <point x="576" y="805"/>
      <point x="665" y="801" type="qcurve"/>
    </contour>
  </outline>
</glyph>
<glyph name="afii10067" format="2">
  <advance width="1188"/>
  <unicode hex="0432"/>
  <outline>
    <contour>
      <point x="520" y="-20" type="qcurve" smooth="yes"/>
      <point x="403" y="-20"/>
      <point x="212" y="50"/>
      <point x="99" y="198"/>
      <point x="99" y="316" type="qcurve" smooth="yes"/>
      <point x="99" y="373"/>
      <point x="114" y="440" type="qcurve" smooth="yes"/>
      <point x="239" y="980" type="line" smooth="yes"/>
      <point x="297" y="1231"/>
      <point x="612" y="1434"/>
      <point x="825" y="1434" type="qcurve" smooth="yes"/>
      <point x="926" y="1434"/>
      <point x="1087" y="1368"/>
      <point x="1180" y="1238"/>
      <point x="1180" y="1140" type="qcurve" smooth="yes"/>
      <point x="1180" y="1007"/>
      <point x="1094" y="891" type="qcurve" smooth="yes"/>
      <point x="1037" y="816"/>
      <point x="952" y="769" type="qcurve"/>
      <point x="1023" y="737"/>
      <point x="1088" y="609"/>
      <point x="1088" y="526" type="qcurve" smooth="yes"/>
      <point x="1088" y="470"/>
      <point x="1072" y="400" type="qcurve"/>
      <point x="1021" y="191"/>
      <point x="718" y="-20"/>
    </contour>
    <contour>
      <point x="537" y="177" type="qcurve" smooth="yes"/>
      <point x="673" y="177"/>
      <point x="833" y="326"/>
      <point x="861" y="452" type="qcurve" smooth="yes"/>
      <point x="870" y="491"/>
      <point x="870" y="522" type="qcurve" smooth="yes"/>
      <point x="870" y="600"/>
      <point x="770" y="673"/>
      <point x="682" y="673" type="qcurve" smooth="yes"/>
      <point x="577" y="673"/>
      <point x="485" y="618" type="qcurve"/>
      <point x="522" y="821" type="line"/>
      <point x="587" y="860"/>
      <point x="718" y="860" type="qcurve"/>
      <point x="814" y="863"/>
      <point x="938" y="979"/>
      <point x="958" y="1065" type="qcurve" smooth="yes"/>
      <point x="964" y="1092"/>
      <point x="964" y="1114" type="qcurve" smooth="yes"/>
      <point x="964" y="1232"/>
      <point x="806" y="1232" type="qcurve" smooth="yes"/>
      <point x="673" y="1232"/>
      <point x="484" y="1099"/>
      <point x="442" y="916" type="qcurve" smooth="yes"/>
      <point x="329" y="433" type="line" smooth="yes"/>
      <point x="319" y="389"/>
      <point x="319" y="349" type="qcurve" smooth="yes"/>
      <point x="319" y="177"/>
    </contour>
  </outline>
</glyph>
<glyph name="afii10068" format="2">
  <advance width="899"/>
  <unicode hex="0433"/>
  <outline>
    <contour>
      <point x="339" y="-20" type="qcurve" smooth="yes"/>
      <point x="255" y="-20"/>
      <point x="109" y="35"/>
      <point x="18" y="149"/>
      <point x="18" y="236" type="qcurve" smooth="yes"/>
      <point x="18" y="299"/>
      <point x="64" y="424"/>
      <point x="110" y="471" type="qcurve" smooth="yes"/>
      <point x="166" y="527"/>
      <point x="310" y="593"/>
      <point x="419" y="624" type="qcurve" smooth="yes"/>
      <point x="493" y="645"/>
      <point x="581" y="680"/>
      <point x="641" y="728"/>
      <point x="649" y="765" type="qcurve"/>
      <point x="651" y="781" type="line"/>
      <point x="651" y="811"/>
      <point x="590" y="839"/>
      <point x="539" y="839" type="qcurve" smooth="yes"/>
      <point x="396" y="839"/>
      <point x="296" y="707" type="qcurve"/>
      <point x="157" y="811" type="line"/>
      <point x="226" y="901"/>
      <point x="427" y="1014"/>
      <point x="556" y="1014" type="qcurve" smooth="yes"/>
      <point x="634" y="1014"/>
      <point x="768" y="961"/>
      <point x="850" y="854"/>
      <point x="850" y="774" type="qcurve" smooth="yes"/>
      <point x="850" y="717"/>
      <point x="806" y="598"/>
      <point x="764" y="556" type="qcurve" smooth="yes"/>
      <point x="712" y="504"/>
      <point x="575" y="444"/>
      <point x="470" y="416" type="qcurve" smooth="yes"/>
      <point x="393" y="395"/>
      <point x="301" y="361"/>
      <point x="237" y="308"/>
      <point x="228" y="266" type="qcurve"/>
      <point x="225" y="256"/>
      <point x="225" y="245" type="qcurve" smooth="yes"/>
      <point x="225" y="208"/>
      <point x="294" y="160"/>
      <point x="364" y="160" type="qcurve" smooth="yes"/>
      <point x="455" y="160"/>
      <point x="596" y="267"/>
      <point x="637" y="339" type="qcurve"/>
      <point x="793" y="240" type="line"/>
      <point x="728" y="125"/>
      <point x="484" y="-20"/>
    </contour>
  </outline>
</glyph>
<glyph name="afii10074" format="2">
  <advance width="1153"/>
  <unicode hex="0438"/>
  <outline>
    <contour>
      <point x="378" y="-23" type="qcurve" smooth="yes"/>
      <point x="231" y="-23"/>
      <point x="89" y="147"/>
      <point x="89" y="283" type="qcurve" smooth="yes"/>
      <point x="89" y="345"/>
      <point x="105" y="419" type="qcurve"/>
      <point x="239" y="999" type="line"/>
      <point x="456" y="999" type="line"/>
      <point x="320" y="408" type="line"/>
      <point x="305" y="346"/>
      <point x="305" y="304" type="qcurve" smooth="yes"/>
      <point x="305" y="243"/>
      <point x="371" y="177"/>
      <point x="444" y="177" type="qcurve" smooth="yes"/>
      <point x="515" y="177"/>
      <point x="651" y="243"/>
      <point x="756" y="384"/>
      <point x="782" y="495" type="qcurve" smooth="yes"/>
      <point x="898" y="999" type="line"/>
      <point x="1115" y="999" type="line"/>
      <point x="885" y="0" type="line"/>
      <point x="673" y="0" type="line"/>
      <point x="701" y="125" type="line"/>
      <point x="638" y="57"/>
      <point x="468" y="-23"/>
    </contour>
  </outline>
</glyph>
<glyph name="afii10075" format="2">
  <advance width="1187"/>
  <unicode hex="0439"/>
  <outline>
    <contour>
      <point x="756" y="1143" type="qcurve" smooth="yes"/>
      <point x="619" y="1143"/>
      <point x="487" y="1252"/>
      <point x="487" y="1342" type="qcurve" smooth="yes"/>
      <point x="487" y="1375"/>
      <point x="496" y="1413" type="qcurve"/>
      <point x="649" y="1413" type="line"/>
      <point x="644" y="1388"/>
      <point x="644" y="1372" type="qcurve" smooth="yes"/>
      <point x="644" y="1320"/>
      <point x="710" y="1274"/>
      <point x="760" y="1274" type="qcurve" smooth="yes"/>
      <point x="835" y="1274"/>
      <point x="946" y="1355"/>
      <point x="962" y="1413" type="qcurve"/>
      <point x="1115" y="1413" type="line"/>
      <point x="1055" y="1143"/>
    </contour>
    <contour>
      <point x="410" y="-23" type="qcurve" smooth="yes"/>
      <point x="262" y="-23"/>
      <point x="121" y="146"/>
      <point x="121" y="282" type="qcurve" smooth="yes"/>
      <point x="121" y="352"/>
      <point x="137" y="419" type="qcurve" smooth="yes"/>
      <point x="270" y="999" type="line"/>
      <point x="487" y="999" type="line"/>
      <point x="351" y="408" type="line" smooth="yes"/>
      <point x="337" y="347"/>
      <point x="337" y="301" type="qcurve" smooth="yes"/>
      <point x="337" y="241"/>
      <point x="395" y="177"/>
      <point x="460" y="177" type="qcurve" smooth="yes"/>
      <point x="540" y="177"/>
      <point x="686" y="260"/>
      <point x="787" y="384"/>
      <point x="803" y="450" type="qcurve"/>
      <point x="929" y="999" type="line"/>
      <point x="1146" y="999" type="line"/>
      <point x="916" y="0" type="line"/>
      <point x="700" y="0" type="line"/>
      <point x="732" y="125" type="line"/>
      <point x="670" y="59"/>
      <point x="500" y="-23"/>
    </contour>
  </outline>
</glyph>
<glyph name="afii10077" format="2">
  <advance width="983"/>
  <unicode hex="043B"/>
  <outline>
    <contour>
      <point x="863" y="0" type="line"/>
      <point x="632" y="0" type="line"/>
      <point x="548" y="722" type="line"/>
      <point x="126" y="0" type="line"/>
      <point x="-110" y="0" type="line"/>
      <point x="517" y="999" type="line"/>
      <point x="696" y="999" type="line"/>
    </contour>
  </outline>
</glyph>
<glyph name="afii10081" format="2">
  <advance width="1157"/>
  <unicode hex="043F"/>
  <outline>
    <contour>
      <point x="915" y="0" type="line"/>
      <point x="698" y="0" type="line"/>
      <point x="833" y="585" type="line" smooth="yes"/>
      <point x="848" y="648"/>
      <point x="848" y="691" type="qcurve" smooth="yes"/>
      <point x="848" y="815"/>
      <point x="723" y="815" type="qcurve" smooth="yes"/>
      <point x="645" y="815"/>
      <point x="501" y="734"/>
      <point x="399" y="611"/>
      <point x="382" y="544" type="qcurve"/>
      <point x="258" y="0" type="line"/>
      <point x="41" y="0" type="line"/>
      <point x="270" y="999" type="line"/>
      <point x="487" y="999" type="line"/>
      <point x="456" y="877" type="line"/>
      <point x="529" y="951"/>
      <point x="697" y="1016"/>
      <point x="776" y="1016" type="qcurve" smooth="yes"/>
      <point x="925" y="1016"/>
      <point x="1067" y="853"/>
      <point x="1067" y="722" type="qcurve" smooth="yes"/>
      <point x="1067" y="659"/>
      <point x="1052" y="594" type="qcurve" smooth="yes"/>
    </contour>
  </outline>
</glyph>
<glyph name="afii10086" format="2">
  <advance width="1463"/>
  <unicode hex="0444"/>
  <outline>
    <contour>
      <point x="624" y="-430" type="line"/>
      <point x="409" y="-430" type="line"/>
      <point x="511" y="-18" type="line"/>
      <point x="494" y="-20"/>
      <point x="460" y="-20" type="qcurve" smooth="yes"/>
      <point x="328" y="-20"/>
      <point x="144" y="87"/>
      <point x="48" y="270"/>
      <point x="48" y="384" type="qcurve" smooth="yes"/>
      <point x="48" y="561"/>
      <point x="243" y="860"/>
      <point x="399" y="944" type="qcurve"/>
      <point x="526" y="1010"/>
      <point x="668" y="1010" type="qcurve" smooth="yes"/>
      <point x="702" y="1010"/>
      <point x="735" y="1005" type="qcurve"/>
      <point x="835" y="1412" type="line"/>
      <point x="1050" y="1412" type="line"/>
      <point x="949" y="1009" type="line"/>
      <point x="967" y="1012"/>
      <point x="1000" y="1012" type="qcurve" smooth="yes"/>
      <point x="1133" y="1012"/>
      <point x="1317" y="905"/>
      <point x="1412" y="721"/>
      <point x="1412" y="607" type="qcurve" smooth="yes"/>
      <point x="1412" y="511"/>
      <point x="1345" y="316"/>
      <point x="1276" y="227" type="qcurve" smooth="yes"/>
      <point x="1190" y="116"/>
      <point x="938" y="-20"/>
      <point x="788" y="-20" type="qcurve" smooth="yes"/>
      <point x="763" y="-20"/>
      <point x="730" y="-15" type="qcurve"/>
      <point x="726" y="-14" type="line"/>
    </contour>
    <contour>
      <point x="478" y="166" type="qcurve" smooth="yes"/>
      <point x="515" y="166"/>
      <point x="543" y="172" type="qcurve"/>
      <point x="705" y="823" type="line"/>
      <point x="688" y="825"/>
      <point x="654" y="825" type="qcurve" smooth="yes"/>
      <point x="556" y="825"/>
      <point x="408" y="730"/>
      <point x="311" y="573"/>
      <point x="289" y="476" type="qcurve"/>
      <point x="276" y="423"/>
      <point x="276" y="368" type="qcurve" smooth="yes"/>
      <point x="276" y="277"/>
      <point x="370" y="166"/>
    </contour>
    <contour>
      <point x="806" y="166" type="line" smooth="yes"/>
      <point x="904" y="166"/>
      <point x="1052" y="260"/>
      <point x="1149" y="419"/>
      <point x="1172" y="516" type="qcurve" smooth="yes"/>
      <point x="1185" y="570"/>
      <point x="1185" y="622" type="qcurve" smooth="yes"/>
      <point x="1185" y="715"/>
      <point x="1087" y="825"/>
      <point x="982" y="825" type="qcurve" smooth="yes"/>
      <point x="958" y="825"/>
      <point x="920" y="819" type="qcurve"/>
      <point x="756" y="168" type="line"/>
      <point x="765" y="166"/>
      <point x="777" y="166" type="qcurve" smooth="yes"/>
    </contour>
  </outline>
</glyph>
<glyph name="afii10091" format="2">
  <advance width="1753"/>
  <unicode hex="0449"/>
  <outline>
    <contour>
      <point x="1497" y="-307" type="line"/>
      <point x="1319" y="-307" type="line"/>
      <point x="1391" y="-23" type="line"/>
      <point x="1345" y="-23"/>
      <point x="1275" y="59"/>
      <point x="1275" y="119" type="qcurve"/>
      <point x="1276" y="136" type="line"/>
      <point x="1212" y="57"/>
      <point x="1064" y="-18"/>
      <point x="995" y="-18" type="qcurve" smooth="yes"/>
      <point x="889" y="-18"/>
      <point x="761" y="74"/>
      <point x="735" y="151" type="qcurve"/>
      <point x="657" y="63"/>
      <point x="473" y="-16"/>
      <point x="378" y="-16" type="qcurve" smooth="yes"/>
      <point x="229" y="-16"/>
      <point x="85" y="149"/>
      <point x="85" y="280" type="qcurve" smooth="yes"/>
      <point x="85" y="343"/>
      <point x="100" y="406" type="qcurve" smooth="yes"/>
      <point x="237" y="999" type="line"/>
      <point x="454" y="999" type="line"/>
      <point x="319" y="414" type="line" smooth="yes"/>
      <point x="305" y="355"/>
      <point x="305" y="308" type="qcurve" smooth="yes"/>
      <point x="305" y="245"/>
      <point x="364" y="178"/>
      <point x="430" y="178" type="qcurve" smooth="yes"/>
      <point x="504" y="178"/>
      <point x="628" y="257"/>
      <point x="713" y="382"/>
      <point x="730" y="454" type="qcurve" smooth="yes"/>
      <point x="855" y="999" type="line"/>
      <point x="1073" y="999" type="line"/>
      <point x="936" y="410" type="line"/>
      <point x="922" y="344"/>
      <point x="922" y="304" type="qcurve" smooth="yes"/>
      <point x="922" y="243"/>
      <point x="981" y="178"/>
      <point x="1047" y="178" type="qcurve" smooth="yes"/>
      <point x="1121" y="178"/>
      <point x="1245" y="257"/>
      <point x="1330" y="383"/>
      <point x="1347" y="454" type="qcurve"/>
      <point x="1471" y="999" type="line"/>
      <point x="1688" y="999" type="line"/>
      <point x="1509" y="225" type="line" smooth="yes"/>
      <point x="1504" y="205"/>
      <point x="1504" y="183" type="qcurve" smooth="yes"/>
      <point x="1504" y="133"/>
      <point x="1569" y="87"/>
      <point x="1622" y="87" type="qcurve"/>
    </contour>
  </outline>
</glyph>
<glyph name="afii10094" format="2">
  <advance width="1121"/>
  <unicode hex="044C"/>
  <outline>
    <contour>
      <point x="474" y="-20" type="qcurve" smooth="yes"/>
      <point x="353" y="-20"/>
      <point x="195" y="60"/>
      <point x="117" y="205"/>
      <point x="117" y="301" type="qcurve" smooth="yes"/>
      <point x="117" y="364"/>
      <point x="133" y="434" type="qcurve" smooth="yes"/>
      <point x="263" y="999" type="line"/>
      <point x="464" y="999" type="line"/>
      <point x="396" y="723" type="line"/>
      <point x="523" y="822"/>
      <point x="668" y="822" type="qcurve" smooth="yes"/>
      <point x="850" y="822"/>
      <point x="1036" y="649"/>
      <point x="1036" y="504" type="qcurve" smooth="yes"/>
      <point x="1036" y="419"/>
      <point x="977" y="243"/>
      <point x="917" y="170" type="qcurve" smooth="yes"/>
      <point x="843" y="82"/>
      <point x="619" y="-20"/>
    </contour>
    <contour>
      <point x="492" y="166" type="qcurve" smooth="yes"/>
      <point x="571" y="166"/>
      <point x="696" y="234"/>
      <point x="779" y="349"/>
      <point x="796" y="421" type="qcurve" smooth="yes"/>
      <point x="802" y="447"/>
      <point x="802" y="472" type="qcurve" smooth="yes"/>
      <point x="802" y="539"/>
      <point x="715" y="635"/>
      <point x="626" y="635" type="qcurve" smooth="yes"/>
      <point x="549" y="635"/>
      <point x="426" y="572"/>
      <point x="345" y="471"/>
      <point x="315" y="352"/>
      <point x="315" y="322" type="qcurve" smooth="yes"/>
      <point x="315" y="253"/>
      <point x="402" y="166"/>
    </contour>
  </outline>
</glyph>
<glyph name="afii10095" format="2">
  <advance width="992"/>
  <unicode hex="044D"/>
  <outline>
    <contour>
      <point x="353" y="-20" type="qcurve" smooth="yes"/>
      <point x="200" y="-20"/>
      <point x="21" y="142"/>
      <point x="4" y="276" type="qcurve"/>
      <point x="206" y="333" type="line"/>
      <point x="211" y="254"/>
      <point x="303" y="177"/>
      <point x="375" y="177" type="qcurve" smooth="yes"/>
      <point x="483" y="177"/>
      <point x="641" y="316"/>
      <point x="682" y="420" type="qcurve"/>
      <point x="316" y="411" type="line"/>
      <point x="353" y="571" type="line"/>
      <point x="723" y="581" type="line"/>
      <point x="725" y="621" type="line"/>
      <point x="725" y="708"/>
      <point x="643" y="818"/>
      <point x="548" y="818" type="qcurve" smooth="yes"/>
      <point x="460" y="818"/>
      <point x="321" y="721"/>
      <point x="282" y="644" type="qcurve"/>
      <point x="96" y="743" type="line"/>
      <point x="183" y="875"/>
      <point x="427" y="1016"/>
      <point x="569" y="1016" type="qcurve" smooth="yes"/>
      <point x="695" y="1016"/>
      <point x="860" y="916"/>
      <point x="941" y="742"/>
      <point x="941" y="633" type="qcurve" smooth="yes"/>
      <point x="941" y="539"/>
      <point x="879" y="327"/>
      <point x="815" y="232" type="qcurve" smooth="yes"/>
      <point x="766" y="159"/>
      <point x="630" y="46"/>
      <point x="457" y="-20"/>
    </contour>
  </outline>
</glyph>
<glyph name="afii10096" format="2">
  <advance width="1556"/>
  <unicode hex="044E"/>
  <outline>
    <contour>
      <point x="878" y="-20" type="qcurve" smooth="yes"/>
      <point x="747" y="-20"/>
      <point x="562" y="87"/>
      <point x="465" y="269"/>
      <point x="465" y="381" type="qcurve" smooth="yes"/>
      <point x="465" y="430"/>
      <point x="474" y="481" type="qcurve"/>
      <point x="367" y="472" type="line"/>
      <point x="259" y="0" type="line"/>
      <point x="41" y="0" type="line"/>
      <point x="367" y="1413" type="line"/>
      <point x="584" y="1413" type="line"/>
      <point x="403" y="634" type="line"/>
      <point x="527" y="643" type="line"/>
      <point x="579" y="750"/>
      <point x="747" y="916"/>
      <point x="965" y="1012"/>
      <point x="1090" y="1012" type="qcurve" smooth="yes"/>
      <point x="1221" y="1012"/>
      <point x="1405" y="906"/>
      <point x="1502" y="723"/>
      <point x="1502" y="609" type="qcurve" smooth="yes"/>
      <point x="1502" y="441"/>
      <point x="1330" y="155"/>
      <point x="1045" y="-20"/>
    </contour>
    <contour>
      <point x="896" y="166" type="qcurve" smooth="yes"/>
      <point x="994" y="166"/>
      <point x="1143" y="260"/>
      <point x="1240" y="418"/>
      <point x="1262" y="516" type="qcurve"/>
      <point x="1275" y="569"/>
      <point x="1275" y="623" type="qcurve" smooth="yes"/>
      <point x="1275" y="713"/>
      <point x="1180" y="825"/>
      <point x="1072" y="825" type="qcurve" smooth="yes"/>
      <point x="974" y="825"/>
      <point x="827" y="732"/>
      <point x="729" y="575"/>
      <point x="706" y="476" type="qcurve" smooth="yes"/>
      <point x="693" y="423"/>
      <point x="693" y="369" type="qcurve" smooth="yes"/>
      <point x="693" y="279"/>
      <point x="788" y="166"/>
    </contour>
  </outline>
</glyph>
<glyph name="afii10099" format="2">
  <advance width="1146"/>
  <unicode hex="0452"/>
  <outline>
    <contour>
      <point x="404" y="-444" type="qcurve" smooth="yes"/>
      <point x="326" y="-444"/>
      <point x="200" y="-392"/>
      <point x="141" y="-342" type="qcurve"/>
      <point x="272" y="-186" type="line"/>
      <point x="305" y="-216"/>
      <point x="381" y="-244"/>
      <point x="417" y="-244" type="qcurve" smooth="yes"/>
      <point x="531" y="-244"/>
      <point x="673" y="-81"/>
      <point x="705" y="54" type="qcurve"/>
      <point x="828" y="588" type="line"/>
      <point x="842" y="653"/>
      <point x="842" y="690" type="qcurve" smooth="yes"/>
      <point x="842" y="749"/>
      <point x="781" y="811"/>
      <point x="715" y="811" type="qcurve" smooth="yes"/>
      <point x="611" y="811"/>
      <point x="411" y="657"/>
      <point x="375" y="518" type="qcurve"/>
      <point x="256" y="0" type="line"/>
      <point x="38" y="0" type="line"/>
      <point x="299" y="1134" type="line"/>
      <point x="140" y="1134" type="line"/>
      <point x="174" y="1283" type="line"/>
      <point x="333" y="1283" type="line"/>
      <point x="364" y="1413" type="line"/>
      <point x="582" y="1413" type="line"/>
      <point x="551" y="1283" type="line"/>
      <point x="809" y="1283" type="line"/>
      <point x="775" y="1134" type="line"/>
      <point x="517" y="1134" type="line"/>
      <point x="455" y="883" type="line"/>
      <point x="524" y="955"/>
      <point x="680" y="1020"/>
      <point x="758" y="1020" type="qcurve" smooth="yes"/>
      <point x="913" y="1020"/>
      <point x="1060" y="854"/>
      <point x="1060" y="721" type="qcurve" smooth="yes"/>
      <point x="1060" y="656"/>
      <point x="1043" y="585" type="qcurve"/>
      <point x="931" y="95" type="line" smooth="yes"/>
      <point x="867" y="-182"/>
      <point x="614" y="-444"/>
    </contour>
  </outline>
</glyph>
<glyph name="afii10100" format="2">
  <advance width="786"/>
  <unicode hex="0453"/>
  <outline>
    <contour>
      <point x="629" y="1124" type="line"/>
      <point x="464" y="1124" type="line"/>
      <point x="753" y="1413" type="line"/>
      <point x="989" y="1413" type="line"/>
    </contour>
    <contour>
      <point x="251" y="0" type="line"/>
      <point x="34" y="0" type="line"/>
      <point x="263" y="999" type="line"/>
      <point x="895" y="999" type="line"/>
      <point x="859" y="837" type="line"/>
      <point x="444" y="837" type="line"/>
    </contour>
  </outline>
</glyph>
<glyph name="afii10101" format="2">
  <advance width="990"/>
  <unicode hex="0454"/>
  <outline>
    <contour>
      <point x="424" y="-20" type="qcurve" smooth="yes"/>
      <point x="296" y="-20"/>
      <point x="130" y="81"/>
      <point x="49" y="255"/>
      <point x="49" y="364" type="qcurve" smooth="yes"/>
      <point x="49" y="468"/>
      <point x="118" y="688"/>
      <point x="260" y="881"/>
      <point x="370" y="947" type="qcurve"/>
      <point x="488" y="1016"/>
      <point x="636" y="1016" type="qcurve" smooth="yes"/>
      <point x="738" y="1016"/>
      <point x="888" y="942"/>
      <point x="980" y="811"/>
      <point x="997" y="725" type="qcurve"/>
      <point x="783" y="663" type="line"/>
      <point x="779" y="742"/>
      <point x="688" y="818"/>
      <point x="615" y="818" type="qcurve" smooth="yes"/>
      <point x="504" y="818"/>
      <point x="343" y="671"/>
      <point x="303" y="562" type="qcurve"/>
      <point x="670" y="571" type="line"/>
      <point x="633" y="411" type="line"/>
      <point x="265" y="402" type="line"/>
      <point x="264" y="374" type="line"/>
      <point x="264" y="285"/>
      <point x="347" y="177"/>
      <point x="442" y="177" type="qcurve" smooth="yes"/>
      <point x="528" y="177"/>
      <point x="669" y="276"/>
      <point x="707" y="351" type="qcurve"/>
      <point x="884" y="258" type="line"/>
      <point x="800" y="117"/>
      <point x="559" y="-20"/>
    </contour>
  </outline>
</glyph>
<glyph name="afii10103" format="2">
  <advance width="521"/>
  <unicode hex="0456"/>
  <outline>
    <contour>
      <point x="537" y="1197" type="line"/>
      <point x="306" y="1197" type="line"/>
      <point x="357" y="1412" type="line"/>
      <point x="588" y="1412" type="line"/>
    </contour>
    <contour>
      <point x="252" y="0" type="line"/>
      <point x="39" y="0" type="line"/>
      <point x="268" y="999" type="line"/>
      <point x="481" y="999" type="line"/>
    </contour>
  </outline>
</glyph>
<glyph name="afii10104" format="2">
  <advance width="507"/>
  <unicode hex="0457"/>
  <outline>
    <contour>
      <point x="327" y="1164" type="line"/>
      <point x="138" y="1164" type="line"/>
      <point x="181" y="1350" type="line"/>
      <point x="370" y="1350" type="line"/>
    </contour>
    <contour>
      <point x="674" y="1164" type="line"/>
      <point x="485" y="1164" type="line"/>
      <point x="528" y="1350" type="line"/>
      <point x="717" y="1350" type="line"/>
    </contour>
    <contour>
      <point x="242" y="0" type="line"/>
      <point x="36" y="0" type="line"/>
      <point x="265" y="999" type="line"/>
      <point x="471" y="999" type="line"/>
    </contour>
  </outline>
</glyph>
<glyph name="uni045D" format="2">
  <advance width="1187"/>
  <unicode hex="045D"/>
  <outline>
    <contour>
      <point x="840" y="1111" type="line"/>
      <point x="677" y="1111" type="line"/>
      <point x="460" y="1413" type="line"/>
      <point x="689" y="1413" type="line"/>
    </contour>
    <contour>
      <point x="410" y="-23" type="qcurve" smooth="yes"/>
      <point x="262" y="-23"/>
      <point x="121" y="146"/>
      <point x="121" y="282" type="qcurve" smooth="yes"/>
      <point x="121" y="352"/>
      <point x="137" y="419" type="qcurve" smooth="yes"/>
      <point x="270" y="999" type="line"/>
      <point x="487" y="999" type="line"/>
      <point x="351" y="408" type="line" smooth="yes"/>
      <point x="337" y="347"/>
      <point x="337" y="301" type="qcurve" smooth="yes"/>
      <point x="337" y="241"/>
      <point x="395" y="177"/>
      <point x="460" y="177" type="qcurve" smooth="yes"/>
      <point x="540" y="177"/>
      <point x="686" y="260"/>
      <point x="787" y="384"/>
      <point x="803" y="450" type="qcurve"/>
      <point x="929" y="999" type="line"/>
      <point x="1146" y="999" type="line"/>
      <point x="916" y="0" type="line"/>
      <point x="700" y="0" type="line"/>
      <point x="732" y="125" type="line"/>
      <point x="670" y="59"/>
      <point x="500" y="-23"/>
    </contour>
  </outline>
</glyph>
<glyph name="afii10193" format="2">
  <advance width="1187"/>
  <unicode hex="045F"/>
  <outline>
    <contour>
      <point x="515" y="-307" type="line"/>
      <point x="298" y="-307" type="line"/>
      <point x="370" y="0" type="line"/>
      <point x="41" y="0" type="line"/>
      <point x="270" y="999" type="line"/>
      <point x="487" y="999" type="line"/>
      <point x="294" y="163" type="line"/>
      <point x="736" y="163" type="line"/>
      <point x="929" y="999" type="line"/>
      <point x="1146" y="999" type="line"/>
      <point x="916" y="0" type="line"/>
      <point x="587" y="0" type="line"/>
    </contour>
  </outline>
</glyph>
<glyph name="afii10194" format="2">
  <advance width="1036"/>
  <unicode hex="0463"/>
  <outline>
    <contour>
      <point x="421" y="0" type="qcurve" smooth="yes"/>
      <point x="38" y="0" type="line"/>
      <point x="299" y="1134" type="line"/>
      <point x="111" y="1134" type="line"/>
      <point x="144" y="1283" type="line"/>
      <point x="333" y="1283" type="line"/>
      <point x="364" y="1412" type="line"/>
      <point x="580" y="1412" type="line"/>
      <point x="549" y="1283" type="line"/>
      <point x="815" y="1283" type="line"/>
      <point x="781" y="1134" type="line"/>
      <point x="516" y="1134" type="line"/>
      <point x="414" y="692" type="line"/>
      <point x="567" y="692" type="line" smooth="yes"/>
      <point x="761" y="692"/>
      <point x="939" y="569"/>
      <point x="939" y="445" type="qcurve" smooth="yes"/>
      <point x="939" y="394"/>
      <point x="924" y="331" type="qcurve" smooth="yes"/>
      <point x="847" y="0"/>
    </contour>
    <contour>
      <point x="449" y="183" type="line" smooth="yes"/>
      <point x="653" y="183"/>
      <point x="696" y="371" type="qcurve"/>
      <point x="701" y="396"/>
      <point x="701" y="412" type="qcurve" smooth="yes"/>
      <point x="701" y="466"/>
      <point x="617" y="509"/>
      <point x="537" y="509" type="qcurve" smooth="yes"/>
      <point x="371" y="509" type="line"/>
      <point x="295" y="183" type="line"/>
    </contour>
  </outline>
</glyph>
<glyph name="eiotifiedcyrillic" format="2">
  <advance width="1450"/>
  <unicode hex="0465"/>
  <outline>
    <contour>
      <point x="884" y="-20" type="qcurve" smooth="yes"/>
      <point x="757" y="-20"/>
      <point x="591" y="80"/>
      <point x="509" y="253"/>
      <point x="509" y="360" type="qcurve" smooth="yes"/>
      <point x="509" y="393"/>
      <point x="514" y="436" type="qcurve"/>
      <point x="356" y="427" type="line"/>
      <point x="258" y="0" type="line"/>
      <point x="41" y="0" type="line"/>
      <point x="270" y="999" type="line"/>
      <point x="487" y="999" type="line"/>
      <point x="393" y="589" type="line"/>
      <point x="551" y="599" type="line"/>
      <point x="593" y="712"/>
      <point x="743" y="901"/>
      <point x="957" y="1016"/>
      <point x="1096" y="1016" type="qcurve" smooth="yes"/>
      <point x="1198" y="1016"/>
      <point x="1348" y="942"/>
      <point x="1441" y="811"/>
      <point x="1458" y="725" type="qcurve"/>
      <point x="1244" y="663" type="line"/>
      <point x="1239" y="742"/>
      <point x="1149" y="818"/>
      <point x="1076" y="818" type="qcurve" smooth="yes"/>
      <point x="999" y="818"/>
      <point x="875" y="747"/>
      <point x="789" y="638"/>
      <point x="767" y="580" type="qcurve"/>
      <point x="1134" y="589" type="line"/>
      <point x="1098" y="429" type="line"/>
      <point x="730" y="420" type="line"/>
      <point x="727" y="392"/>
      <point x="727" y="366" type="qcurve" smooth="yes"/>
      <point x="727" y="280"/>
      <point x="809" y="177"/>
      <point x="902" y="177" type="qcurve" smooth="yes"/>
      <point x="988" y="177"/>
      <point x="1129" y="276"/>
      <point x="1167" y="351" type="qcurve"/>
      <point x="1343" y="258" type="line"/>
      <point x="1261" y="117"/>
      <point x="1019" y="-20"/>
    </contour>
  </outline>
</glyph>
<glyph name="Yuslittlecyrillic" format="2">
  <advance width="1331"/>
  <unicode hex="0466"/>
  <outline>
    <contour>
      <point x="1188" y="0" type="line"/>
      <point x="950" y="0" type="line"/>
      <point x="901" y="400" type="line"/>
      <point x="757" y="400" type="line"/>
      <point x="666" y="0" type="line"/>
      <point x="443" y="0" type="line"/>
      <point x="534" y="400" type="line"/>
      <point x="395" y="400" type="line"/>
      <point x="161" y="0" type="line"/>
      <point x="-87" y="0" type="line"/>
      <point x="793" y="1412" type="line"/>
      <point x="962" y="1412" type="line"/>
    </contour>
    <contour>
      <point x="871" y="591" type="line"/>
      <point x="808" y="1083" type="line"/>
      <point x="515" y="591" type="line"/>
    </contour>
  </outline>
</glyph>
<glyph name="Yuslittleiotifiedcyrillic" format="2">
  <advance width="1790"/>
  <unicode hex="0468"/>
  <outline>
    <contour>
      <point x="1648" y="0" type="line"/>
      <point x="1410" y="0" type="line"/>
      <point x="1360" y="400" type="line"/>
      <point x="1217" y="400" type="line"/>
      <point x="1125" y="0" type="line"/>
      <point x="902" y="0" type="line"/>
      <point x="993" y="400" type="line"/>
      <point x="855" y="400" type="line"/>
      <point x="620" y="0" type="line"/>
      <point x="373" y="0" type="line"/>
      <point x="748" y="605" type="line"/>
      <point x="439" y="605" type="line"/>
      <point x="301" y="0" type="line"/>
      <point x="77" y="0" type="line"/>
      <point x="402" y="1412" type="line"/>
      <point x="626" y="1412" type="line"/>
      <point x="486" y="808" type="line"/>
      <point x="876" y="808" type="line"/>
      <point x="1252" y="1412" type="line"/>
      <point x="1421" y="1412" type="line"/>
    </contour>
    <contour>
      <point x="1331" y="591" type="line"/>
      <point x="1268" y="1083" type="line"/>
      <point x="974" y="591" type="line"/>
    </contour>
  </outline>
</glyph>
<glyph name="Yusbigcyrillic" format="2">
  <advance width="1576"/>
  <unicode hex="046A"/>
  <outline>
    <contour>
      <point x="1420" y="0" type="line"/>
      <point x="1171" y="0" type="line"/>
      <point x="1106" y="492" type="line"/>
      <point x="1088" y="657"/>
      <point x="972" y="657" type="qcurve" smooth="yes"/>
      <point x="925" y="657" type="line"/>
      <point x="775" y="0" type="line"/>
      <point x="551" y="0" type="line"/>
      <point x="701" y="657" type="line"/>
      <point x="670" y="657" type="line" smooth="yes"/>
      <point x="601" y="657"/>
      <point x="484" y="541"/>
      <point x="447" y="473" type="qcurve"/>
      <point x="159" y="0" type="line"/>
      <point x="-76" y="0" type="line"/>
      <point x="272" y="595" type="line" smooth="yes"/>
      <point x="304" y="650"/>
      <point x="400" y="749"/>
      <point x="517" y="813"/>
      <point x="579" y="813" type="qcurve"/>
      <point x="387" y="1209" type="line"/>
      <point x="431" y="1412" type="line"/>
      <point x="1544" y="1412" type="line"/>
      <point x="1500" y="1209" type="line"/>
      <point x="1111" y="813" type="line"/>
      <point x="1171" y="813"/>
      <point x="1258" y="740"/>
      <point x="1310" y="633"/>
      <point x="1318" y="577" type="qcurve"/>
    </contour>
    <contour>
      <point x="850" y="828" type="line"/>
      <point x="1215" y="1209" type="line"/>
      <point x="660" y="1209" type="line"/>
    </contour>
  </outline>
</glyph>
<glyph name="Yusbigiotifiedcyrillic" format="2">
  <advance width="2029"/>
  <unicode hex="046C"/>
  <outline>
    <contour>
      <point x="1873" y="0" type="line"/>
      <point x="1629" y="0" type="line"/>
      <point x="1565" y="492" type="line"/>
      <point x="1555" y="561"/>
      <point x="1499" y="657"/>
      <point x="1430" y="657" type="qcurve" smooth="yes"/>
      <point x="1384" y="657" type="line"/>
      <point x="1233" y="0" type="line"/>
      <point x="1009" y="0" type="line"/>
      <point x="1160" y="657" type="line"/>
      <point x="1128" y="657" type="line" smooth="yes"/>
      <point x="1060" y="657"/>
      <point x="944" y="542"/>
      <point x="905" y="473" type="qcurve"/>
      <point x="617" y="0" type="line"/>
      <point x="388" y="0" type="line"/>
      <point x="702" y="539" type="line"/>
      <point x="748" y="613" type="line"/>
      <point x="439" y="604" type="line"/>
      <point x="301" y="0" type="line"/>
      <point x="77" y="0" type="line"/>
      <point x="402" y="1412" type="line"/>
      <point x="626" y="1412" type="line"/>
      <point x="485" y="806" type="line"/>
      <point x="1048" y="806" type="line"/>
      <point x="845" y="1209" type="line"/>
      <point x="889" y="1412" type="line"/>
      <point x="2002" y="1412" type="line"/>
      <point x="1958" y="1209" type="line"/>
      <point x="1569" y="813" type="line"/>
      <point x="1628" y="813"/>
      <point x="1713" y="740"/>
      <point x="1763" y="633"/>
      <point x="1771" y="577" type="qcurve"/>
    </contour>
    <contour>
      <point x="1309" y="828" type="line"/>
      <point x="1673" y="1209" type="line"/>
      <point x="1118" y="1209" type="line"/>
    </contour>
  </outline>
</glyph>
<glyph name="yusbigiotifiedcyrillic" format="2">
  <advance width="1679"/>
  <unicode hex="046D"/>
  <outline>
    <contour>
      <point x="1534" y="0" type="line"/>
      <point x="1286" y="0" type="line"/>
      <point x="1249" y="364" type="line"/>
      <point x="1243" y="407"/>
      <point x="1218" y="450"/>
      <point x="1179" y="463"/>
      <point x="1149" y="463" type="qcurve" smooth="yes"/>
      <point x="1136" y="463" type="line"/>
      <point x="1023" y="0" type="line"/>
      <point x="831" y="0" type="line"/>
      <point x="944" y="463" type="line"/>
      <point x="887" y="463"/>
      <point x="803" y="397"/>
      <point x="776" y="345" type="qcurve"/>
      <point x="573" y="0" type="line"/>
      <point x="317" y="0" type="line"/>
      <point x="537" y="364" type="line"/>
      <point x="562" y="409"/>
      <point x="586" y="439" type="qcurve"/>
      <point x="357" y="431" type="line"/>
      <point x="258" y="0" type="line"/>
      <point x="41" y="0" type="line"/>
      <point x="270" y="999" type="line"/>
      <point x="487" y="999" type="line"/>
      <point x="394" y="593" type="line"/>
      <point x="812" y="593" type="line"/>
      <point x="671" y="837" type="line"/>
      <point x="705" y="999" type="line"/>
      <point x="1608" y="999" type="line"/>
      <point x="1573" y="837" type="line"/>
      <point x="1332" y="612" type="line"/>
      <point x="1394" y="612"/>
      <point x="1448" y="513"/>
      <point x="1462" y="439" type="qcurve"/>
    </contour>
    <contour>
      <point x="1066" y="616" type="line"/>
      <point x="1302" y="837" type="line"/>
      <point x="941" y="837" type="line"/>
    </contour>
  </outline>
</glyph>
<glyph name="afii10147" format="2">
  <advance width="1527"/>
  <unicode hex="0472"/>
  <outline>
    <contour>
      <point x="656" y="-20" type="qcurve" smooth="yes"/>
      <point x="474" y="-20"/>
      <point x="238" y="115"/>
      <point x="122" y="351"/>
      <point x="122" y="503" type="qcurve" smooth="yes"/>
      <point x="122" y="650"/>
      <point x="216" y="953"/>
      <point x="303" y="1083" type="qcurve"/>
      <point x="412" y="1243"/>
      <point x="750" y="1434"/>
      <point x="966" y="1434" type="qcurve" smooth="yes"/>
      <point x="1149" y="1434"/>
      <point x="1386" y="1300"/>
      <point x="1501" y="1063"/>
      <point x="1501" y="910" type="qcurve" smooth="yes"/>
      <point x="1501" y="768"/>
      <point x="1409" y="463"/>
      <point x="1320" y="331" type="qcurve" smooth="yes"/>
      <point x="1211" y="171"/>
      <point x="873" y="-20"/>
    </contour>
    <contour>
      <point x="399" y="785" type="qcurve"/>
      <point x="1264" y="803" type="line"/>
      <point x="1270" y="853"/>
      <point x="1270" y="899" type="qcurve" smooth="yes"/>
      <point x="1270" y="1054"/>
      <point x="1113" y="1233"/>
      <point x="944" y="1233" type="qcurve" smooth="yes"/>
      <point x="804" y="1233"/>
      <point x="589" y="1113"/>
      <point x="440" y="911"/>
    </contour>
    <contour>
      <point x="676" y="180" type="qcurve" smooth="yes"/>
      <point x="817" y="180"/>
      <point x="1035" y="303"/>
      <point x="1185" y="511"/>
      <point x="1226" y="642" type="qcurve"/>
      <point x="361" y="623" type="line"/>
      <point x="351" y="558"/>
      <point x="351" y="509" type="qcurve" smooth="yes"/>
      <point x="351" y="357"/>
      <point x="508" y="180"/>
    </contour>
  </outline>
</glyph>
<glyph name="afii10195" format="2">
  <advance width="1142"/>
  <unicode hex="0473"/>
  <outline>
    <contour>
      <point x="463" y="-20" type="qcurve" smooth="yes"/>
      <point x="331" y="-20"/>
      <point x="147" y="87"/>
      <point x="51" y="270"/>
      <point x="51" y="384" type="qcurve" smooth="yes"/>
      <point x="51" y="587"/>
      <point x="187" y="766" type="qcurve"/>
      <point x="273" y="876"/>
      <point x="525" y="1012"/>
      <point x="675" y="1012" type="qcurve" smooth="yes"/>
      <point x="808" y="1012"/>
      <point x="992" y="905"/>
      <point x="1087" y="721"/>
      <point x="1087" y="607" type="qcurve" smooth="yes"/>
      <point x="1087" y="511"/>
      <point x="1020" y="316"/>
      <point x="951" y="227" type="qcurve" smooth="yes"/>
      <point x="865" y="116"/>
      <point x="613" y="-20"/>
    </contour>
    <contour>
      <point x="321" y="573" type="qcurve"/>
      <point x="857" y="591" type="line"/>
      <point x="858" y="618" type="line"/>
      <point x="858" y="825"/>
      <point x="657" y="825" type="qcurve" smooth="yes"/>
      <point x="538" y="825"/>
      <point x="366" y="684"/>
    </contour>
    <contour>
      <point x="481" y="166" type="qcurve" smooth="yes"/>
      <point x="603" y="166"/>
      <point x="775" y="314"/>
      <point x="818" y="430" type="qcurve"/>
      <point x="281" y="411" type="line"/>
      <point x="279" y="372" type="line"/>
      <point x="279" y="166"/>
    </contour>
  </outline>
</glyph>
<glyph name="afii10196" format="2">
  <advance width="995"/>
  <unicode hex="0475"/>
  <outline>
    <contour>
      <point x="459" y="0" type="line"/>
      <point x="279" y="0" type="line"/>
      <point x="123" y="999" type="line"/>
      <point x="354" y="999" type="line"/>
      <point x="426" y="278" type="line"/>
      <point x="639" y="642" type="line"/>
      <point x="752" y="832"/>
      <point x="969" y="985"/>
      <point x="1093" y="1001" type="qcurve"/>
      <point x="1057" y="793" type="line"/>
      <point x="1004" y="777"/>
      <point x="907" y="702"/>
      <point x="849" y="609" type="qcurve"/>
    </contour>
  </outline>
</glyph>
<glyph name="afii10050" format="2">
  <advance width="1069"/>
  <unicode hex="0490"/>
  <outline>
    <contour>
      <point x="302" y="0" type="line"/>
      <point x="78" y="0" type="line"/>
      <point x="403" y="1412" type="line"/>
      <point x="1022" y="1412" type="line"/>
      <point x="1092" y="1719" type="line"/>
      <point x="1315" y="1719" type="line"/>
      <point x="1198" y="1209" type="line"/>
      <point x="580" y="1209" type="line"/>
    </contour>
  </outline>
</glyph>
<glyph name="afii10098" format="2">
  <advance width="788"/>
  <unicode hex="0491"/>
  <outline>
    <contour>
      <point x="251" y="0" type="line"/>
      <point x="34" y="0" type="line"/>
      <point x="263" y="999" type="line"/>
      <point x="678" y="999" type="line"/>
      <point x="750" y="1307" type="line"/>
      <point x="967" y="1307" type="line"/>
      <point x="859" y="837" type="line"/>
      <point x="444" y="837" type="line"/>
    </contour>
  </outline>
</glyph>
<glyph name="ghestrokecyrillic" format="2">
  <advance width="790"/>
  <unicode hex="0493"/>
  <outline>
    <contour>
      <point x="255" y="0" type="line"/>
      <point x="38" y="0" type="line"/>
      <point x="267" y="999" type="line"/>
      <point x="899" y="999" type="line"/>
      <point x="863" y="837" type="line"/>
      <point x="448" y="837" type="line"/>
    </contour>
  </outline>
</glyph>
<glyph name="kadescendercyrillic" format="2">
  <advance width="1016"/>
  <unicode hex="049B"/>
  <outline>
    <contour>
      <point x="929" y="-238" type="line"/>
      <point x="716" y="-238" type="line"/>
      <point x="771" y="0" type="line"/>
      <point x="625" y="0" type="line"/>
      <point x="588" y="364" type="line"/>
      <point x="581" y="423"/>
      <point x="529" y="475"/>
      <point x="477" y="475" type="qcurve" smooth="yes"/>
      <point x="365" y="475" type="line"/>
      <point x="255" y="0" type="line"/>
      <point x="41" y="0" type="line"/>
      <point x="367" y="1412" type="line"/>
      <point x="581" y="1412" type="line"/>
      <point x="402" y="638" type="line"/>
      <point x="485" y="638" type="line"/>
      <point x="798" y="999" type="line"/>
      <point x="1055" y="999" type="line"/>
      <point x="675" y="607" type="line"/>
      <point x="725" y="607"/>
      <point x="790" y="500"/>
      <point x="802" y="439" type="qcurve"/>
      <point x="846" y="168" type="line"/>
      <point x="1023" y="168" type="line"/>
    </contour>
  </outline>
</glyph>
<glyph name="ustraightstrokecyrillic" format="2">
  <advance width="990"/>
  <unicode hex="04B1"/>
  <outline>
    <contour>
      <point x="481" y="0" type="line"/>
      <point x="267" y="0" type="line"/>
      <point x="309" y="178" type="line"/>
      <point x="52" y="178" type="line"/>
      <point x="95" y="366" type="line"/>
      <point x="353" y="366" type="line"/>
      <point x="369" y="433" type="line"/>
      <point x="125" y="999" type="line"/>
      <point x="371" y="999" type="line"/>
      <point x="514" y="632" type="line"/>
      <point x="832" y="999" type="line"/>
      <point x="1089" y="999" type="line"/>
      <point x="582" y="433" type="line"/>
      <point x="566" y="366" type="line"/>
      <point x="842" y="366" type="line"/>
      <point x="799" y="178" type="line"/>
      <point x="523" y="178" type="line"/>
    </contour>
  </outline>
</glyph>
<glyph name="hadescendercyrillic" format="2">
  <advance width="1002"/>
  <unicode hex="04B3"/>
  <outline>
    <contour>
      <point x="901" y="-238" type="line"/>
      <point x="688" y="-238" type="line"/>
      <point x="743" y="0" type="line"/>
      <point x="603" y="0" type="line"/>
      <point x="470" y="349" type="line"/>
      <point x="172" y="0" type="line"/>
      <point x="-95" y="0" type="line"/>
      <point x="364" y="504" type="line"/>
      <point x="142" y="999" type="line"/>
      <point x="397" y="999" type="line"/>
      <point x="531" y="656" type="line"/>
      <point x="828" y="999" type="line"/>
      <point x="1095" y="999" type="line"/>
      <point x="636" y="504" type="line"/>
      <point x="785" y="168" type="line"/>
      <point x="995" y="168" type="line"/>
    </contour>
  </outline>
</glyph>
<glyph name="Chedescendercyrillic" format="2">
  <advance width="1343"/>
  <unicode hex="04B6"/>
  <outline>
    <contour>
      <point x="1162" y="-238" type="line"/>
      <point x="949" y="-238" type="line"/>
      <point x="1004" y="0" type="line"/>
      <point x="812" y="0" type="line"/>
      <point x="930" y="495" type="line"/>
      <point x="785" y="410"/>
      <point x="616" y="410" type="qcurve" smooth="yes"/>
      <point x="400" y="410"/>
      <point x="190" y="615"/>
      <point x="190" y="799" type="qcurve" smooth="yes"/>
      <point x="190" y="891"/>
      <point x="216" y="1001" type="qcurve"/>
      <point x="310" y="1412" type="line"/>
      <point x="534" y="1412" type="line"/>
      <point x="438" y="1001" type="line" smooth="yes"/>
      <point x="415" y="900"/>
      <point x="415" y="827" type="qcurve" smooth="yes"/>
      <point x="415" y="721"/>
      <point x="526" y="626"/>
      <point x="641" y="626" type="qcurve" smooth="yes"/>
      <point x="748" y="626"/>
      <point x="922" y="705"/>
      <point x="983" y="761" type="qcurve"/>
      <point x="1137" y="1412" type="line"/>
      <point x="1361" y="1412" type="line"/>
      <point x="1075" y="168" type="line"/>
      <point x="1256" y="168" type="line"/>
    </contour>
  </outline>
</glyph>
<glyph name="uni04CF" format="2">
  <advance width="526"/>
  <unicode hex="04CF"/>
  <outline>
    <contour>
      <point x="255" y="0" type="line"/>
      <point x="41" y="0" type="line"/>
      <point x="367" y="1412" type="line"/>
      <point x="581" y="1412" type="line"/>
    </contour>
  </outline>
</glyph>
<glyph name="Schwacyrillic" format="2">
  <advance width="1527"/>
  <unicode hex="04D8"/>
  <outline>
    <contour>
      <point x="656" y="-20" type="qcurve" smooth="yes"/>
      <point x="474" y="-20"/>
      <point x="238" y="115"/>
      <point x="122" y="351"/>
      <point x="122" y="503" type="qcurve" smooth="yes"/>
      <point x="122" y="572"/>
      <point x="148" y="739"/>
      <point x="170" y="803" type="qcurve"/>
      <point x="1264" y="803" type="line"/>
      <point x="1270" y="853"/>
      <point x="1270" y="899" type="qcurve" smooth="yes"/>
      <point x="1270" y="1054"/>
      <point x="1113" y="1233"/>
      <point x="944" y="1233" type="qcurve" smooth="yes"/>
      <point x="815" y="1233"/>
      <point x="613" y="1128"/>
      <point x="540" y="1040" type="qcurve"/>
      <point x="366" y="1166" type="line"/>
      <point x="476" y="1291"/>
      <point x="776" y="1434"/>
      <point x="966" y="1434" type="qcurve" smooth="yes"/>
      <point x="1149" y="1434"/>
      <point x="1386" y="1300"/>
      <point x="1501" y="1063"/>
      <point x="1501" y="910" type="qcurve" smooth="yes"/>
      <point x="1501" y="768"/>
      <point x="1409" y="463"/>
      <point x="1320" y="331" type="qcurve" smooth="yes"/>
      <point x="1211" y="171"/>
      <point x="873" y="-20"/>
    </contour>
    <contour>
      <point x="676" y="180" type="qcurve" smooth="yes"/>
      <point x="817" y="180"/>
      <point x="1035" y="303"/>
      <point x="1185" y="511"/>
      <point x="1226" y="642" type="qcurve"/>
      <point x="361" y="623" type="line"/>
      <point x="351" y="558"/>
      <point x="351" y="509" type="qcurve" smooth="yes"/>
      <point x="351" y="357"/>
      <point x="508" y="180"/>
    </contour>
  </outline>
</glyph>
<glyph name="emdash" format="2">
  <advance width="1697"/>
  <unicode hex="2014"/>
  <outline>
    <contour>
      <point x="1556" y="530" type="line"/>
      <point x="155" y="530" type="line"/>
      <point x="193" y="692" type="line"/>
      <point x="1594" y="692" type="line"/>
    </contour>
  </outline>
</glyph>
<glyph name="quotesinglbase" format="2">
  <advance width="558"/>
  <unicode hex="201A"/>
  <outline>
    <contour>
      <point x="80" y="-225" type="line"/>
      <point x="-50" y="-225" type="line"/>
      <point x="193" y="264" type="line"/>
      <point x="432" y="264" type="line"/>
    </contour>
  </outline>
</glyph>
<glyph name="quotedblleft" format="2">
  <advance width="934"/>
  <unicode hex="201C"/>
  <outline>
    <contour>
      <point x="539" y="878" type="line"/>
      <point x="402" y="878" type="line"/>
      <point x="284" y="1413" type="line"/>
      <point x="531" y="1413" type="line"/>
    </contour>
    <contour>
      <point x="903" y="878" type="line"/>
      <point x="766" y="878" type="line"/>
      <point x="648" y="1413" type="line"/>
      <point x="894" y="1413" type="line"/>
    </contour>
  </outline>
</glyph>
<glyph name="quotedblright" format="2">
  <advance width="934"/>
  <unicode hex="201D"/>
  <outline>
    <contour>
      <point x="346" y="878" type="line"/>
      <point x="202" y="878" type="line"/>
      <point x="458" y="1413" type="line"/>
      <point x="713" y="1413" type="line"/>
    </contour>
    <contour>
      <point x="711" y="878" type="line"/>
      <point x="566" y="878" type="line"/>
      <point x="822" y="1413" type="line"/>
      <point x="1077" y="1413" type="line"/>
    </contour>
  </outline>
</glyph>
<glyph name="quotedblbase" format="2">
  <advance width="892"/>
  <unicode hex="201E"/>
  <outline>
    <contour>
      <point x="80" y="-225" type="line"/>
      <point x="-50" y="-225" type="line"/>
      <point x="193" y="264" type="line"/>
      <point x="432" y="264" type="line"/>
    </contour>
    <contour>
      <point x="418" y="-225" type="line"/>
      <point x="288" y="-225" type="line"/>
      <point x="530" y="264" type="line"/>
      <point x="770" y="264" type="line"/>
    </contour>
  </outline>
</glyph>
<glyph name="daggerdbl" format="2">
  <advance width="891"/>
  <unicode hex="2021"/>
  <outline>
    <contour>
      <point x="383" y="-205" type="line"/>
      <point x="184" y="-205" type="line"/>
      <point x="275" y="189" type="line"/>
      <point x="54" y="189" type="line"/>
      <point x="100" y="389" type="line"/>
      <point x="321" y="389" type="line"/>
      <point x="420" y="820" type="line"/>
      <point x="199" y="820" type="line"/>
      <point x="245" y="1019" type="line"/>
      <point x="466" y="1019" type="line"/>
      <point x="557" y="1413" type="line"/>
      <point x="756" y="1413" type="line"/>
      <point x="666" y="1019" type="line"/>
      <point x="887" y="1019" type="line"/>
      <point x="841" y="820" type="line"/>
      <point x="620" y="820" type="line"/>
      <point x="520" y="389" type="line"/>
      <point x="741" y="389" type="line"/>
      <point x="695" y="189" type="line"/>
      <point x="474" y="189" type="line"/>
    </contour>
  </outline>
</glyph>
<glyph name="uni2023" format="2">
  <advance width="880"/>
  <unicode hex="2023"/>
  <outline>
    <contour>
      <point x="142" y="173" type="line"/>
      <point x="299" y="865" type="line"/>
      <point x="818" y="519" type="line"/>
    </contour>
  </outline>
</glyph>
<glyph name="ellipsis" format="2">
  <advance width="1481"/>
  <unicode hex="2026"/>
  <outline>
    <contour>
      <point x="328" y="0" type="line"/>
      <point x="97" y="0" type="line"/>
      <point x="152" y="242" type="line"/>
      <point x="382" y="242" type="line"/>
    </contour>
    <contour>
      <point x="741" y="0" type="line"/>
      <point x="510" y="0" type="line"/>
      <point x="565" y="242" type="line"/>
      <point x="796" y="242" type="line"/>
    </contour>
    <contour>
      <point x="1155" y="0" type="line"/>
      <point x="924" y="0" type="line"/>
      <point x="979" y="242" type="line"/>
      <point x="1210" y="242" type="line"/>
    </contour>
  </outline>
</glyph>
<glyph name="perthousand" format="2">
  <advance width="2179"/>
  <unicode hex="2030"/>
  <outline>
    <contour>
      <point x="359" y="-13" type="line"/>
      <point x="167" y="-13" type="line"/>
      <point x="1281" y="1439" type="line"/>
      <point x="1473" y="1439" type="line"/>
    </contour>
    <contour>
      <point x="445" y="779" type="qcurve" smooth="yes"/>
      <point x="329" y="779"/>
      <point x="227" y="917"/>
      <point x="227" y="1021" type="qcurve" smooth="yes"/>
      <point x="227" y="1080"/>
      <point x="262" y="1215"/>
      <point x="340" y="1340"/>
      <point x="404" y="1387" type="qcurve" smooth="yes"/>
      <point x="472" y="1436"/>
      <point x="565" y="1436" type="qcurve" smooth="yes"/>
      <point x="674" y="1436"/>
      <point x="781" y="1295"/>
      <point x="781" y="1188" type="qcurve" smooth="yes"/>
      <point x="781" y="1119"/>
      <point x="734" y="975"/>
      <point x="646" y="854"/>
      <point x="522" y="779"/>
    </contour>
    <contour>
      <point x="450" y="929" type="qcurve" smooth="yes"/>
      <point x="500" y="929"/>
      <point x="580" y="1017"/>
      <point x="627" y="1138"/>
      <point x="627" y="1188" type="qcurve" smooth="yes"/>
      <point x="627" y="1230"/>
      <point x="592" y="1284"/>
      <point x="554" y="1284" type="qcurve" smooth="yes"/>
      <point x="494" y="1284"/>
      <point x="403" y="1169"/>
      <point x="383" y="1087" type="qcurve"/>
      <point x="376" y="1050"/>
      <point x="376" y="1026" type="qcurve" smooth="yes"/>
      <point x="376" y="984"/>
      <point x="410" y="929"/>
    </contour>
    <contour>
      <point x="1091" y="-6" type="qcurve" smooth="yes"/>
      <point x="976" y="-6"/>
      <point x="873" y="135"/>
      <point x="873" y="239" type="qcurve" smooth="yes"/>
      <point x="873" y="300"/>
      <point x="914" y="444"/>
      <point x="998" y="573"/>
      <point x="1126" y="656"/>
      <point x="1213" y="656" type="qcurve" smooth="yes"/>
      <point x="1322" y="656"/>
      <point x="1428" y="517"/>
      <point x="1428" y="411" type="qcurve" smooth="yes"/>
      <point x="1428" y="354"/>
      <point x="1391" y="215"/>
      <point x="1309" y="86"/>
      <point x="1175" y="-6"/>
    </contour>
    <contour>
      <point x="1715" y="-6" type="qcurve" smooth="yes"/>
      <point x="1600" y="-6"/>
      <point x="1497" y="135"/>
      <point x="1497" y="240" type="qcurve" smooth="yes"/>
      <point x="1497" y="301"/>
      <point x="1538" y="445"/>
      <point x="1622" y="573"/>
      <point x="1750" y="656"/>
      <point x="1837" y="656" type="qcurve" smooth="yes"/>
      <point x="1946" y="656"/>
      <point x="2052" y="516"/>
      <point x="2052" y="409" type="qcurve" smooth="yes"/>
      <point x="2052" y="336"/>
      <point x="2005" y="189"/>
      <point x="1916" y="68"/>
      <point x="1792" y="-6"/>
    </contour>
    <contour>
      <point x="1099" y="143" type="qcurve" smooth="yes"/>
      <point x="1150" y="143"/>
      <point x="1229" y="235"/>
      <point x="1274" y="360"/>
      <point x="1274" y="408" type="qcurve" smooth="yes"/>
      <point x="1274" y="450"/>
      <point x="1240" y="505"/>
      <point x="1203" y="505" type="qcurve" smooth="yes"/>
      <point x="1142" y="505"/>
      <point x="1050" y="388"/>
      <point x="1031" y="304" type="qcurve" smooth="yes"/>
      <point x="1023" y="269"/>
      <point x="1023" y="240" type="qcurve" smooth="yes"/>
      <point x="1023" y="198"/>
      <point x="1058" y="143"/>
    </contour>
    <contour>
      <point x="1722" y="143" type="qcurve" smooth="yes"/>
      <point x="1772" y="143"/>
      <point x="1851" y="232"/>
      <point x="1898" y="356"/>
      <point x="1898" y="408" type="qcurve" smooth="yes"/>
      <point x="1898" y="450"/>
      <point x="1864" y="505"/>
      <point x="1827" y="505" type="qcurve" smooth="yes"/>
      <point x="1766" y="505"/>
      <point x="1675" y="389"/>
      <point x="1655" y="304" type="qcurve" smooth="yes"/>
      <point x="1647" y="270"/>
      <point x="1647" y="242" type="qcurve" smooth="yes"/>
      <point x="1647" y="199"/>
      <point x="1682" y="143"/>
    </contour>
  </outline>
</glyph>
